<?xml version="1.0" encoding="utf-8"?><svg xmlns="http://www.w3.org/2000/svg" xmlns:xlink="http://www.w3.org/1999/xlink"><symbol viewBox="0 0 24 24" id="Add" xmlns="http://www.w3.org/2000/svg"><path d="M13.143 10.857h5.714a1.143 1.143 0 1 1 0 2.286h-5.714v5.714a1.143 1.143 0 1 1-2.286 0v-5.714H5.143a1.143 1.143 0 1 1 0-2.286h5.714V5.143a1.143 1.143 0 1 1 2.286 0v5.714z"/></symbol><symbol viewBox="0 0 24 24" id="Add_Mini" xmlns="http://www.w3.org/2000/svg"><circle data-hover-behavior="color" cx="12" cy="12" r="8" fill="#FFF"/><path data-hover-behavior="white" d="M12.714 11.286h3.572a.714.714 0 1 1 0 1.428h-3.572v3.572a.714.714 0 1 1-1.428 0v-3.572H7.714a.714.714 0 1 1 0-1.428h3.572V7.714a.714.714 0 1 1 1.428 0v3.572z"/><path data-hover-behavior="color" d="M12 20.5a8.5 8.5 0 1 1 0-17 8.5 8.5 0 0 1 0 17zm0-1a7.5 7.5 0 1 0 0-15 7.5 7.5 0 0 0 0 15z"/></symbol><symbol viewBox="0 0 24 24" id="Adjustment" xmlns="http://www.w3.org/2000/svg"><path d="M15 5v-.5a.5.5 0 1 1 1 0V5h3a1 1 0 0 1 0 2h-3v.5a.5.5 0 1 1-1 0V7H5a1 1 0 1 1 0-2h10zm2 8v-.5a.5.5 0 1 1 1 0v.5h1a1 1 0 0 1 0 2h-1v.5a.5.5 0 1 1-1 0V15H5a1 1 0 0 1 0-2h12zM6 17v-.5a.5.5 0 1 1 1 0v.5h12a1 1 0 0 1 0 2H7v.5a.5.5 0 1 1-1 0V19H5a1 1 0 0 1 0-2h1zm3-8v-.5a.5.5 0 0 1 1 0V9h9a1 1 0 0 1 0 2h-9v.5a.5.5 0 1 1-1 0V11H5a1 1 0 0 1 0-2h4z"/></symbol><symbol viewBox="0 0 24 24" id="Approval" xmlns="http://www.w3.org/2000/svg"><path d="M18.4 13.07h-2.933c-.867 0-1.6-.734-1.6-1.6C14 9.104 15.1 8.97 15.2 7.438c.1-1.6-.9-3.032-2.467-3.365C10.667 3.639 8.8 5.205 8.8 7.205c0 1.766 1.2 1.766 1.333 4.265 0 .866-.733 1.6-1.6 1.6H5.6c-.867 0-1.6.699-1.6 1.599v1.066c0 .3.233.533.533.533h14.934c.3 0 .533-.233.533-.533v-1.066c0-.9-.733-1.6-1.6-1.6zm.033 4.797H5.567c-.3 0-.5.234-.5.5v.034c0 .866.733 1.599 1.6 1.599h10.7c.866 0 1.566-.733 1.566-1.6v-.033c0-.266-.233-.5-.5-.5z"/></symbol><symbol viewBox="0 0 68 24" id="Apttus" xmlns="http://www.w3.org/2000/svg"><path d="M9.464 7.215L6 16.869h2.438l.648-1.952h3.478l.65 1.952h2.5L12.25 7.215H9.464zm1.361 2.47l1.153 3.462H9.673l1.152-3.462zm13.008.472c0 .447-.074.885-.222 1.312a2.946 2.946 0 0 1-.633 1.078 3.87 3.87 0 0 1-1.258.893c-.462.202-1.037.303-1.726.303H18.48V17h-2.432V7h4.003c.6 0 1.106.055 1.517.165.412.11.777.274 1.093.493.38.264.67.603.871 1.014.201.413.301.907.301 1.485zm-2.515.06c0-.282-.071-.525-.215-.728a1.183 1.183 0 0 0-.5-.427 2.16 2.16 0 0 0-.742-.178c-.24-.01-.561-.016-.962-.016h-.419v2.995h.697c.414 0 .755-.028 1.023-.081.268-.054.493-.161.675-.322.156-.144.27-.315.339-.514.07-.2.104-.442.104-.73zm11.2-1.283h-2.946V17H27.14V8.934h-2.946V7.001h8.324v1.933zm9.401 0H38.98L37.225 17H34.78l1.755-8.066h-2.94L34.016 7h8.323l-.419 1.934zm9.725-1.933l-1.333 6.086c-.3 1.348-.808 2.327-1.524 2.935-.717.61-1.754.913-3.112.913-1.21 0-2.126-.23-2.747-.69-.622-.46-.932-1.158-.932-2.091 0-.192.015-.386.043-.583.029-.196.06-.375.093-.537l1.32-6.033h2.396l-1.321 6.04a3.725 3.725 0 0 0-.07.403c-.02.146-.03.267-.03.363 0 .41.117.72.35.932.232.212.618.318 1.158.318.522 0 .945-.153 1.268-.458.323-.306.555-.78.695-1.427l1.351-6.171h2.395zm2.745 9.972c-.775 0-1.466-.07-2.074-.213a7.779 7.779 0 0 1-1.574-.53l.469-2.305h.255c.419.406.91.719 1.474.94a4.933 4.933 0 0 0 1.822.333c.665 0 1.155-.096 1.468-.288.312-.191.469-.465.469-.823a.737.737 0 0 0-.076-.346.835.835 0 0 0-.296-.287 3.067 3.067 0 0 0-.6-.28c-.253-.093-.581-.2-.983-.32-.443-.13-.84-.27-1.19-.42a3.643 3.643 0 0 1-.9-.536 2.143 2.143 0 0 1-.563-.73c-.128-.275-.192-.604-.192-.987 0-.965.4-1.734 1.203-2.309.802-.574 1.9-.861 3.293-.861.669 0 1.302.057 1.896.173.595.117 1.1.274 1.514.472l-.445 2.215h-.249c-.317-.31-.734-.57-1.252-.778a4.482 4.482 0 0 0-1.697-.314c-.6 0-1.066.093-1.394.278-.33.185-.493.44-.493.769 0 .15.024.275.073.374.048.099.148.196.298.29.13.087.335.18.615.282.28.1.61.205.986.313 1.016.288 1.741.626 2.175 1.013.435.388.653.913.653 1.576 0 .555-.119 1.043-.355 1.466-.235.42-.559.764-.974 1.026a4.66 4.66 0 0 1-1.48.613 8.236 8.236 0 0 1-1.876.194zm6.83-8.445a.765.765 0 0 1-.776-.762c0-.442.356-.766.776-.766a.764.764 0 1 1 0 1.528zm.004-1.46a.7.7 0 0 0-.71.698c0 .389.319.694.708.694a.696.696 0 1 0 .002-1.391zm-.013.209c.101 0 .169.002.23.024.105.036.157.13.157.223 0 .122-.076.197-.2.23.078.034.117.07.14.201.021.146.03.2.074.286h-.2a.425.425 0 0 1-.039-.133l-.024-.148c-.026-.138-.094-.149-.22-.15h-.062v.43h-.175v-.963h.32zm-.142.395h.145c.07 0 .21.002.21-.133 0-.037-.016-.09-.07-.114-.036-.015-.057-.015-.173-.015h-.112v.262z"/></symbol><symbol viewBox="0 0 24 24" id="Arrow_Down" xmlns="http://www.w3.org/2000/svg"><path d="M7.185 13.615a.56.56 0 0 0 0 .831L11.8 18.97a.595.595 0 0 0 .862 0l4.646-4.523a.56.56 0 0 0 0-.83l-.862-.831a.595.595 0 0 0-.861 0L14.138 14.2c-.246.246-.676.092-.676-.277V5.615A.638.638 0 0 0 12.846 5h-1.23c-.34 0-.616.338-.616.615v8.308c0 .37-.43.523-.677.277l-1.446-1.415a.595.595 0 0 0-.862 0l-.83.83z"/></symbol><symbol viewBox="0 0 24 24" id="Arrow_Left" xmlns="http://www.w3.org/2000/svg"><path d="M18.323 10.938H8.108c-.277 0-.4-.338-.216-.523l2.954-2.953a.446.446 0 0 0 0-.647l-.677-.677a.446.446 0 0 0-.646 0l-5.385 5.416a.446.446 0 0 0 0 .646l5.385 5.385a.446.446 0 0 0 .646 0l.646-.647a.446.446 0 0 0 0-.646l-2.953-2.954c-.185-.215-.062-.553.215-.553h10.215c.246 0 .462-.185.462-.431v-.923c0-.246-.185-.493-.43-.493z"/></symbol><symbol viewBox="0 0 24 24" id="Arrow_Right" xmlns="http://www.w3.org/2000/svg"><path d="M5.677 13.062h10.215c.277 0 .4.338.216.523l-2.954 2.953a.446.446 0 0 0 0 .647l.677.677a.446.446 0 0 0 .646 0l5.385-5.416a.446.446 0 0 0 0-.646l-5.385-5.385a.446.446 0 0 0-.646 0l-.646.647a.446.446 0 0 0 0 .646l2.953 2.954c.185.215.062.553-.215.553H5.708c-.246 0-.462.185-.462.431v.923c0 .246.185.493.43.493z"/></symbol><symbol viewBox="0 0 24 24" id="Arrow_Up" xmlns="http://www.w3.org/2000/svg"><path d="M17.277 10.538a.56.56 0 0 0 0-.83l-4.615-4.523a.595.595 0 0 0-.862 0L7.185 9.708a.56.56 0 0 0 0 .83l.861.831a.595.595 0 0 0 .862 0l1.446-1.415c.246-.246.677-.062.677.277v8.307c0 .308.277.616.615.616h1.23c.34 0 .616-.339.616-.616v-8.307c0-.37.431-.523.677-.277l1.446 1.415a.595.595 0 0 0 .862 0l.8-.83z"/></symbol><symbol viewBox="0 0 24 24" id="Assigned" xmlns="http://www.w3.org/2000/svg"><path d="M12 24c6.627 0 12-5.373 12-12S18.627 0 12 0 0 5.373 0 12s5.373 12 12 12zm4.847-10.17c1.594.651 3.117 1.413 3.153 2.79 0 .906-.725 1.704-1.631 1.704h-8.337c-.906 0-1.63-.798-1.703-1.74.036-1.378 1.558-2.103 3.153-2.755 1.088-.435 1.269-.834 1.269-1.269 0-.434-.29-.833-.653-1.16-.652-.543-.942-1.413-.942-2.32 0-1.703 1.051-3.08 3.008-3.08 1.958 0 3.009 1.377 3.009 3.08 0 .907-.29 1.777-.943 2.32-.362.327-.652.726-.652 1.16 0 .435.181.834 1.269 1.27zM9.73 8.302c.166.072.275.26.253.44L8.83 12.758c-.08.297-.421.285-.603-.029l-.87-1.506c-1.883 1.087-2.395 3.099-1.308 4.982l-1.884 1.088c-1.63-2.825-.72-6.323 2.105-7.954l-.888-1.538c-.181-.314.01-.634.276-.536l4.074 1.038z"/></symbol><symbol viewBox="0 0 24 24" id="Attachment" xmlns="http://www.w3.org/2000/svg"><path d="M9.214 15.554c.2.2.5.167.7 0l3.337-3.337c.234-.234.634-.267.935 0 .3.267.267.734 0 1l-4.105 4.038c-.9.901-2.402.901-3.303 0l-.033-.033c-.901-.9-.901-2.402 0-3.303l7.24-7.241c.901-.901 2.403-.901 3.304 0l.033.033c.901.901.901 2.403 0 3.304l-.033.033a.46.46 0 0 0-.067.6c.2.368.367.768.467 1.168.067.267.367.334.568.167.266-.267.5-.534.5-.534a4.37 4.37 0 0 0 0-6.173h-.067a4.37 4.37 0 0 0-6.173 0l-7.24 7.208a4.37 4.37 0 0 0 0 6.173l.066.067a4.33 4.33 0 0 0 6.14 0l4.137-4.105c1.068-1.067 1.035-2.803-.066-3.87-1.068-1.035-2.803-.968-3.838.1l-3.27 3.27c-.2.2-.2.534 0 .734l.768.7z"/></symbol><symbol viewBox="0 0 24 24" id="Auto-Approve" xmlns="http://www.w3.org/2000/svg"><path d="M22.4 15.213l-1.827-1.556a9.967 9.967 0 0 0 0-3.414L22.4 8.686c.592-.502.79-1.406.395-2.109l-.79-1.405a1.65 1.65 0 0 0-1.432-.804c-.198 0-.395.05-.543.1l-2.272.854a8.26 8.26 0 0 0-2.913-1.707l-.395-2.36C14.302.452 13.61 0 12.82 0h-1.58c-.79 0-1.48.452-1.628 1.255l-.395 2.31c-1.087.351-2.074.954-2.963 1.707l-2.271-.854c-.198-.05-.346-.1-.543-.1a1.65 1.65 0 0 0-1.432.803l-.79 1.406c-.395.703-.247 1.607.395 2.109l1.827 1.556a9.967 9.967 0 0 0 0 3.415l-1.827 1.556c-.593.502-.79 1.406-.395 2.109l.79 1.406c.296.502.84.803 1.432.803.197 0 .395-.05.543-.1l2.271-.854a8.26 8.26 0 0 0 2.913 1.707l.395 2.41c.148.804.79 1.356 1.63 1.356h1.58c.79 0 1.48-.603 1.629-1.406l.395-2.41c1.135-.402 2.172-1.004 3.061-1.858l2.123.854c.198.05.395.1.593.1a1.65 1.65 0 0 0 1.432-.803l.74-1.305c.444-.553.247-1.457-.345-1.959zm-10.37 2.97C8.687 18.184 6 15.453 6 12.05c0-3.401 2.686-6.134 6.03-6.134 3.346 0 6.033 2.733 6.033 6.134 0 3.402-2.687 6.134-6.032 6.134zm-2.051-1.96l-2.742-3.216c-.108-.28-.046-.757.548-1.073.143-.198.677-.142 1.097 0l1.097 1.609 4.387-4.825c.385-.562.918-.637 1.097-.536.578.39.661.863.548 1.072l-6.032 6.969z"/></symbol><symbol viewBox="0 0 24 24" id="Bar_Chart_Horiz" xmlns="http://www.w3.org/2000/svg"><path d="M20 19.571V16.43c0-.108-.023-.215-.094-.286-.047-.072-.117-.143-.188-.143H6.282c-.07 0-.141.071-.188.143-.07.071-.094.178-.094.286v3.142c0 .108.023.215.094.286a.443.443 0 0 0 .188.143h13.436c.07-.036.141-.071.188-.143.07-.071.094-.178.094-.286zM17.993 7.568V4.432a.504.504 0 0 0-.079-.288c-.052-.108-.131-.144-.21-.144H6.316c-.08 0-.158.036-.21.144-.08.072-.106.18-.106.288v3.136c0 .108.026.216.105.324a.26.26 0 0 0 .21.108h11.389a.26.26 0 0 0 .21-.108c.053-.108.105-.216.079-.324zm-3.993 6c0 .108-.031.216-.125.288a.273.273 0 0 1-.25.144h-7.25a.273.273 0 0 1-.25-.144c-.094-.072-.125-.18-.125-.288v-3.136c0-.108.031-.216.125-.288.062-.072.156-.144.25-.144h7.25c.219 0 .375.18.375.432v3.136zM5 4v16H4V4h1z"/></symbol><symbol viewBox="0 0 24 24" id="Bar_Chart_Vert" xmlns="http://www.w3.org/2000/svg"><path d="M19.571 4H16.43c-.108 0-.215.023-.286.094-.072.047-.143.117-.143.188v13.436c0 .07.071.141.143.188.071.07.178.094.286.094h3.142c.108 0 .215-.023.286-.094a.443.443 0 0 0 .143-.188V4.282c-.036-.07-.071-.141-.143-.188-.071-.07-.178-.094-.286-.094zM7.568 6.007H4.432a.504.504 0 0 0-.288.079c-.108.052-.144.131-.144.21v11.388c0 .08.036.158.144.21.072.08.18.106.288.106h3.136a.529.529 0 0 0 .324-.105.26.26 0 0 0 .108-.21V6.295a.26.26 0 0 0-.108-.21c-.108-.053-.216-.105-.324-.079zm6 3.993c.108 0 .216.031.288.125a.273.273 0 0 1 .144.25v7.25a.273.273 0 0 1-.144.25c-.072.094-.18.125-.288.125h-3.136c-.108 0-.216-.031-.288-.125-.072-.063-.144-.156-.144-.25v-7.25c0-.219.18-.375.432-.375h3.136zM4 19h16v1H4v-1z"/></symbol><symbol viewBox="0 0 24 24" id="Calender" xmlns="http://www.w3.org/2000/svg"><path d="M19.167 10c.266 0 .5.233.5.5v8.167c0 .733-.6 1.333-1.334 1.333h-12C5.6 20 5 19.4 5 18.667V10.5c0-.267.233-.5.5-.5h13.667zM10 17.333V16c0-.2-.133-.333-.333-.333H8.333c-.2 0-.333.133-.333.333v1.333c0 .2.133.334.333.334h1.334c.2 0 .333-.134.333-.334zM10 14v-1.333c0-.2-.133-.334-.333-.334H8.333c-.2 0-.333.134-.333.334V14c0 .2.133.333.333.333h1.334c.2 0 .333-.133.333-.333zm3.333 3.333V16c0-.2-.133-.333-.333-.333h-1.333c-.2 0-.334.133-.334.333v1.333c0 .2.134.334.334.334H13c.2 0 .333-.134.333-.334zm0-3.333v-1.333c0-.2-.133-.334-.333-.334h-1.333c-.2 0-.334.134-.334.334V14c0 .2.134.333.334.333H13c.2 0 .333-.133.333-.333zm3.334 3.333V16c0-.2-.134-.333-.334-.333H15c-.2 0-.333.133-.333.333v1.333c0 .2.133.334.333.334h1.333c.2 0 .334-.134.334-.334zm0-3.333v-1.333c0-.2-.134-.334-.334-.334H15c-.2 0-.333.134-.333.334V14c0 .2.133.333.333.333h1.333c.2 0 .334-.133.334-.333zm1.666-8.333h-1.666V5c0-.533-.434-1-1-1-.534 0-1 .433-1 1v.667H10V5c0-.533-.433-1-1-1-.533 0-1 .433-1 1v.667H6.333C5.6 5.667 5 6.267 5 7v.833c0 .267.233.5.5.5h13.667c.266 0 .5-.233.5-.5V7c0-.733-.6-1.333-1.334-1.333z"/></symbol><symbol viewBox="0 0 24 24" id="Card_View" xmlns="http://www.w3.org/2000/svg"><path d="M7.818 4H4.545A.56.56 0 0 0 4 4.545v6.182c0 .291.255.546.545.546h3.273a.56.56 0 0 0 .546-.546V4.545A.56.56 0 0 0 7.818 4zm5.818 0h-3.272a.56.56 0 0 0-.546.545v6.182c0 .291.255.546.546.546h3.272a.56.56 0 0 0 .546-.546V4.545A.56.56 0 0 0 13.636 4zm5.819 0h-3.273a.56.56 0 0 0-.546.545v6.182c0 .291.255.546.546.546h3.273a.56.56 0 0 0 .545-.546V4.545A.56.56 0 0 0 19.455 4zM7.818 12.727H4.545a.56.56 0 0 0-.545.546v6.182c0 .29.255.545.545.545h3.273a.56.56 0 0 0 .546-.545v-6.182a.56.56 0 0 0-.546-.546zm5.818 0h-3.272a.56.56 0 0 0-.546.546v6.182c0 .29.255.545.546.545h3.272a.56.56 0 0 0 .546-.545v-6.182a.56.56 0 0 0-.546-.546zm5.819 0h-3.273a.56.56 0 0 0-.546.546v6.182c0 .29.255.545.546.545h3.273a.56.56 0 0 0 .545-.545v-6.182a.56.56 0 0 0-.545-.546z"/></symbol><symbol viewBox="0 0 24 24" id="Cart" xmlns="http://www.w3.org/2000/svg"><path d="M8.8 16.8c-.88 0-1.592.72-1.592 1.6 0 .88.712 1.6 1.592 1.6.88 0 1.6-.72 1.6-1.6 0-.88-.72-1.6-1.6-1.6zM4 4v1.6h1.6l2.88 6.072-1.08 1.96c-.128.224-.2.488-.2.768 0 .88.72 1.6 1.6 1.6h9.6v-1.6H9.136a.198.198 0 0 1-.2-.2l.024-.096.72-1.304h5.96c.6 0 1.128-.328 1.4-.824l2.864-5.192A.802.802 0 0 0 19.2 5.6H7.368L6.616 4H4zm12.8 12.8c-.88 0-1.592.72-1.592 1.6 0 .88.712 1.6 1.592 1.6.88 0 1.6-.72 1.6-1.6 0-.88-.72-1.6-1.6-1.6z"/></symbol><symbol viewBox="0 0 24 24" id="Cart_Add" xmlns="http://www.w3.org/2000/svg"><path d="M10.537 7.886a4.735 4.735 0 0 0 6.202 4.25l-.966 1.75a1.499 1.499 0 0 1-1.318.776h-5.61l-.677 1.228-.022.09c0 .105.082.188.188.188h8.719v1.506H8.018a1.51 1.51 0 0 1-1.506-1.506c0-.263.068-.512.188-.723l1.016-1.844-2.71-5.715H3.5V6.38h2.462l.708 1.506h3.867zM15.547 18a1.51 1.51 0 0 1 1.506 1.506 1.51 1.51 0 0 1-1.506 1.506 1.504 1.504 0 0 1-1.498-1.506c0-.828.67-1.506 1.498-1.506zm-7.53 0a1.51 1.51 0 0 1 1.507 1.506 1.51 1.51 0 0 1-1.506 1.506 1.504 1.504 0 0 1-1.499-1.506c0-.828.67-1.506 1.499-1.506zm7.218-5.53a4.735 4.735 0 1 1 0-9.47 4.735 4.735 0 0 1 0 9.47zm.015-1.12a3.6 3.6 0 1 0 0-7.2 3.6 3.6 0 0 0 0 7.2zm.799-5.968V6.88h1.569v1.498h-1.569v1.71H14.48v-1.71h-1.568V6.88h1.568V5.382h1.569z"/></symbol><symbol viewBox="0 0 24 24" id="Cart_Success" xmlns="http://www.w3.org/2000/svg"><path d="M10.537 7.886a4.735 4.735 0 0 0 6.202 4.25l-.966 1.75a1.499 1.499 0 0 1-1.318.776h-5.61l-.677 1.228-.022.09c0 .105.082.188.188.188h8.719v1.506H8.018a1.51 1.51 0 0 1-1.506-1.506c0-.263.068-.512.188-.723l1.016-1.844-2.71-5.715H3.5V6.38h2.462l.708 1.506h3.867zM15.547 18a1.51 1.51 0 0 1 1.506 1.506 1.51 1.51 0 0 1-1.506 1.506 1.504 1.504 0 0 1-1.498-1.506c0-.828.67-1.506 1.498-1.506zm-7.53 0a1.51 1.51 0 0 1 1.507 1.506 1.51 1.51 0 0 1-1.506 1.506 1.504 1.504 0 0 1-1.499-1.506c0-.828.67-1.506 1.499-1.506zm7.218-5.53a4.735 4.735 0 1 1 0-9.47 4.735 4.735 0 0 1 0 9.47zm.015-1.12a3.6 3.6 0 1 0 0-7.2 3.6 3.6 0 0 0 0 7.2zm-1.088-1.15l-1.562-2c-.061-.174-.026-.47.313-.667.08-.123.385-.088.624 0l.625 1 2.5-3c.22-.349.523-.396.626-.333.33.242.376.537.312.667L14.162 10.2z"/></symbol><symbol viewBox="0 0 24 24" id="Checkbox_Off" xmlns="http://www.w3.org/2000/svg"><path d="M4 4v16h16V4H4zm0-1h16a1 1 0 0 1 1 1v16a1 1 0 0 1-1 1H4a1 1 0 0 1-1-1V4a1 1 0 0 1 1-1z"/><path fill="#FFF" d="M4 4h16v16H4z"/></symbol><symbol viewBox="0 0 24 24" id="Checkbox_On" xmlns="http://www.w3.org/2000/svg"><path fill="#FFF" d="M4 4h16v16H4z"/><path d="M19 3H5a2 2 0 0 0-2 2v14a2 2 0 0 0 2 2h14a2 2 0 0 0 2-2V5a2 2 0 0 0-2-2zm-9 14l-5-5 1.41-1.41L10 14.17l7.59-7.59L19 8l-9 9z"/></symbol><symbol viewBox="0 0 24 24" id="Checkmark" xmlns="http://www.w3.org/2000/svg"><path d="M9.403 16.045l-4.031-4.353L4 13.164 9.403 19 21 6.472 19.637 5z"/></symbol><symbol viewBox="0 0 24 24" id="Checkmark_Circle" xmlns="http://www.w3.org/2000/svg"><path d="M12 24C5.373 24 0 18.627 0 12S5.373 0 12 0s12 5.373 12 12-5.373 12-12 12zm-2.19-6.697l8.25-9.75c.154-.292.04-.954-.75-1.5-.246-.141-.974-.036-1.5.75l-6 6.75-1.5-2.25c-.576-.2-1.306-.278-1.5 0-.813.442-.898 1.108-.75 1.5l3.75 4.5z"/></symbol><symbol viewBox="0 0 24 24" id="Chevron_Down" xmlns="http://www.w3.org/2000/svg"><path d="M5.88 8L12 13.538 18.12 8 20 9.705l-8 7.255-8-7.255z"/></symbol><symbol viewBox="0 0 24 24" id="Chevron_Left" xmlns="http://www.w3.org/2000/svg"><path d="M16.688 18.12L11.318 12l5.37-6.12L15.034 4 8 12l7.034 8z"/></symbol><symbol viewBox="0 0 24 24" id="Chevron_Right" xmlns="http://www.w3.org/2000/svg"><path d="M8 18.12L13.538 12 8 5.88 9.705 4l7.255 8-7.255 8z"/></symbol><symbol viewBox="0 0 24 24" id="Chevron_Up" xmlns="http://www.w3.org/2000/svg"><path d="M18.12 16L12 10.462 5.88 16 4 14.295l8-7.255 8 7.255z"/></symbol><symbol viewBox="0 0 24 24" id="Clone" xmlns="http://www.w3.org/2000/svg"><path fill="#FFF" d="M5 10h9v8H5zM8 5h10v4H8z"/><path fill="#FFF" d="M14 5h4v11h-4z"/><path d="M15.333 10c0-.733-.6-1.333-1.333-1.333H5.333C4.6 8.667 4 9.267 4 10v8.667C4 19.4 4.6 20 5.333 20H14c.733 0 1.333-.6 1.333-1.333V10zm-2.666 4.667a.358.358 0 0 1-.334.333h-2v2a.358.358 0 0 1-.333.333h-.667A.358.358 0 0 1 9 17v-2H7a.358.358 0 0 1-.333-.333V14c0-.167.166-.333.333-.333h2v-2c0-.167.167-.334.333-.334H10c.167 0 .333.167.333.334v2h2c.167 0 .334.166.334.333v.667zm5 2.666h-1v-2h1c.2 0 .333-.133.333-.333V6.333c0-.2-.133-.333-.333-.333H9c-.2 0-.333.133-.333.333v1h-2v-1C6.667 5.033 7.7 4 9 4h8.667C18.967 4 20 5.033 20 6.333V15c0 1.3-1.033 2.333-2.333 2.333z"/></symbol><symbol viewBox="0 0 24 24" id="Collaspe_All" xmlns="http://www.w3.org/2000/svg"><path d="M7.125 10.714l4.498-4.564c.2-.2.533-.2.732 0l4.498 4.564c.2.2.2.533 0 .733l-.733.733c-.2.2-.533.2-.733 0l-3.032-3.132c-.2-.2-.533-.2-.732 0L8.59 12.147c-.2.2-.533.2-.733 0l-.733-.733a.552.552 0 0 1 0-.7zm0 6.03l4.498-4.564c.2-.2.533-.2.732 0l4.498 4.564c.2.2.2.533 0 .733l-.733.733c-.2.2-.533.2-.733 0l-3.032-3.132c-.2-.2-.533-.2-.732 0L8.59 18.177c-.2.2-.533.2-.733 0l-.733-.733c-.167-.2-.167-.533 0-.7z"/></symbol><symbol viewBox="0 0 24 24" id="Company" xmlns="http://www.w3.org/2000/svg"><path d="M10.182 4c.618 0 1.09.473 1.09 1.09v14.183a.73.73 0 0 1-.727.727h-1.09c-.219 0-.364-.145-.364-.364v-2.181c0-.219-.146-.364-.364-.364H6.545c-.218 0-.363.145-.363.364v2.181c0 .219-.146.364-.364.364H4.364A.391.391 0 0 1 4 19.636V5.091C4 4.473 4.473 4 5.09 4h5.092zM6.909 15.455v-1.819c0-.109-.073-.181-.182-.181h-1.09c-.11 0-.182.072-.182.181v1.819c0 .109.072.181.181.181h1.091c.11 0 .182-.072.182-.181zm0-3.637V10c0-.11-.073-.182-.182-.182h-1.09c-.11 0-.182.073-.182.182v1.818c0 .11.072.182.181.182h1.091c.11 0 .182-.073.182-.182zm0-3.636V6.364c0-.11-.073-.182-.182-.182h-1.09c-.11 0-.182.073-.182.182v1.818c0 .109.072.182.181.182h1.091c.11 0 .182-.073.182-.182zm2.91 7.273v-1.819c0-.109-.074-.181-.183-.181h-1.09c-.11 0-.182.072-.182.181v1.819c0 .109.072.181.181.181h1.091c.11 0 .182-.072.182-.181zm0-3.637V10c0-.11-.074-.182-.183-.182h-1.09c-.11 0-.182.073-.182.182v1.818c0 .11.072.182.181.182h1.091c.11 0 .182-.073.182-.182zm0-3.636V6.364c0-.11-.074-.182-.183-.182h-1.09c-.11 0-.182.073-.182.182v1.818c0 .109.072.182.181.182h1.091c.11 0 .182-.073.182-.182zm9.09-.546c.618 0 1.091.473 1.091 1.091v10.546a.73.73 0 0 1-.727.727h-1.091c-.218 0-.364-.145-.364-.364v-2.181c0-.219-.145-.364-.363-.364h-2.182c-.218 0-.364.145-.364.364v2.181c0 .219-.145.364-.364.364h-1.454a.391.391 0 0 1-.364-.364V8.727c0-.618.473-1.09 1.091-1.09h5.091zm-3.273 7.819v-1.819c0-.109-.072-.181-.181-.181h-1.091c-.11 0-.182.072-.182.181v1.819c0 .109.073.181.182.181h1.09c.11 0 .182-.072.182-.181zm0-3.637V10c0-.11-.072-.182-.181-.182h-1.091c-.11 0-.182.073-.182.182v1.818c0 .11.073.182.182.182h1.09c.11 0 .182-.073.182-.182zm2.91 3.637v-1.819c0-.109-.073-.181-.182-.181h-1.091c-.11 0-.182.072-.182.181v1.819c0 .109.073.181.182.181h1.09c.11 0 .182-.072.182-.181zm0-3.637V10c0-.11-.073-.182-.182-.182h-1.091c-.11 0-.182.073-.182.182v1.818c0 .11.073.182.182.182h1.09c.11 0 .182-.073.182-.182z"/></symbol><symbol viewBox="0 0 24 24" id="Configuration" xmlns="http://www.w3.org/2000/svg"><path d="M18.025 11.51l-.002.002c0-.325-.552-.6-1.06-.774l-.193-1.172c-.072-.399-.825-.598-1.211-.598h-.773c-.386 0-.725.224-.797.623l-.193 1.147c-.532.175-1.015.474-1.45.848l-1.11-.424c-.097-.025-.17-.05-.266-.05-.29 0-.556.15-.701.4l-.386.698c-.194.35-.194 1.104.12 1.354l.894.773c-.048.274 0 .547 0 .822 0 .299.024.293.073.568l-.894.773a.86.86 0 0 0-.193 1.047l.264.479h-4.24C4.87 18.026 4 17.193 4 16.2V5.825C4 4.833 4.87 4 5.941 4h10.176c1.071 0 1.941.833 1.908 1.825v5.686zM6 6.109v.609c0 .32.301.608.636.608h6.397c.335 0 .637-.288.637-.608v-.609c0-.32-.302-.608-.637-.608H6.636c-.335 0-.636.288-.636.608zm5.233 3.609h.023v-.609c0-.32-.207-.608-.436-.608H6.436c-.23 0-.436.288-.436.608v.609c0 .32.207.608.436.608h4.36c.23 0 .437-.288.437-.608zm8.1 6.699c.23.204.308.573.135.798l-.289.533a.637.637 0 0 1-.557.328c-.077 0-.154-.02-.231-.041l-.827-.349a3.25 3.25 0 0 1-1.192.758l-.154.983c-.057.328-.327.574-.634.574h-.615c-.327 0-.577-.225-.635-.553l-.154-.983a3.186 3.186 0 0 1-1.134-.697l-.884.349a.654.654 0 0 1-.212.04.637.637 0 0 1-.558-.327l-.307-.574a.721.721 0 0 1 .154-.86l.711-.635a4.255 4.255 0 0 1 0-1.393l-.711-.635a.695.695 0 0 1-.154-.86l.307-.573a.637.637 0 0 1 .558-.328c.077 0 .135.02.212.04l.884.349c.346-.307.73-.553 1.154-.696l.153-.943c.058-.327.327-.512.635-.512h.615c.308 0 .577.185.635.512l.153.963c.404.143.789.369 1.135.697l.884-.349a.654.654 0 0 1 .212-.04c.23 0 .442.122.557.327l.308.574a.721.721 0 0 1-.154.86l-.711.635a4.255 4.255 0 0 1 0 1.393l.711.635zm-3.997.41a1.83 1.83 0 0 0 1.835-1.837 1.83 1.83 0 0 0-1.835-1.835 1.83 1.83 0 0 0-1.836 1.835 1.83 1.83 0 0 0 1.836 1.836z"/></symbol><symbol viewBox="0 0 24 24" id="Cross" xmlns="http://www.w3.org/2000/svg"><path d="M19 6.41L17.59 5 12 10.59 6.41 5 5 6.41 10.59 12 5 17.59 6.41 19 12 13.41 17.59 19 19 17.59 13.41 12z"/></symbol><symbol viewBox="0 0 24 24" id="Cross_Mini" xmlns="http://www.w3.org/2000/svg"><circle data-hover-behavior="color" cx="12" cy="12" r="8" fill="#FFF"/><path data-hover-behavior="white" d="M15.692 14.174l-2.228-2.228 2.228-2.228L14.274 8.3l-2.228 2.228L9.818 8.3 8.4 9.718l2.228 2.228L8.4 14.174l1.418 1.418 2.228-2.228 2.228 2.228z"/><path data-hover-behavior="color" d="M12 20.5a8.5 8.5 0 1 1 0-17 8.5 8.5 0 0 1 0 17zm0-1a7.5 7.5 0 1 0 0-15 7.5 7.5 0 0 0 0 15z"/></symbol><symbol viewBox="0 0 24 24" id="Curved_Arrow_Left" xmlns="http://www.w3.org/2000/svg"><path d="M13.05 7.594a6.198 6.198 0 0 1 6.203 6.203A6.198 6.198 0 0 1 13.05 20H10.36c-.263 0-.427-.197-.427-.46v-1.05c0-.262.197-.492.46-.492h2.658c2.33 0 4.201-1.87 4.201-4.201 0-2.33-1.87-4.201-4.2-4.201H8.487s-.262 0-.36.033c-.263.131-.198.328.032.558l1.608 1.608c.197.197.164.492-.033.69l-.722.721c-.197.197-.426.197-.623.033L4.123 8.972a.416.416 0 0 1 0-.59l4.234-4.234c.197-.197.525-.197.69 0l.688.689c.197.197.197.525 0 .69L8.127 7.133c-.197.197-.197.427.131.427h.23l4.562.033z"/></symbol><symbol viewBox="0 0 24 24" id="Customers_Group" xmlns="http://www.w3.org/2000/svg"><path d="M8.902 12.935c-.432-.647-.648-1.387-.648-2.22 0-1.417.586-2.589 1.51-3.298-.308-.555-.924-.955-1.726-.955-1.356 0-2.127 1.11-2.127 2.373 0 .678.216 1.264.678 1.665.247.247.463.555.463.863 0 .308-.123.617-.894.956-1.11.493-2.127 1.171-2.158 2.188.03.679.462 1.203 1.11 1.203h1.017a.481.481 0 0 0 .4-.247c.494-.894 1.419-1.449 2.19-1.85a.456.456 0 0 0 .185-.678zm9.001-.616c-.77-.34-.894-.617-.894-.956 0-.339.216-.647.462-.863.463-.432.679-.987.679-1.665 0-1.264-.74-2.373-2.127-2.373-.802 0-1.418.4-1.758.955.925.71 1.511 1.88 1.511 3.299 0 .832-.216 1.572-.647 2.22a.472.472 0 0 0 .185.677c.77.37 1.695.956 2.188 1.85a.481.481 0 0 0 .401.247h1.017c.648 0 1.08-.524 1.08-1.203.03-1.017-.987-1.695-2.097-2.188zm-3.823 2.25c-.832-.37-.986-.709-.986-1.048 0-.37.247-.71.524-.956.493-.462.77-1.11.77-1.85 0-1.387-.832-2.589-2.342-2.589-1.51 0-2.343 1.202-2.343 2.59 0 .74.277 1.387.77 1.85.278.277.525.616.525.955 0 .37-.124.678-.987 1.048-1.233.524-2.404 1.11-2.435 2.22 0 .74.555 1.356 1.264 1.356h6.412c.709 0 1.264-.616 1.264-1.356-.031-1.08-1.202-1.665-2.436-2.22z"/></symbol><symbol viewBox="0 0 24 24" id="Doc_Details" xmlns="http://www.w3.org/2000/svg"><path d="M18.545 4c.8 0 1.455.655 1.455 1.455v13.09c0 .8-.655 1.455-1.455 1.455H5.455C4.655 20 4 19.345 4 18.545V5.455C4 4.655 4.655 4 5.455 4h13.09zM6.91 7.636v3.637c0 .218.146.363.364.363h3.636c.218 0 .364-.145.364-.363V7.636c0-.218-.146-.363-.364-.363H7.273c-.218 0-.364.145-.364.363zm8.727 9.455v-.727c0-.219-.145-.364-.363-.364h-8c-.218 0-.364.145-.364.364v.727c0 .218.146.364.364.364h8c.218 0 .363-.146.363-.364zm1.455-2.91v-.726c0-.219-.146-.364-.364-.364H7.273c-.218 0-.364.145-.364.364v.727c0 .218.146.363.364.363h9.454c.218 0 .364-.145.364-.363zm0-2.908v-.728c0-.218-.146-.363-.364-.363h-3.636c-.218 0-.364.145-.364.363v.728c0 .218.146.363.364.363h3.636c.218 0 .364-.145.364-.363zm0-2.91v-.727c0-.218-.146-.363-.364-.363h-3.636c-.218 0-.364.145-.364.363v.728c0 .218.146.363.364.363h3.636c.218 0 .364-.145.364-.363z"/></symbol><symbol viewBox="0 0 24 24" id="Documents" xmlns="http://www.w3.org/2000/svg"><path d="M18.333 4H9.667c-.734 0-1.334.6-1.334 1.333V6h8c.734 0 1.334.6 1.334 1.333v9.334h.666c.734 0 1.334-.6 1.334-1.334v-10c0-.733-.6-1.333-1.334-1.333zm-2 4.667v10c0 .733-.6 1.333-1.333 1.333H6.333C5.6 20 5 19.4 5 18.667v-10c0-.734.6-1.334 1.333-1.334H15c.733 0 1.333.6 1.333 1.334zm-6 2.333v-.667c0-.2-.133-.333-.333-.333H7.333c-.2 0-.333.133-.333.333V11c0 .2.133.333.333.333H10c.2 0 .333-.133.333-.333zM13 16.333v-.666c0-.2-.133-.334-.333-.334H7.333c-.2 0-.333.134-.333.334v.666c0 .2.133.334.333.334h5.334c.2 0 .333-.134.333-.334zm1.333-2.666V13c0-.2-.133-.333-.333-.333H7.333c-.2 0-.333.133-.333.333v.667c0 .2.133.333.333.333H14c.2 0 .333-.133.333-.333z"/></symbol><symbol viewBox="0 0 24 24" id="Edit" xmlns="http://www.w3.org/2000/svg"><path d="M19.725 7.804c.367-.367.367-.979 0-1.327l-2.202-2.202c-.348-.367-.96-.367-1.327 0L14.35 6.12l3.53 3.529 1.844-1.845zm-2.786 2.786L13.41 7.06 4 16.472V20h3.529l9.41-9.41z"/></symbol><symbol viewBox="0 0 24 24" id="Edit_Doc" xmlns="http://www.w3.org/2000/svg"><path d="M14.046 8.785h2.523a.341.341 0 0 0 .339-.339c0-.092-.031-.154-.093-.246l-3.138-3.108C13.585 5.031 13.523 5 13.43 5a.341.341 0 0 0-.339.338v2.493c0 .523.431.954.954.954zm5.57 3.2l-.278-.277c-.184-.185-.461-.185-.676 0L15 15.369c-.03.031 0 .062 0 .093v.769c0 .061 0 .123.062.123h.8c.03 0 .061-.03.092-.03l3.661-3.632c.216-.246.216-.523 0-.707zm-2.954 5.753c.123 0 .246.154.215.277-.123.647-.739 1.139-1.415 1.139H6.415c-.769 0-1.415-.646-1.415-1.416V6.415C5 5.646 5.646 5 6.415 5h4.77c.277 0 .492.215.492.462v3.323c0 .769.615 1.415 1.415 1.415h3.385c.246 0 .461.215.461.462v.615a.494.494 0 0 1-.153.338l-2.923 2.923c-.216.154-.277.4-.277.647v1.661c0 .492.4.892.892.892h2.185zM6.908 9.246v.462c0 .246.184.461.461.461h1.908a.473.473 0 0 0 .461-.461v-.462a.453.453 0 0 0-.461-.461H7.369a.473.473 0 0 0-.461.461zm4.769 6.123h-.03v-.461a.453.453 0 0 0-.462-.462H7.369a.473.473 0 0 0-.461.462v.461c0 .246.184.462.461.462h3.846a.473.473 0 0 0 .462-.462zm.954-2.83H12.6v-.462a.453.453 0 0 0-.462-.462H7.37a.473.473 0 0 0-.461.462v.461c0 .247.184.462.461.462h4.8a.473.473 0 0 0 .462-.462z"/></symbol><symbol viewBox="0 0 24 24" id="Edit_Price" xmlns="http://www.w3.org/2000/svg"><path d="M13.795 8.098h2.732a.37.37 0 0 0 .366-.367c0-.1-.033-.166-.1-.266L13.395 4.1c-.1-.067-.166-.1-.266-.1a.37.37 0 0 0-.367.366v2.7c0 .565.467 1.032 1.033 1.032zm6.03 3.465l-.3-.3c-.2-.2-.5-.2-.733 0l-3.964 3.964c-.034.034 0 .067 0 .1v.833c0 .067 0 .134.066.134h.867c.033 0 .066-.034.1-.034l3.964-3.931c.233-.267.233-.566 0-.766zm-3.198 6.23c.133 0 .266.166.233.3-.133.7-.8 1.232-1.533 1.232H5.533A1.55 1.55 0 0 1 4 17.793V5.533C4 4.7 4.7 4 5.533 4h5.164c.3 0 .533.233.533.5v3.598c0 .833.666 1.532 1.532 1.532h3.665c.266 0 .5.234.5.5v.666a.535.535 0 0 1-.167.367l-3.165 3.165c-.233.167-.3.433-.3.7v1.799c0 .533.433.966.966.966h2.366zm-7.414-2.616c.891-.23 1.495-.891 1.466-1.639 0-1.092-1.063-1.61-2.012-1.926-.776-.287-.862-.46-.862-.632 0-.115.172-.288.546-.288.259 0 .632.144 1.092.403a.533.533 0 0 0 .202.057.543.543 0 0 0 .373-.2l.403-.403a.32.32 0 0 0 .086-.288c-.029-.115-.086-.23-.173-.287-.172-.115-.66-.345-1.12-.46v-.661c0-.144-.144-.23-.288-.23h-.92c-.115 0-.173.086-.173.23v.69c-1.15.23-1.552.948-1.552 1.58 0 1.064.949 1.524 1.725 1.812.862.287.949.517.949.66 0 .173-.26.346-.575.346-.288 0-.69-.115-1.15-.403H7.2a.542.542 0 0 0-.23-.057c-.144 0-.287.057-.345.172l-.287.46c-.144.201-.087.345.086.518.144.143.719.43 1.408.575v.747c0 .144.03.23.173.23h.92c.144 0 .287-.086.287-.23v-.776z"/></symbol><symbol viewBox="0 0 24 24" id="Emoticons" xmlns="http://www.w3.org/2000/svg"><path d="M11.992 4C7.576 4 4 7.584 4 12s3.576 8 7.992 8C16.416 20 20 16.416 20 12s-3.584-8-8.008-8zM12 18.4A6.398 6.398 0 0 1 5.6 12c0-3.536 2.864-6.4 6.4-6.4 3.536 0 6.4 2.864 6.4 6.4 0 3.536-2.864 6.4-6.4 6.4zm2.8-7.2c.664 0 1.2-.536 1.2-1.2 0-.664-.536-1.2-1.2-1.2-.664 0-1.2.536-1.2 1.2 0 .664.536 1.2 1.2 1.2zm-5.6 0c.664 0 1.2-.536 1.2-1.2 0-.664-.536-1.2-1.2-1.2-.664 0-1.2.536-1.2 1.2 0 .664.536 1.2 1.2 1.2zm2.8 5.2a4.397 4.397 0 0 0 4.088-2.8H7.912A4.397 4.397 0 0 0 12 16.4z"/></symbol><symbol viewBox="0 0 24 24" id="Expand_All" xmlns="http://www.w3.org/2000/svg"><path d="M16.905 13.667l-4.51 4.543c-.2.2-.535.2-.735 0l-4.51-4.543c-.2-.2-.2-.535 0-.735l.735-.735c.2-.2.535-.2.735 0l3.04 3.14c.2.2.535.2.735 0l3.04-3.107c.2-.2.534-.2.735 0l.735.735c.167.2.167.501 0 .702zm0-6.047l-4.51 4.61c-.2.2-.535.2-.735 0L7.15 7.62c-.2-.2-.2-.534 0-.735l.735-.735c.2-.2.535-.2.735 0l3.04 3.14c.2.2.535.2.735 0l3.04-3.106c.2-.2.534-.2.735 0l.735.735c.167.2.167.534 0 .701z"/></symbol><symbol viewBox="0 0 24 24" id="Favorite" xmlns="http://www.w3.org/2000/svg"><path d="M12 19.68l-1.16-1.056C6.72 14.888 4 12.424 4 9.4 4 6.936 5.936 5 8.4 5A4.79 4.79 0 0 1 12 6.672 4.79 4.79 0 0 1 15.6 5C18.064 5 20 6.936 20 9.4c0 3.024-2.72 5.488-6.84 9.232L12 19.68z"/></symbol><symbol viewBox="0 0 24 24" id="Filter" xmlns="http://www.w3.org/2000/svg"><path d="M14.4 12.17L20 4H4l5.6 8.17V20l4.8-2.043z"/></symbol><symbol viewBox="0 0 24 24" id="Full_Screen" xmlns="http://www.w3.org/2000/svg"><path d="M7 14H5v5h5v-2H7v-3zm-2-4h2V7h3V5H5v5zm12 7h-3v2h5v-5h-2v3zM14 5v2h3v3h2V5h-5z"/></symbol><symbol viewBox="0 0 24 24" id="Full_Screen_Animated" xmlns="http://www.w3.org/2000/svg"><path data-location="TL" d="M7 10V7h3V5H5v5z"/><path data-location="TR" d="M14 5h5v5h-2V7h-3z"/><path data-location="BL" d="M5 14v5h5v-2H7v-3z"/><path data-location="BR" d="M17 14h2v5h-5v-2h3z"/></symbol><symbol viewBox="0 0 24 24" id="Full_Screen_Exit" xmlns="http://www.w3.org/2000/svg"><path d="M4 16.571h3.429V20h2.285v-5.714H4v2.285zM7.429 7.43H4v2.285h5.714V4H7.43v3.429zM14.286 20h2.285v-3.429H20v-2.285h-5.714V20zM16.57 7.429V4h-2.285v5.714H20V7.43h-3.429z"/></symbol><symbol viewBox="0 0 24 24" id="Full_Screen_Exit_Animated" xmlns="http://www.w3.org/2000/svg"><path data-location="TL" d="M7.429 7.429H4v2.285h5.714V4H7.43v3.429z"/><path data-location="TR" d="M16.571 7.429V4h-2.285v5.714H20V7.43h-3.429z"/><path data-location="BL" d="M4 16.571h3.429V20h2.285v-5.714H4v2.285z"/><path data-location="BR" d="M14.286 20h2.285v-3.429H20v-2.285h-5.714V20z"/></symbol><symbol viewBox="0 0 24 24" id="Indication_Movable" xmlns="http://www.w3.org/2000/svg"><path d="M9 15v-2h2v2H9zm4 0v-2h2v2h-2zm-4 4v-2h2v2H9zm4 0v-2h2v2h-2zm-4-8V9h2v2H9zm4 0V9h2v2h-2zM9 7V5h2v2H9zm4 0V5h2v2h-2z"/></symbol><symbol viewBox="0 0 24 24" id="Info" xmlns="http://www.w3.org/2000/svg"><path d="M14.334 16.65c0 .323-.16.48-.48.48H9.903c-.323 0-.48-.157-.48-.48v-1.008c0-.321.157-.477.48-.477h.73v-4.253h-.746c-.32 0-.477-.154-.477-.478V9.427c0-.323.157-.479.477-.479h2.76c.322 0 .479.156.479.48v5.737h.73c.32 0 .479.156.479.477v1.008h-.001zM11.87 5.383a1.54 1.54 0 0 1 0 3.078 1.548 1.548 0 0 1-1.547-1.546c0-.86.678-1.532 1.547-1.532z"/></symbol><symbol viewBox="0 0 24 24" id="Info_Circle" xmlns="http://www.w3.org/2000/svg"><circle cx="12" cy="12" r="7" fill="#FFF"/><path d="M14.334 16.65c0 .323-.16.48-.48.48H9.903c-.323 0-.48-.157-.48-.48v-1.008c0-.321.157-.477.48-.477h.73v-4.253h-.746c-.32 0-.477-.154-.477-.478V9.427c0-.323.157-.479.477-.479h2.76c.322 0 .479.156.479.48v5.737h.73c.32 0 .479.156.479.477v1.008h-.001zM11.87 5.383a1.54 1.54 0 0 1 0 3.078 1.548 1.548 0 0 1-1.547-1.546c0-.86.678-1.532 1.547-1.532zm5.785.959a8.003 8.003 0 0 0-11.313 0 8.003 8.003 0 0 0 0 11.315 7.999 7.999 0 0 0 11.313 0 7.999 7.999 0 0 0 0-11.315z"/></symbol><symbol viewBox="0 0 24 24" id="Line_Chart" xmlns="http://www.w3.org/2000/svg"><path d="M4 17h16v2H4v-2zM15.2 5H20v4.8l-1.832-1.832L13.128 13l-3.2-3.2-4.8 4.8L4 13.472l5.928-5.936 3.2 3.2 3.904-3.904L15.2 5z"/></symbol><symbol viewBox="0 0 24 24" id="Link" xmlns="http://www.w3.org/2000/svg"><path d="M12.372 16.772l-.646-.092s-.43-.093-.646-.185a.404.404 0 0 0-.37.092l-.153.154c-.893.893-2.339.985-3.262.185-1.046-.892-1.077-2.492-.123-3.446L9.51 11.14c.308-.307.677-.492 1.047-.615a2.42 2.42 0 0 1 1.477.092c.276.123.553.277.8.523.123.123.215.246.307.4.123.216.4.246.554.062l.862-.862c.123-.123.123-.307.03-.461-.123-.185-.277-.339-.43-.493a3.437 3.437 0 0 0-.739-.584 3.93 3.93 0 0 0-1.446-.554c-.954-.185-2-.03-2.862.43-.338.185-.676.431-.953.708L5.91 12.034c-1.63 1.63-1.753 4.276-.184 5.938 1.63 1.785 4.4 1.815 6.092.123l.77-.77c.215-.153.06-.522-.216-.553zm5.662-11.046c-1.693-1.57-4.339-1.446-5.939.184l-.708.677c-.215.216-.061.585.216.616.43.03.861.123 1.292.246.123.03.277 0 .37-.092l.153-.154c.892-.893 2.339-.985 3.262-.185 1.046.892 1.077 2.492.123 3.446l-2.339 2.339c-.307.307-.677.492-1.046.615a2.42 2.42 0 0 1-1.477-.092 2.56 2.56 0 0 1-.8-.523 1.975 1.975 0 0 1-.307-.4c-.124-.216-.4-.246-.554-.062l-.862.862c-.123.123-.123.307-.03.461.122.185.276.339.43.493.216.215.492.43.739.584.43.277.923.462 1.415.554.954.185 2 .03 2.862-.43.338-.185.676-.431.953-.708l2.339-2.339c1.723-1.692 1.661-4.461-.092-6.092z"/></symbol><symbol viewBox="0 0 24 24" id="List_View" xmlns="http://www.w3.org/2000/svg"><path d="M6.615 7.576c0 .267-.233.5-.5.5h-1a.513.513 0 0 1-.5-.5v-1c0-.266.234-.5.5-.5h1c.267 0 .5.234.5.5v1zm13.996-1c0-.266-.234-.5-.5-.5H8.448c-.267 0-.5.234-.5.5v1c0 .267.233.5.5.5H20.11c.266 0 .5-.233.5-.5v-1zM6.615 11.243c0-.267-.233-.5-.5-.5h-1c-.266 0-.5.233-.5.5v1c0 .266.234.5.5.5h1c.267 0 .5-.234.5-.5v-1zm13.993 0c0-.267-.26-.5-.558-.5H8.506c-.298 0-.558.233-.558.5v1c0 .266.26.5.558.5H20.05c.298 0 .558-.234.558-.5v-1zM6.615 15.907c0-.266-.233-.5-.5-.5h-1c-.266 0-.5.234-.5.5v1c0 .267.234.5.5.5h1c.267 0 .5-.233.5-.5v-1zm13.996 0c0-.266-.234-.5-.5-.5H8.448c-.267 0-.5.234-.5.5v1c0 .267.233.5.5.5H20.11c.266 0 .5-.233.5-.5v-1z"/></symbol><symbol viewBox="0 0 24 24" id="Matrix" xmlns="http://www.w3.org/2000/svg"><path d="M20 4.5c0-.267-.255-.5-.545-.5H8.182c-.291 0-.546.233-.546.5v1.667c0 .266.255.5.546.5h11.273c.29 0 .545-.234.545-.5V4.5zm-13.818 4c0-.267-.255-.5-.546-.5h-1.09C4.254 8 4 8.233 4 8.5v4.333c0 .267.255.5.545.5h1.091c.291 0 .546-.233.546-.5V8.5zm0 6.667c0-.267-.255-.5-.546-.5h-1.09c-.291 0-.546.233-.546.5V19.5c0 .267.255.5.545.5h1.091c.291 0 .546-.233.546-.5v-4.333zM13.09 8.5c0-.267-.255-.5-.546-.5H8.182c-.291 0-.546.233-.546.5v1c0 .267.255.5.546.5h4.363c.291 0 .546-.233.546-.5v-1zM20 8.5c0-.267-.255-.5-.545-.5H15.09c-.291 0-.546.233-.546.5v1c0 .267.255.5.546.5h4.364c.29 0 .545-.233.545-.5v-1zm-6.91 3.333c0-.266-.254-.5-.545-.5H8.182c-.291 0-.546.234-.546.5v1c0 .267.255.5.546.5h4.363c.291 0 .546-.233.546-.5v-1zm6.91 0c0-.266-.255-.5-.545-.5H15.09c-.291 0-.546.234-.546.5v1c0 .267.255.5.546.5h4.364c.29 0 .545-.233.545-.5v-1zm-6.91 3.334c0-.267-.254-.5-.545-.5H8.182c-.291 0-.546.233-.546.5v1c0 .266.255.5.546.5h4.363c.291 0 .546-.234.546-.5v-1zm6.91 0c0-.267-.255-.5-.545-.5H15.09c-.291 0-.546.233-.546.5v1c0 .266.255.5.546.5h4.364c.29 0 .545-.234.545-.5v-1zM13.09 18.5c0-.267-.254-.5-.545-.5H8.182c-.291 0-.546.233-.546.5v1c0 .267.255.5.546.5h4.363c.291 0 .546-.233.546-.5v-1zm6.91 0c0-.267-.255-.5-.545-.5H15.09c-.291 0-.546.233-.546.5v1c0 .267.255.5.546.5h4.364c.29 0 .545-.233.545-.5v-1z"/></symbol><symbol viewBox="0 0 24 24" id="Mic" xmlns="http://www.w3.org/2000/svg"><path d="M17.167 9.333c-.467 0-.834.334-.834.8v1.334c0 2.333-1.966 4.266-4.366 4.266-2.4 0-4.367-1.933-4.367-4.266v-1.334c0-.466-.367-.8-.833-.8-.467 0-.767.334-.767.8v1.334c0 2.966 2.267 5.4 5.167 5.8V18.4H9.8c-.467 0-.833.333-.833.8s.366.8.833.8h4.367c.466 0 .833-.333.833-.8s-.367-.8-.833-.8H12.8v-1.133c2.933-.4 5.2-2.834 5.2-5.8v-1.334c0-.466-.367-.8-.833-.8zM12 14.133c1.467 0 2.667-1.2 2.667-2.666V6.633A2.618 2.618 0 0 0 12.033 4h-.066a2.618 2.618 0 0 0-2.634 2.633v4.834c0 1.466 1.2 2.666 2.667 2.666z"/></symbol><symbol viewBox="0 0 24 24" id="Mic_Off" xmlns="http://www.w3.org/2000/svg"><path d="M19.104 5.2l-.7-.7c-.2-.2-.567-.167-.8.1l-3.333 3.333v-1.3A2.618 2.618 0 0 0 11.637 4h-.066a2.618 2.618 0 0 0-2.633 2.633v4.834c0 .5.133 1 .4 1.4L8.17 14.033c-.567-.7-.9-1.6-.9-2.566v-1.334c0-.466-.367-.8-.833-.8-.467 0-.834.334-.834.8v1.334c0 1.433.534 2.733 1.4 3.733l-2.8 2.8c-.233.233-.266.6-.1.8l.7.7c.2.2.567.167.8-.1L19.004 6c.267-.233.3-.6.1-.8zm-3.166 5.867v.4c0 2.333-1.934 4.266-4.334 4.266h-.3l-1.3 1.367c.267.067.6.133.934.2v1.033h-1.5a.825.825 0 0 0-.834.834c0 .466.367.833.834.833h4.366a.825.825 0 0 0 .833-.833c0-.467-.4-.834-.866-.834h-1.5v-1.066c3-.4 5.333-2.867 5.333-5.8v-1.334c0-.2-.1-.4-.2-.533l-1.466 1.467z"/></symbol><symbol viewBox="0 0 24 24" id="Move" xmlns="http://www.w3.org/2000/svg"><path d="M7.212 11.333L3 15.556l4.212 4.222V16.61h7.4V14.5h-7.4v-3.167zM22 9.223L17.788 5v3.167h-7.4v2.11h7.4v3.167L22 9.222z"/></symbol><symbol viewBox="0 0 24 24" id="Move_Animated" xmlns="http://www.w3.org/2000/svg"><path data-position="Top" d="M22 9.222L17.788 5v3.167h-7.4v2.11h7.4v3.167L22 9.222z"/><path data-position="Bottom" d="M7.212 11.333L3 15.556l4.212 4.222V16.61h7.4V14.5h-7.4v-3.167z"/></symbol><symbol viewBox="0 0 24 24" id="Nav_4circles" xmlns="http://www.w3.org/2000/svg"><path d="M17.02 9.96A2.99 2.99 0 0 0 20 6.98 2.99 2.99 0 0 0 17.02 4a2.99 2.99 0 0 0-2.98 2.98 2.99 2.99 0 0 0 2.98 2.98zM6.98 4A2.99 2.99 0 0 0 4 6.98a2.99 2.99 0 0 0 2.98 2.98 2.99 2.99 0 0 0 2.98-2.98A2.99 2.99 0 0 0 6.98 4zm0 10.04A2.99 2.99 0 0 0 4 17.02 2.99 2.99 0 0 0 6.98 20a2.99 2.99 0 0 0 2.98-2.98 2.99 2.99 0 0 0-2.98-2.98zm10.04 0a2.99 2.99 0 0 0-2.98 2.98A2.99 2.99 0 0 0 17.02 20 2.99 2.99 0 0 0 20 17.02a2.99 2.99 0 0 0-2.98-2.98z"/></symbol><symbol viewBox="0 0 24 24" id="Nav_Apps" xmlns="http://www.w3.org/2000/svg"><path d="M4 6c0-1.105.888-2 2-2 1.105 0 2 .888 2 2 0 1.105-.888 2-2 2-1.105 0-2-.888-2-2zm0 6c0-1.105.888-2 2-2 1.105 0 2 .888 2 2 0 1.105-.888 2-2 2-1.105 0-2-.888-2-2zm6-6c0-1.105.888-2 2-2 1.105 0 2 .888 2 2 0 1.105-.888 2-2 2-1.105 0-2-.888-2-2zm0 6c0-1.105.888-2 2-2 1.105 0 2 .888 2 2 0 1.105-.888 2-2 2-1.105 0-2-.888-2-2zm6-6c0-1.105.888-2 2-2 1.105 0 2 .888 2 2 0 1.105-.888 2-2 2-1.105 0-2-.888-2-2zm0 6c0-1.105.888-2 2-2 1.105 0 2 .888 2 2 0 1.105-.888 2-2 2-1.105 0-2-.888-2-2zM4 18c0-1.105.888-2 2-2 1.105 0 2 .888 2 2 0 1.105-.888 2-2 2-1.105 0-2-.888-2-2zm6 0c0-1.105.888-2 2-2 1.105 0 2 .888 2 2 0 1.105-.888 2-2 2-1.105 0-2-.888-2-2zm6 0c0-1.105.888-2 2-2 1.105 0 2 .888 2 2 0 1.105-.888 2-2 2-1.105 0-2-.888-2-2z"/></symbol><symbol viewBox="0 0 24 24" id="Nav_Apps_Animated" xmlns="http://www.w3.org/2000/svg"><circle data-hover-behavior="row1" data-location="TL" cx="6" cy="6" r="2"/><circle data-hover-behavior="row2" data-location="TM" cx="12" cy="6" r="2"/><circle data-hover-behavior="row3" data-location="TR" cx="18" cy="6" r="2"/><circle data-hover-behavior="row2" data-location="ML" cx="6" cy="12" r="2"/><circle data-hover-behavior="row3" data-location="MM" cx="12" cy="12" r="2"/><circle data-hover-behavior="row4" data-location="MR" cx="18" cy="12" r="2"/><circle data-hover-behavior="row3" data-location="BL" cx="6" cy="18" r="2"/><circle data-hover-behavior="row4" data-location="BM" cx="12" cy="18" r="2"/><circle data-hover-behavior="row5" data-location="BR" cx="18" cy="18" r="2"/></symbol><symbol viewBox="0 0 24 24" id="Nav_Bell" xmlns="http://www.w3.org/2000/svg"><path d="M18.667 14.335H18.5a1.18 1.18 0 0 1-1.167-1.166V9.337c0-3.033-2.533-5.465-5.6-5.332-2.866.134-5.066 2.6-5.066 5.498v3.7c0 .632-.534 1.132-1.167 1.132h-.167C4.6 14.335 4 14.968 4 15.701v.5c0 .233.233.467.5.467h15c.267 0 .5-.234.5-.5v-.5c0-.733-.6-1.333-1.333-1.333zm-5.034 3.666h-3.266c-.2 0-.367.2-.334.4.167.933 1 1.599 1.967 1.599.967 0 1.8-.7 1.967-1.6a.352.352 0 0 0-.334-.4z"/></symbol><symbol viewBox="0 0 24 24" id="Nav_Cog" xmlns="http://www.w3.org/2000/svg"><path d="M18.215 12.882c.036-.288.062-.576.062-.882 0-.306-.026-.594-.062-.882l1.871-1.485a.459.459 0 0 0 .106-.576L18.42 5.943c-.106-.198-.346-.27-.54-.198l-2.209.9a6.456 6.456 0 0 0-1.498-.882l-.337-2.385A.434.434 0 0 0 13.4 3H9.854a.434.434 0 0 0-.435.378l-.337 2.385a6.789 6.789 0 0 0-1.498.882l-2.208-.9a.43.43 0 0 0-.541.198L3.06 9.057a.448.448 0 0 0 .107.576l1.87 1.485a7.243 7.243 0 0 0-.061.882c0 .297.026.594.062.882l-1.871 1.485a.459.459 0 0 0-.107.576l1.774 3.114c.106.198.346.27.54.198l2.209-.9c.46.36.957.657 1.498.882l.337 2.385a.434.434 0 0 0 .435.378H13.4a.434.434 0 0 0 .435-.378l.337-2.385a6.789 6.789 0 0 0 1.498-.882l2.208.9a.43.43 0 0 0 .541-.198l1.773-3.114a.459.459 0 0 0-.106-.576l-1.87-1.485zm-6.588 2.268c-1.711 0-3.103-1.413-3.103-3.15 0-1.737 1.392-3.15 3.103-3.15 1.711 0 3.103 1.413 3.103 3.15 0 1.737-1.392 3.15-3.103 3.15z"/></symbol><symbol viewBox="0 0 24 24" id="Nav_Cog_Animated" xmlns="http://www.w3.org/2000/svg"><path d="M18.215 12.882c.036-.288.062-.576.062-.882 0-.306-.026-.594-.062-.882l1.871-1.485a.459.459 0 0 0 .106-.576L18.42 5.943c-.106-.198-.346-.27-.54-.198l-2.209.9a6.456 6.456 0 0 0-1.498-.882l-.337-2.385A.434.434 0 0 0 13.4 3H9.854a.434.434 0 0 0-.435.378l-.337 2.385a6.789 6.789 0 0 0-1.498.882l-2.208-.9a.43.43 0 0 0-.541.198L3.06 9.057a.448.448 0 0 0 .107.576l1.87 1.485a7.243 7.243 0 0 0-.061.882c0 .297.026.594.062.882l-1.871 1.485a.459.459 0 0 0-.107.576l1.774 3.114c.106.198.346.27.54.198l2.209-.9c.46.36.957.657 1.498.882l.337 2.385a.434.434 0 0 0 .435.378H13.4a.434.434 0 0 0 .435-.378l.337-2.385a6.789 6.789 0 0 0 1.498-.882l2.208.9a.43.43 0 0 0 .541-.198l1.773-3.114a.459.459 0 0 0-.106-.576l-1.87-1.485zm-6.588 2.268c-1.711 0-3.103-1.413-3.103-3.15 0-1.737 1.392-3.15 3.103-3.15 1.711 0 3.103 1.413 3.103 3.15 0 1.737-1.392 3.15-3.103 3.15z"/></symbol><symbol viewBox="0 0 24 24" id="Nav_Dashboard" xmlns="http://www.w3.org/2000/svg"><path d="M20 5.333C20 4.6 19.4 4 18.667 4H5.333C4.6 4 4 4.6 4 5.333V14c0 .733.6 1.333 1.333 1.333h13.334c.733 0 1.333-.6 1.333-1.333V5.333zm-2 7.5c0 .267-.233.5-.5.5h-11a.513.513 0 0 1-.5-.5V6.5c0-.267.233-.5.5-.5h11c.267 0 .5.233.5.5v6.333zM14.333 18h-1c-.2 0-.333-.133-.333-.333V17c0-.2-.133-.333-.333-.333h-1.334c-.2 0-.333.133-.333.333v.667c0 .2-.133.333-.333.333h-1c-.734 0-1.334.6-1.334 1.333v.167c0 .267.234.5.5.5h6.334c.266 0 .5-.233.5-.5v-.167c0-.733-.6-1.333-1.334-1.333z"/></symbol><symbol viewBox="0 0 24 24" id="Nav_Hamburger" xmlns="http://www.w3.org/2000/svg"><path d="M3 19h18v-2H3v2zm0-6h18v-2H3v2zm0-8v2h18V5H3z"/></symbol><symbol viewBox="0 0 24 24" id="Nav_Help" xmlns="http://www.w3.org/2000/svg"><circle cx="12" cy="12" r="8" fill="#fff"/><path d="M12 3c-4.968 0-9 4.032-9 9s4.032 9 9 9 9-4.032 9-9-4.032-9-9-9zm.9 15.3h-1.8v-1.8h1.8v1.8zm1.863-6.975l-.81.828c-.648.657-1.053 1.197-1.053 2.547h-1.8v-.45c0-.99.405-1.89 1.053-2.547l1.116-1.134A1.76 1.76 0 0 0 13.8 9.3c0-.99-.81-1.8-1.8-1.8s-1.8.81-1.8 1.8H8.4c0-1.989 1.611-3.6 3.6-3.6s3.6 1.611 3.6 3.6c0 .792-.324 1.512-.837 2.025z"/></symbol><symbol viewBox="0 0 24 24" id="Nav_Home" xmlns="http://www.w3.org/2000/svg"><path d="M19.672 12.356h-1.678v7.324c0 .213-.133.32-.346.32h-3.302c-.213 0-.347-.133-.347-.32v-5.646h-3.995v5.646c0 .213-.133.32-.346.32H6.356c-.213 0-.347-.133-.347-.32v-7.324H4.331c-.133 0-.266-.053-.293-.213-.08-.133-.026-.266.08-.373l7.67-7.67c.134-.133.374-.133.48 0l7.67 7.67c.107.107.107.24.08.373-.026.133-.213.213-.346.213z"/></symbol><symbol viewBox="0 0 24 24" id="Nav_Kabab" xmlns="http://www.w3.org/2000/svg"><path d="M12 8c1.1 0 2-.9 2-2s-.9-2-2-2-2 .9-2 2 .9 2 2 2zm0 2c-1.1 0-2 .9-2 2s.9 2 2 2 2-.9 2-2-.9-2-2-2zm0 6c-1.1 0-2 .9-2 2s.9 2 2 2 2-.9 2-2-.9-2-2-2z"/></symbol><symbol viewBox="0 0 24 24" id="Nav_Status" xmlns="http://www.w3.org/2000/svg"><path d="M19.336 7.57h-8.672A.645.645 0 0 1 10 6.927V5.642c0-.36.29-.642.664-.642h8.672c.374 0 .664.281.664.642v1.285c0 .362-.29.643-.664.643zm0 5.735H8.664A.645.645 0 0 1 8 12.663V11.38c0-.361.29-.642.664-.642h10.672c.373 0 .664.281.664.642v1.284c0 .361-.29.642-.664.642zm0 5.737H8.664A.645.645 0 0 1 8 18.4v-1.284c0-.36.29-.642.664-.642h10.672c.373 0 .664.281.664.642V18.4c0 .361-.29.642-.664.642zM5.95 13.306H4.667a.634.634 0 0 1-.642-.642V11.38c0-.361.281-.642.642-.642h1.284c.362 0 .642.28.642.642v1.284c.04.36-.28.642-.642.642zm0 5.998H4.667a.634.634 0 0 1-.642-.642v-1.284c0-.36.281-.642.642-.642h1.284c.362 0 .642.281.642.642v1.284c.04.361-.28.642-.642.642zm-.31-10.05l-1.616-1.94c-.063-.168-.026-.455.324-.646.084-.12.398-.086.646 0l.646.97 2.586-2.909c.227-.339.54-.384.646-.323.341.235.39.52.323.646L5.641 9.254z"/></symbol><symbol viewBox="0 0 24 24" id="New_Window" xmlns="http://www.w3.org/2000/svg"><path d="M19.567 4H13.2c-.267 0-.533.167-.533.433v1c0 .267.233.567.533.567h2.633c.3 0 .467.333.234.533L10.4 12.2c-.2.2-.2.5 0 .7l.7.7c.2.2.5.2.7 0l5.667-5.667c.2-.2.533-.066.533.234V10.8c0 .267.267.567.533.567h.967c.267 0 .5-.3.5-.567V4.467c0-.3-.167-.467-.433-.467zm-4.134 7.833L14.3 13c-.2.2-.3.433-.3.7v3.8c0 .267-.233.5-.5.5h-7a.513.513 0 0 1-.5-.5v-7c0-.267.233-.5.5-.5h3.833c.267 0 .534-.1.7-.3l1.134-1.133c.2-.2.066-.567-.234-.567h-6.6C4.6 8 4 8.6 4 9.333v9.334C4 19.4 4.6 20 5.333 20h9.334C15.4 20 16 19.4 16 18.667v-6.6c0-.3-.367-.434-.567-.234z"/></symbol><symbol viewBox="0 0 24 24" id="Notified" xmlns="http://www.w3.org/2000/svg"><path d="M12 20a8 8 0 1 1 0-16 8 8 0 0 1 0 16zm-2.185-4.381a.944.944 0 0 0 1.286-.344l-1.63-.942a.944.944 0 0 0 .344 1.286zm4.337-1.048l1.294-2.242a3.058 3.058 0 0 0-.55-3.752l.16-.277a.705.705 0 1 0-1.223-.706l-.16.277a3.058 3.058 0 0 0-3.525 1.4l-1.294 2.241-1.285.345-.236.407 6.929 4 .235-.407-.345-1.286z"/></symbol><symbol viewBox="0 0 24 24" id="Pending" xmlns="http://www.w3.org/2000/svg"><path d="M12 20a8 8 0 1 1 0-16 8 8 0 0 1 0 16zm0-13c-2.76 0-5 2.24-5 5s2.24 5 5 5 5-2.24 5-5-2.24-5-5-5zm0 9c-2.21 0-4-1.79-4-4s1.79-4 4-4 4 1.79 4 4-1.79 4-4 4zm2.12-6.12A2.987 2.987 0 0 0 12 9v3l-2.12 2.12a3.006 3.006 0 0 0 4.245 0 2.995 2.995 0 0 0-.005-4.24z"/></symbol><symbol viewBox="0 0 24 24" id="Pie_Chart" xmlns="http://www.w3.org/2000/svg"><path d="M18.01 11.154l-6.308 3.477a.632.632 0 0 1-.923-.554V6.538c0-.307-.308-.553-.585-.461-3.077.861-5.292 3.846-4.923 7.261.338 3.108 2.83 5.631 5.97 5.97 4.092.43 7.538-2.739 7.538-6.739 0-.37-.031-.738-.093-1.108-.061-.307-.4-.461-.677-.307zm-5.477 1.415l6.061-3.23a.693.693 0 0 0 .246-1.016 9.295 9.295 0 0 0-6-3.692.692.692 0 0 0-.83.677v6.953c0 .277.276.431.523.308z"/></symbol><symbol viewBox="0 0 24 24" id="Pin" xmlns="http://www.w3.org/2000/svg"><path d="M6.16 16.5l1.352 1.353-2.125 2.085a.284.284 0 0 1-.405-.005l-.903-.944a.284.284 0 0 1 .004-.397L6.16 16.5zm6.992 2.455h.002a.82.82 0 0 1-1.4.63l-3.668-3.67-3.67-3.67a.818.818 0 0 1 .629-1.397v-.004l3.423-.025 4.712-4.711.013-1.292h.004a.821.821 0 0 1 1.403-.574l2.58 2.577 2.578 2.578a.822.822 0 0 1-.573 1.404l-.004.005-1.29.013-4.711 4.71-.024 3.426h-.004z"/></symbol><symbol viewBox="0 0 24 24" id="Price" xmlns="http://www.w3.org/2000/svg"><path d="M18.398 4.003c.88 0 1.6.72 1.6 1.599v5.596c.026.373-.134.8-.4 1.066l-7.223 7.25c-.64.612-1.652.612-2.265 0l-5.65-5.65c-.613-.64-.613-1.653 0-2.266l7.142-7.17c.267-.266.586-.452.96-.425h5.836zm-5.756 11.726a.515.515 0 0 0 0-.746l-3.625-3.625a.515.515 0 0 0-.746 0l-.373.373a.515.515 0 0 0 0 .746l3.624 3.625a.515.515 0 0 0 .746 0l.374-.373zm2.132-2.132a.515.515 0 0 0 0-.746l-3.625-3.625a.515.515 0 0 0-.746 0l-.373.373a.515.515 0 0 0 0 .746l3.624 3.625a.515.515 0 0 0 .746 0l.374-.373zm1.492-4.53a1.32 1.32 0 0 0 1.333-1.333A1.32 1.32 0 0 0 16.266 6.4a1.32 1.32 0 0 0-1.333 1.333 1.32 1.32 0 0 0 1.333 1.332z"/></symbol><symbol viewBox="0 0 24 24" id="Price_Ramp" xmlns="http://www.w3.org/2000/svg"><path d="M8.224 12.962v1.062c0 .196-.167.314-.334.314H6.823c-.167 0-.2-.118-.2-.314V13c-.8-.196-1.468-.59-1.634-.786-.2-.236-.267-.432-.1-.707l.333-.63c.067-.156.233-.235.4-.235.1 0 .2.04.267.079h.033c.534.393 1 .55 1.334.55.367 0 .667-.236.667-.472 0-.196-.1-.51-1.1-.904-.9-.393-2.001-1.022-2.001-2.476 0-.865.467-1.848 1.8-2.162v-.944c0-.196.067-.314.2-.314H7.89c.167 0 .334.118.334.314v.905c.533.157 1.1.471 1.3.628.1.08.167.236.2.394a.49.49 0 0 1-.1.393l-.467.55c-.1.157-.3.275-.433.275a.55.55 0 0 1-.234-.079c-.533-.353-.967-.55-1.267-.55-.433 0-.634.236-.634.393 0 .236.1.472 1 .865 1.101.432 2.335 1.14 2.335 2.634.034 1.022-.667 1.926-1.7 2.24zM4 18.992v-2.1l16-8.98v11.08H4z"/></symbol><symbol viewBox="0 0 24 24" id="Price_Waterfall" xmlns="http://www.w3.org/2000/svg"><path d="M8.347 17.87v1.643c0 .304-.26.487-.52.487H6.163c-.26 0-.312-.183-.312-.487v-1.581c-1.248-.305-2.288-.913-2.548-1.217-.312-.365-.416-.67-.156-1.095l.52-.974c.104-.243.364-.365.624-.365.156 0 .312.061.416.122h.052c.832.608 1.56.852 2.08.852.572 0 1.04-.365 1.04-.73 0-.304-.156-.791-1.716-1.4-1.404-.608-3.12-1.581-3.12-3.832 0-1.339.728-2.86 2.808-3.346v-1.46c0-.304.104-.487.312-.487h1.664c.26 0 .52.183.52.487v1.399c.831.243 1.715.73 2.027.973.156.122.26.365.312.609a.753.753 0 0 1-.156.608l-.728.852c-.156.243-.468.426-.676.426a.86.86 0 0 1-.363-.122c-.832-.548-1.508-.852-1.976-.852-.676 0-.988.365-.988.609 0 .365.156.73 1.56 1.338 1.715.67 3.64 1.764 3.64 4.076.051 1.582-1.04 2.981-2.652 3.468zM13 4a1 1 0 0 1 1 1v14a1 1 0 0 1-2 0V5a1 1 0 0 1 1-1zm3 4a1 1 0 0 1 1 1v10a1 1 0 0 1-2 0V9a1 1 0 0 1 1-1zm3 4a1 1 0 0 1 1 1v6a1 1 0 0 1-2 0v-6a1 1 0 0 1 1-1z"/></symbol><symbol viewBox="0 0 24 24" id="Pricing" xmlns="http://www.w3.org/2000/svg"><path d="M10.5 6.367c.067.2.267.3.467.3h2.7c.2 0 .4-.1.466-.3L15.2 4.4c.067-.2-.067-.4-.267-.4h-5.2c-.2 0-.333.2-.233.367l1 2zm3.4 1.866h-3.133C8.133 8.233 6 10.4 6 13.067V18.4c0 .867.7 1.6 1.6 1.6h9.467c.866 0 1.6-.733 1.6-1.6v-5.333c0-2.667-2.167-4.834-4.767-4.834zm-.767 9v.9c0 .167-.166.267-.333.267h-1.067c-.166 0-.2-.1-.2-.267v-.866c-.8-.167-1.466-.5-1.633-.667-.2-.2-.267-.367-.1-.6l.333-.533c.067-.134.234-.2.4-.2.1 0 .2.033.267.066h.033c.534.334 1 .467 1.334.467.366 0 .666-.2.666-.4 0-.167-.1-.433-1.1-.767-.9-.333-2-.866-2-2.1 0-.733.467-1.566 1.8-1.833v-.8c0-.167.067-.267.2-.267H12.8c.167 0 .333.1.333.267v.767c.534.133 1.1.4 1.3.533.1.067.167.2.2.333a.371.371 0 0 1-.1.334l-.466.466a.63.63 0 0 1-.434.234.618.618 0 0 1-.233-.067c-.533-.3-.967-.467-1.267-.467-.433 0-.633.2-.633.334 0 .2.1.4 1 .733 1.1.367 2.333.967 2.333 2.233.034.867-.666 1.634-1.7 1.9z"/></symbol><symbol viewBox="0 0 24 24" id="Purchased" xmlns="http://www.w3.org/2000/svg"><path d="M18.609 19.304H5.39A1.391 1.391 0 0 1 4 17.913l1.391-8.348c.236-1.197.928-1.391 1.697-1.391h.922C8.535 5.757 10.122 4 12 4c1.878 0 3.465 1.757 3.99 4.174h.922c.769 0 1.46.194 1.697 1.391L20 17.913c0 .768-.623 1.391-1.391 1.391zm-7.942-2.97l4.393-4.394-.94-.94-3.453 3.447-1.394-1.387-.94.94 2.334 2.333zM12 5.5c-1.122 0-2.074 1.045-2.427 2.5h4.855C14.074 6.545 13.122 5.5 12 5.5z"/></symbol><symbol viewBox="0 0 24 24" id="Quotes" xmlns="http://www.w3.org/2000/svg"><path d="M18.6 7.433c.267.267.4.6.4.967v10.267C19 19.4 18.4 20 17.667 20H6.333C5.6 20 5 19.4 5 18.667V8.4c0-.367.133-.7.4-.967l3.2-3.066c.267-.234.6-.367.933-.367h4.934c.333 0 .666.133.933.367l3.2 3.066zM17 17.5V9.167c0-.267-.233-.5-.5-.5h-9c-.267 0-.5.233-.5.5V17.5c0 .267.233.5.5.5h9c.267 0 .5-.233.5-.5zM12 5c-.733 0-1.333.6-1.333 1.333 0 .734.6 1.334 1.333 1.334s1.333-.6 1.333-1.334C13.333 5.6 12.733 5 12 5zm3 6H9c-.2 0-.333.133-.333.333v1c0 .2.133.334.333.334h6c.2 0 .333-.134.333-.334v-1c0-.2-.133-.333-.333-.333zm-.667 3H9.667c-.2 0-.334.133-.334.333v1c0 .2.134.334.334.334h4.666c.2 0 .334-.134.334-.334v-1c0-.2-.134-.333-.334-.333z"/></symbol><symbol viewBox="0 0 24 24" id="Radio" xmlns="http://www.w3.org/2000/svg"><circle cx="12" cy="12" r="11"/><circle cx="12" cy="12" r="9" fill="#FFF"/><circle data-click="show" cx="12" cy="12" r="6"/></symbol><symbol viewBox="0 0 24 24" id="Refresh" xmlns="http://www.w3.org/2000/svg"><path d="M17.647 6.353A7.927 7.927 0 0 0 12 4c-4.42 0-8 3.58-8 8s3.58 8 8 8c3.96 0 7.233-2.887 7.873-6.667h-2.026A5.998 5.998 0 0 1 6 12a6 6 0 0 1 6-6c1.66 0 3.14.687 4.227 1.773l-2.894 2.894H20V4l-2.353 2.353z"/></symbol><symbol viewBox="0 0 24 24" id="Rejeced" xmlns="http://www.w3.org/2000/svg"><path d="M12 24C5.373 24 0 18.627 0 12S5.373 0 12 0s12 5.373 12 12-5.373 12-12 12zm2.276-11.655a.552.552 0 0 1 0-.644l3.586-3.586a.444.444 0 0 0 0-.644l-1.287-1.287a.444.444 0 0 0-.644 0L12.345 9.77a.444.444 0 0 1-.644 0L8.07 6.138a.444.444 0 0 0-.644 0L6.138 7.425a.444.444 0 0 0 0 .644l3.632 3.632a.444.444 0 0 1 0 .644L6.184 15.93a.444.444 0 0 0 0 .644l1.287 1.287c.184.184.46.184.644 0l3.586-3.586a.444.444 0 0 1 .644 0l3.586 3.586c.184.184.46.184.644 0l1.287-1.287a.444.444 0 0 0 0-.644l-3.586-3.586z"/></symbol><symbol viewBox="0 0 24 24" id="Search" xmlns="http://www.w3.org/2000/svg"><path d="M19.85 18.418l-4.462-4.429a6.344 6.344 0 0 0 1.132-4.562c-.4-2.864-2.73-5.128-5.628-5.394-3.929-.4-7.259 2.93-6.86 6.893.267 2.864 2.531 5.228 5.395 5.627a6.344 6.344 0 0 0 4.562-1.132l4.43 4.43c.2.199.499.199.699 0l.699-.7c.2-.2.2-.533.033-.733zM5.997 10.293a4.306 4.306 0 0 1 4.296-4.296 4.306 4.306 0 0 1 4.296 4.296 4.306 4.306 0 0 1-4.296 4.296 4.285 4.285 0 0 1-4.296-4.296z"/></symbol><symbol viewBox="0 0 24 24" id="Search_Create" xmlns="http://www.w3.org/2000/svg"><path d="M18.646 18.938l-4.124-4.092a5.862 5.862 0 0 0 1.047-4.216c-.37-2.646-2.523-4.738-5.2-4.984-3.631-.37-6.708 2.707-6.339 6.369.246 2.646 2.339 4.83 4.985 5.2a5.862 5.862 0 0 0 4.215-1.046l4.092 4.092a.446.446 0 0 0 .647 0l.646-.646a.516.516 0 0 0 .03-.677zm-12.8-7.508a3.979 3.979 0 0 1 3.969-3.97 3.979 3.979 0 0 1 3.969 3.97 3.979 3.979 0 0 1-3.97 3.97 3.96 3.96 0 0 1-3.968-3.97zM17.026 3v2.358h2.359v1.179h-2.358v2.358h-1.18V6.537H13.49v-1.18h2.358V3h1.179z"/></symbol><symbol viewBox="0 0 24 24" id="Send_Arrow" xmlns="http://www.w3.org/2000/svg"><path d="M12.915 21.632l7.268-18.177-18.178 7.267 4.237 4.248 10.304-7.878-7.879 10.303z"/></symbol><symbol viewBox="0 0 24 24" id="Sorting" xmlns="http://www.w3.org/2000/svg"><path d="M11.497 13.793a.463.463 0 0 0-.672 0l-1.15 1.154c-.192.192-.544.064-.544-.224v-4.23a.492.492 0 0 0-.48-.48h-.959a.492.492 0 0 0-.48.48v4.23c0 .288-.35.416-.543.224l-1.15-1.154a.463.463 0 0 0-.672 0l-.703.705a.465.465 0 0 0 0 .673l3.676 3.685c.192.192.48.192.672 0l3.708-3.717a.465.465 0 0 0 0-.673l-.703-.673zM20 5.501c0-.267-.224-.501-.48-.501H7.692c-.255 0-.48.234-.48.501v1.003c0 .267.225.501.48.501H19.52c.256 0 .48-.234.48-.501V5.5zm0 5.013c0-.267-.224-.501-.48-.501h-8.63c-.257 0-.48.234-.48.5v1.003c0 .268.223.502.48.502h8.63c.256 0 .48-.234.48-.502v-1.002zm-.002 5.012c0-.267-.224-.5-.48-.5h-5.432c-.256 0-.48.233-.48.5v1.003c0 .267.224.501.48.501h5.433c.255 0 .479-.234.479-.501v-1.003z"/></symbol><symbol viewBox="0 0 24 24" id="Status_Checkmark" xmlns="http://www.w3.org/2000/svg"><path fill="#090" d="M9.079 19.07l-5-6c-.196-.522-.083-1.41 1-2 .26-.37 1.233-.265 2 0l2 3 8-9c.702-1.047 1.673-1.187 2-1 1.055.728 1.206 1.61 1 2l-11 13z"/></symbol><symbol viewBox="0 0 24 24" id="Status_Circle" xmlns="http://www.w3.org/2000/svg"><path d="M11.538 6c3.047 0 5.539 2.492 5.539 5.538 0 3.047-2.492 5.539-5.539 5.539C8.492 17.077 6 14.585 6 11.538 6 8.492 8.492 6 11.538 6z"/></symbol><symbol viewBox="0 0 24 24" id="Status_Error" xmlns="http://www.w3.org/2000/svg"><circle cx="12" cy="12" r="7" fill="#fff"/><path fill="#D22233" d="M12 4c4.416 0 8 3.584 8 8s-3.584 8-8 8-8-3.584-8-8 3.584-8 8-8zm-1 9.458h2.094V7.5H11v5.958zm0 3.042h2.094v-2.028H11V16.5z"/></symbol><symbol viewBox="0 0 24 24" id="Status_Success" xmlns="http://www.w3.org/2000/svg"><circle cx="12" cy="12" r="7" fill="#fff"/><path fill="#62A70F" d="M12 20a8 8 0 1 1 0-16 8 8 0 0 1 0 16zm-1.967-3.5l6.569-7.763c.123-.233.033-.76-.597-1.195-.195-.112-.775-.028-1.195.597l-4.777 5.375-1.194-1.791c-.458-.16-1.04-.222-1.195 0-.647.351-.714.882-.597 1.194l2.986 3.583z"/></symbol><symbol viewBox="0 0 24 24" id="Status_Warning" xmlns="http://www.w3.org/2000/svg"><path fill="#fff" d="M12 5l7 13H5z"/><path fill="#F2A515" d="M19.766 16.942c.575 1.035.054 1.954-1.158 1.953H5.392c-1.211 0-1.732-.919-1.159-1.954l2.318-4.206c.573-1.033 1.514-2.742 2.088-3.776l2.317-4.184c.574-1.033 1.514-1.033 2.088 0l2.316 4.167 2.089 3.755 2.317 4.245zM11 13.267h2.203V9H11v4.267zm0 3.2h2.203v-2.134H11v2.134z"/></symbol><symbol viewBox="0 0 24 24" id="Subtract_Mini" xmlns="http://www.w3.org/2000/svg"><circle data-hover-behavior="color" cx="12" cy="12" r="8" fill="#FFF"/><path data-hover-behavior="white" d="M7.714 12.714h8.572a.714.714 0 1 0 0-1.428H7.714a.714.714 0 1 0 0 1.428z"/><path data-hover-behavior="color" d="M12 20.5a8.5 8.5 0 1 1 0-17 8.5 8.5 0 0 1 0 17zm0-1a7.5 7.5 0 1 0 0-15 7.5 7.5 0 0 0 0 15z"/></symbol><symbol viewBox="0 0 24 24" id="Switch_Owner" xmlns="http://www.w3.org/2000/svg"><path d="M5.636 8.515H4.313c-.27 0-.405.243-.243.378l2.16 2.24c.108.082.27.082.378 0l2.16-2.24c.162-.162.027-.378-.243-.378H7.256c0-1.35 1.323-2.7 2.673-2.7v-1.62c-2.43 0-4.293 1.89-4.293 4.32zm12.117 2.187c-.787-.309-.899-.618-.899-.927 0-.309.225-.618.506-.843.477-.393.73-.983.73-1.629C18.09 6.067 17.275 5 15.843 5c-1.32 0-2.107.899-2.22 1.994 0 .113.057.197.141.253 1.068.674 1.714 1.854 1.714 3.286 0 1.068-.422 2.023-1.18 2.697a.17.17 0 0 0 0 .225c.197.14.646.337.927.477.084.028.14.056.225.056h3.398c.646 0 1.152-.533 1.152-1.123v-.169c0-.983-1.067-1.516-2.247-1.994zm-3.764 3.904c-.955-.393-1.095-.73-1.095-1.095s.28-.73.59-1.011c.561-.478.87-1.152.87-1.938 0-1.461-.955-2.725-2.696-2.725-1.714 0-2.697 1.264-2.697 2.725 0 .786.31 1.46.87 1.938.31.28.59.646.59 1.01 0 .366-.14.731-1.123 1.096-1.404.562-2.78 1.208-2.78 2.388v.365c0 .618.505 1.124 1.151 1.124h7.78c.647 0 1.18-.506 1.18-1.124v-.393c0-1.152-1.236-1.798-2.64-2.36z"/></symbol><symbol viewBox="0 0 24 24" id="Table" xmlns="http://www.w3.org/2000/svg"><path d="M19.455 4H4.545C4.255 4 4 4.277 4 4.593v1.978c0 .317.255.594.545.594h14.91c.29 0 .545-.277.545-.594V4.593c0-.316-.255-.593-.545-.593zM7.818 9H4.545C4.255 9 4 9.308 4 9.66v1.318c0 .352.255.66.545.66h3.273c.291 0 .546-.308.546-.66V9.659c0-.351-.255-.659-.546-.659zm5.818 0h-3.272c-.291 0-.546.308-.546.66v1.318c0 .352.255.66.546.66h3.272c.291 0 .546-.308.546-.66V9.659c0-.351-.255-.659-.546-.659zm5.819 0h-3.273c-.291 0-.546.308-.546.66v1.318c0 .352.255.66.546.66h3.273c.29 0 .545-.308.545-.66V9.659c0-.351-.255-.659-.545-.659zM7.818 13H4.545c-.29 0-.545.308-.545.66v1.318c0 .352.255.66.545.66h3.273c.291 0 .546-.308.546-.66v-1.319c0-.351-.255-.659-.546-.659zm5.818 0h-3.272c-.291 0-.546.308-.546.66v1.318c0 .352.255.66.546.66h3.272c.291 0 .546-.308.546-.66v-1.319c0-.351-.255-.659-.546-.659zm5.819 0h-3.273c-.291 0-.546.308-.546.66v1.318c0 .352.255.66.546.66h3.273c.29 0 .545-.308.545-.66v-1.319c0-.351-.255-.659-.545-.659zM7.818 17H4.545c-.29 0-.545.308-.545.66v1.318c0 .352.255.66.545.66h3.273c.291 0 .546-.308.546-.66v-1.319c0-.351-.255-.659-.546-.659zm5.818 0h-3.272c-.291 0-.546.308-.546.66v1.318c0 .352.255.66.546.66h3.272c.291 0 .546-.308.546-.66v-1.319c0-.351-.255-.659-.546-.659zm5.819 0h-3.273c-.291 0-.546.308-.546.66v1.318c0 .352.255.66.546.66h3.273c.29 0 .545-.308.545-.66v-1.319c0-.351-.255-.659-.545-.659z"/></symbol><symbol viewBox="0 0 24 24" id="Table_Rows" xmlns="http://www.w3.org/2000/svg"><path d="M19.308 5H5.462A.473.473 0 0 0 5 5.462V7c0 .246.215.462.462.462h13.846A.473.473 0 0 0 19.769 7V5.462A.473.473 0 0 0 19.308 5zm0 3.692H8.538a.473.473 0 0 0-.461.462v.923c0 .246.215.461.461.461h10.77a.473.473 0 0 0 .461-.461v-.923a.473.473 0 0 0-.461-.462zm0 6.154H8.538a.473.473 0 0 0-.461.462v.923c0 .246.215.461.461.461h10.77a.473.473 0 0 0 .461-.461v-.923a.473.473 0 0 0-.461-.462zm0 3.077h-12a.473.473 0 0 1-.462-.461v-2.154a.473.473 0 0 0-.461-.462h-.923a.473.473 0 0 0-.462.462v4c0 .246.215.461.462.461h13.846a.473.473 0 0 0 .461-.461v-.923a.473.473 0 0 0-.461-.462zm0-6.154h-12a.473.473 0 0 1-.462-.461V9.154a.473.473 0 0 0-.461-.462h-.923A.473.473 0 0 0 5 9.154v4c0 .246.215.461.462.461h13.846a.473.473 0 0 0 .461-.461v-.923a.473.473 0 0 0-.461-.462z"/></symbol><symbol viewBox="0 0 24 24" id="Table_Sort_Column" xmlns="http://www.w3.org/2000/svg"><path d="M19.497 5H4.5c-.267 0-.5.233-.5.5v1.666c0 .267.233.5.5.5h14.997c.266 0 .5-.233.5-.5V5.5c-.034-.267-.234-.5-.5-.5zM6.899 9H4.567c-.267 0-.5.232-.5.499v9.931c0 .267.233.5.5.5h2.332c.267 0 .5-.233.5-.5V9.5c0-.267-.233-.5-.5-.5zm12.598 0h-2.333c-.267 0-.5.232-.5.499v9.931c0 .267.233.5.5.5h2.333c.266 0 .5-.233.5-.5V9.5c0-.267-.234-.5-.5-.5zM14.83 9H9.232c-.266 0-.5.232-.5.499v9.931c0 .267.234.5.5.5h5.599c.267 0 .5-.233.5-.5V9.5c0-.267-.233-.5-.5-.5z"/></symbol><symbol viewBox="0 0 24 24" id="Tabs" xmlns="http://www.w3.org/2000/svg"><path d="M13.723 4.615h-3.446c-.215 0-.37.263-.37.57V6.28c0 .306.185.57.37.57h3.446c.215 0 .37-.264.37-.57V5.185c.03-.307-.155-.57-.37-.57zm5.262 0h-3.447c-.215 0-.4.263-.4.57V6.28c0 .306.185.57.4.57h3.447c.215-.045.4-.264.4-.57V5.185c0-.307-.185-.57-.4-.57zM9.23 7.847c-.216 0-.4-.175-.4-.378V5.055c0-.204-.185-.38-.4-.38H5.015c-.215 0-.4.176-.4.38v13.98c0 .175.185.35.4.35h13.97c.215 0 .4-.175.4-.38V8.227c0-.204-.185-.379-.4-.379H9.23z"/></symbol><symbol viewBox="0 0 24 24" id="Thumbs_Down" xmlns="http://www.w3.org/2000/svg"><path d="M20 4.455h-2.91v8.727H20V4.455zm-16 8c0 .8.655 1.454 1.455 1.454h4.589l-.691 3.324-.022.232c0 .299.124.575.32.771l.77.764 4.786-4.793c.27-.262.43-.625.43-1.025V5.909c0-.8-.655-1.454-1.455-1.454H7.636c-.603 0-1.12.363-1.338.887l-2.196 5.127A1.437 1.437 0 0 0 4 11v1.39l.007.006-.007.059z"/></symbol><symbol viewBox="0 0 24 24" id="Thumbs_Up" xmlns="http://www.w3.org/2000/svg"><path d="M4 19.545h2.91v-8.727H4v8.727zm16-8c0-.8-.655-1.454-1.455-1.454h-4.589l.691-3.324.022-.232c0-.299-.124-.575-.32-.771L13.58 5 8.792 9.793c-.27.262-.43.625-.43 1.025v7.273c0 .8.655 1.454 1.455 1.454h6.546c.603 0 1.12-.363 1.338-.887l2.196-5.127c.066-.167.102-.342.102-.531v-1.39l-.007-.006.007-.059z"/></symbol><symbol viewBox="0 0 24 24" id="Trash" xmlns="http://www.w3.org/2000/svg"><path d="M17.167 10H6.833c-.266 0-.5.233-.5.5v7.833A1.65 1.65 0 0 0 8 20h8a1.65 1.65 0 0 0 1.667-1.667V10.5c0-.267-.234-.5-.5-.5zM18.5 6.667h-4.167V5.333C14.333 4.6 13.733 4 13 4h-2c-.733 0-1.333.6-1.333 1.333v1.334H5.5c-.267 0-.5.233-.5.5v1c0 .266.233.5.5.5h13c.267 0 .5-.234.5-.5v-1c0-.267-.233-.5-.5-.5zm-5.5 0h-2v-1c0-.2.133-.334.333-.334h1.334c.2 0 .333.134.333.334v1z"/></symbol><symbol viewBox="0 0 24 24" id="Triangle_Down" xmlns="http://www.w3.org/2000/svg"><path d="M12 15L8 9h8z"/></symbol><symbol viewBox="0 0 24 24" id="Triangle_Left" xmlns="http://www.w3.org/2000/svg"><path d="M9 12l6-4v8z"/></symbol><symbol viewBox="0 0 24 24" id="Triangle_Right" xmlns="http://www.w3.org/2000/svg"><path d="M15 12l-6 4V8z"/></symbol><symbol viewBox="0 0 24 24" id="Triangle_Up" xmlns="http://www.w3.org/2000/svg"><path d="M12 9l4 6H8z"/></symbol><symbol viewBox="0 0 24 24" id="Unpin" xmlns="http://www.w3.org/2000/svg"><path d="M10.35 8.936l2.83-2.828.013-1.292h.004a.821.821 0 0 1 1.403-.574l2.58 2.577 2.578 2.578a.822.822 0 0 1-.573 1.404l-.004.005-1.29.013-2.83 2.828 4.646 4.646L19 19 6.272 6.272l.707-.707 3.372 3.371zm-1.207 1.207l4.711 4.711-.674.674-.024 3.427h-.004.002a.82.82 0 0 1-1.4.63l-3.668-3.67-3.67-3.67a.818.818 0 0 1 .629-1.397v-.004l3.423-.025.675-.676zM6.16 16.5l1.352 1.353-2.125 2.085a.284.284 0 0 1-.405-.005l-.903-.944a.284.284 0 0 1 .004-.397L6.16 16.5z"/></symbol><symbol viewBox="0 0 24 24" id="Update" xmlns="http://www.w3.org/2000/svg"><path d="M14.571 15.429l1.143 1.714c-1.143.571-2.285 1.143-3.714 1.143-3.429 0-6-2.572-6-6V12H4l2.286-3.714L9.143 12H7.429v.286c0 2.285 2 4.285 4.285 4.285 1.143 0 2-.571 2.857-1.142zM18 12v.286h2L17.143 16l-2.857-3.714h2C16.286 10 14.286 8 12 8c-.857 0-2 .286-2.571.857L8.286 7.43C9.429 6.57 10.57 6 12 6c3.429 0 6 2.571 6 6z"/></symbol><symbol viewBox="0 0 24 24" id="User" xmlns="http://www.w3.org/2000/svg"><path d="M20 17.667v.733c0 .867-.733 1.6-1.6 1.6H5.6c-.867 0-1.6-.733-1.6-1.6v-.733c0-1.934 2.267-3.134 4.4-4.067l.2-.1a.534.534 0 0 1 .5.033 5.172 5.172 0 0 0 2.867.867c1.033 0 2.033-.333 2.866-.867.167-.1.334-.1.5-.033l.2.1c2.2.933 4.467 2.1 4.467 4.067zM12 4c2.2 0 3.967 1.967 3.967 4.4 0 2.433-1.767 4.4-3.967 4.4s-3.967-1.967-3.967-4.4C8.033 5.967 9.8 4 12 4z"/></symbol><symbol viewBox="0 0 24 24" id="User_Circle" xmlns="http://www.w3.org/2000/svg"><path d="M12 20a8 8 0 1 0 0-16 8 8 0 0 0 0 16zm5-4.958v.458c0 .542-.458 1-1 1H8c-.542 0-1-.458-1-1v-.458c0-1.209 1.417-1.959 2.75-2.542l.125-.063a.334.334 0 0 1 .313.021 3.233 3.233 0 0 0 1.791.542c.646 0 1.271-.208 1.792-.542a.334.334 0 0 1 .312-.02l.125.062c1.375.583 2.792 1.313 2.792 2.542zM12 6.5c1.375 0 2.48 1.23 2.48 2.75S13.374 12 12 12s-2.48-1.23-2.48-2.75S10.626 6.5 12 6.5z"/></symbol><symbol viewBox="0 0 24 24" id="Wrench" xmlns="http://www.w3.org/2000/svg"><path d="M19.8 7.396c-.066-.2-.3-.233-.466-.1l-2.697 2.698c-.2.2-.533.2-.733 0l-1.898-1.898c-.2-.2-.2-.533 0-.733l2.73-2.697c.134-.133.067-.366-.1-.466a5.306 5.306 0 0 0-1.431-.2c-2.83 0-5.095 2.43-4.762 5.328.067.466.167.866.333 1.265L4.55 16.787c-.732.732-.732 1.931 0 2.63.367.367.866.566 1.332.566.467 0 .966-.2 1.332-.566l6.194-6.193c.4.166.832.266 1.265.333C17.57 13.89 20 11.625 20 8.795c0-.5-.067-.966-.2-1.399z"/></symbol><symbol viewBox="0 0 24 24" id="Zoom_In" xmlns="http://www.w3.org/2000/svg"><circle cx="10.7" cy="10.7" r="6" fill="#fff"/><path d="M13.657 9.66h-1.998V7.664c0-.2-.134-.333-.333-.333H9.994c-.2 0-.333.133-.333.333V9.66H7.663c-.2 0-.333.133-.333.333v1.332c0 .2.133.333.333.333H9.66v1.998c0 .2.133.333.333.333h1.332c.2 0 .333-.134.333-.333v-1.998h1.998c.2 0 .333-.134.333-.333V9.994c0-.2-.134-.333-.333-.333zm6.193 8.725l-3.83-3.796a6.695 6.695 0 0 0 1.3-3.93C17.32 6.998 14.322 4 10.66 4 6.997 4 4 6.997 4 10.66c0 3.663 2.997 6.66 6.66 6.66 1.465 0 2.83-.5 3.929-1.3l3.83 3.83c.2.2.499.2.699 0l.699-.7c.2-.199.2-.532.033-.765zm-9.19-3.063a4.676 4.676 0 0 1-4.662-4.662 4.676 4.676 0 0 1 4.662-4.662 4.676 4.676 0 0 1 4.662 4.662 4.676 4.676 0 0 1-4.662 4.662z"/></symbol><symbol viewBox="0 0 24 24" id="Zoom_out" xmlns="http://www.w3.org/2000/svg"><circle cx="11.3" cy="11.3" r="6" fill="#fff"/><path d="M10.276 10.276h3.996c.2 0 .333.133.333.333v1.332c0 .2-.133.333-.333.333H8.278c-.2 0-.333-.133-.333-.333V10.61c0-.2.133-.333.333-.333h1.998zm10.19 8.758c.166.2.166.532-.034.732l-.699.7c-.2.2-.5.2-.7 0l-3.829-3.83a6.695 6.695 0 0 1-3.929 1.299c-3.663 0-6.66-2.997-6.66-6.66 0-3.663 2.997-6.66 6.66-6.66 3.663 0 6.66 2.997 6.66 6.66 0 1.465-.5 2.83-1.299 3.93l3.83 3.829zm-9.19-3.097a4.676 4.676 0 0 0 4.66-4.662 4.676 4.676 0 0 0-4.66-4.662 4.676 4.676 0 0 0-4.663 4.662 4.676 4.676 0 0 0 4.662 4.662z"/></symbol></svg>