<svg fill="#000" xmlns="http://www.w3.org/2000/svg" xmlns:xlink="http://www.w3.org/1999/xlink" width="24" height="24" viewBox="0 0 24 24">
  <path d="M18.3230769,10.9384615 L8.10769231,10.9384615 C7.83076923,10.9384615 7.70769231,10.6 7.89230769,10.4153846 L10.8461538,7.46153846 C11.0307692,7.27692308 11.0307692,7 10.8461538,6.81538462 L10.1692308,6.13846154 C9.98461538,5.95384615 9.70769231,5.95384615 9.52307692,6.13846154 L4.13846154,11.5538462 C3.95384615,11.7384615 3.95384615,12.0153846 4.13846154,12.2 L9.52307692,17.5846154 C9.70769231,17.7692308 9.98461538,17.7692308 10.1692308,17.5846154 L10.8153846,16.9384615 C11,16.7538462 11,16.4769231 10.8153846,16.2923077 L7.86153846,13.3384615 C7.67692308,13.1230769 7.8,12.7846154 8.07692308,12.7846154 L18.2923077,12.7846154 C18.5384615,12.7846154 18.7538462,12.6 18.7538462,12.3538462 L18.7538462,11.4307692 C18.7538462,11.1846154 18.5692308,10.9384615 18.3230769,10.9384615 L18.3230769,10.9384615 Z"/>
</svg>