<svg fill="#000" xmlns="http://www.w3.org/2000/svg" xmlns:xlink="http://www.w3.org/1999/xlink" width="24" height="24" viewBox="0 0 24 24">
  <path transform="rotate(90 12 12)" d="M19.5714286,4 L16.4285714,4 C16.3214286,4 16.2142857,4.02348993 16.1428571,4.09395973 C16.0714286,4.1409396 16,4.2114094 16,4.28187919 L16,17.7181208 C16,17.7885906 16.0714286,17.8590604 16.1428571,17.9060403 C16.2142857,17.9765101 16.3214286,18 16.4285714,18 L19.5714286,18 C19.6785714,18 19.7857143,17.9765101 19.8571429,17.9060403 C19.9285714,17.8590604 19.9642857,17.7885906 20,17.7181208 L20,4.28187919 C19.9642857,4.2114094 19.9285714,4.1409396 19.8571429,4.09395973 C19.7857143,4.02348993 19.6785714,4 19.5714286,4 Z M7.56756757,6.00699556 L4.43243243,6.00699556 C4.32432432,6.00699556 4.21621622,6.03329601 4.14414414,6.0858969 C4.03603604,6.1384978 4,6.21739915 4,6.29630049 L4,17.6843946 C4,17.763296 4.03603604,17.8421973 4.14414414,17.8947982 C4.21621622,17.9736996 4.32432432,18 4.43243243,18 L7.56756757,18 C7.67567568,18 7.78378378,17.9736996 7.89189189,17.8947982 C7.96396396,17.8421973 8,17.763296 8,17.6843946 L8,6.29630049 C8,6.21739915 7.96396396,6.1384978 7.89189189,6.0858969 C7.78378378,6.03329601 7.67567568,5.98069511 7.56756757,6.00699556 Z M13.5675676,10 C13.6756757,10 13.7837838,10.03125 13.8558559,10.125 C13.963964,10.1875 14,10.28125 14,10.375 L14,17.625 C14,17.71875 13.963964,17.8125 13.8558559,17.875 C13.7837838,17.96875 13.6756757,18 13.5675676,18 L10.4324324,18 C10.3243243,18 10.2162162,17.96875 10.1441441,17.875 C10.0720721,17.8125 10,17.71875 10,17.625 L10,10.375 C10,10.15625 10.1801802,10 10.4324324,10 L13.5675676,10 Z M4,19 L20,19 L20,20 L4,20 L4,19 Z"/>
</svg>