<svg fill="#000" xmlns="http://www.w3.org/2000/svg" xmlns:xlink="http://www.w3.org/1999/xlink" width="24" height="24" viewBox="0 0 24 24">
  <path d="M7.81818182,4 L4.54545455,4 C4.25454545,4 4,4.25454545 4,4.54545455 L4,10.7272727 C4,11.0181818 4.25454545,11.2727273 4.54545455,11.2727273 L7.81818182,11.2727273 C8.10909091,11.2727273 8.36363636,11.0181818 8.36363636,10.7272727 L8.36363636,4.54545455 C8.36363636,4.25454545 8.10909091,4 7.81818182,4 Z M13.6363636,4 L10.3636364,4 C10.0727273,4 9.81818182,4.25454545 9.81818182,4.54545455 L9.81818182,10.7272727 C9.81818182,11.0181818 10.0727273,11.2727273 10.3636364,11.2727273 L13.6363636,11.2727273 C13.9272727,11.2727273 14.1818182,11.0181818 14.1818182,10.7272727 L14.1818182,4.54545455 C14.1818182,4.25454545 13.9272727,4 13.6363636,4 Z M19.4545455,4 L16.1818182,4 C15.8909091,4 15.6363636,4.25454545 15.6363636,4.54545455 L15.6363636,10.7272727 C15.6363636,11.0181818 15.8909091,11.2727273 16.1818182,11.2727273 L19.4545455,11.2727273 C19.7454545,11.2727273 20,11.0181818 20,10.7272727 L20,4.54545455 C20,4.25454545 19.7454545,4 19.4545455,4 Z M7.81818182,12.7272727 L4.54545455,12.7272727 C4.25454545,12.7272727 4,12.9818182 4,13.2727273 L4,19.4545455 C4,19.7454545 4.25454545,20 4.54545455,20 L7.81818182,20 C8.10909091,20 8.36363636,19.7454545 8.36363636,19.4545455 L8.36363636,13.2727273 C8.36363636,12.9818182 8.10909091,12.7272727 7.81818182,12.7272727 Z M13.6363636,12.7272727 L10.3636364,12.7272727 C10.0727273,12.7272727 9.81818182,12.9818182 9.81818182,13.2727273 L9.81818182,19.4545455 C9.81818182,19.7454545 10.0727273,20 10.3636364,20 L13.6363636,20 C13.9272727,20 14.1818182,19.7454545 14.1818182,19.4545455 L14.1818182,13.2727273 C14.1818182,12.9818182 13.9272727,12.7272727 13.6363636,12.7272727 Z M19.4545455,12.7272727 L16.1818182,12.7272727 C15.8909091,12.7272727 15.6363636,12.9818182 15.6363636,13.2727273 L15.6363636,19.4545455 C15.6363636,19.7454545 15.8909091,20 16.1818182,20 L19.4545455,20 C19.7454545,20 20,19.7454545 20,19.4545455 L20,13.2727273 C20,12.9818182 19.7454545,12.7272727 19.4545455,12.7272727 Z"/>
</svg>