<svg fill="#000" xmlns="http://www.w3.org/2000/svg" xmlns:xlink="http://www.w3.org/1999/xlink" width="24" height="24" viewBox="0 0 24 24">
  <path d="M8.8,16.8 C7.92,16.8 7.208,17.52 7.208,18.4 C7.208,19.28 7.92,20 8.8,20 C9.68,20 10.4,19.28 10.4,18.4 C10.4,17.52 9.68,16.8 8.8,16.8 Z M4,4 L4,5.6 L5.6,5.6 L8.48,11.672 L7.4,13.632 C7.272,13.856 7.2,14.12 7.2,14.4 C7.2,15.28 7.92,16 8.8,16 L18.4,16 L18.4,14.4 L9.136,14.4 C9.024,14.4 8.936,14.312 8.936,14.2 L8.96,14.104 L9.68,12.8 L15.64,12.8 C16.24,12.8 16.768,12.472 17.04,11.976 L19.904,6.784 C19.968,6.672 20,6.536 20,6.4 C20,5.96 19.64,5.6 19.2,5.6 L7.368,5.6 L6.616,4 L4,4 Z M16.8,16.8 C15.92,16.8 15.208,17.52 15.208,18.4 C15.208,19.28 15.92,20 16.8,20 C17.68,20 18.4,19.28 18.4,18.4 C18.4,17.52 17.68,16.8 16.8,16.8 Z"/>
</svg>