<svg fill="#000" xmlns="http://www.w3.org/2000/svg" xmlns:xlink="http://www.w3.org/1999/xlink" width="24" height="24" viewBox="0 0 24 24">
  <path d="M12,24 C5.372583,24 0,18.627417 0,12 C0,5.372583 5.372583,0 12,0 C18.627417,0 24,5.372583 24,12 C24,18.627417 18.627417,24 12,24 Z M9.80907797,17.3031127 L18.059078,7.55311271 C18.2136619,7.26053171 18.1003036,6.59871432 17.309078,6.05311271 C17.0642087,5.91188774 16.335995,6.01701898 15.809078,6.80311271 L9.80907797,13.5531127 L8.30907797,11.3031127 C7.73436724,11.1036113 7.00388636,11.0248786 6.80907797,11.3031127 C5.99681123,11.7450508 5.91201923,12.4110364 6.05907797,12.8031127 L9.80907797,17.3031127 Z"/>
</svg>