<svg fill="#000" xmlns="http://www.w3.org/2000/svg" xmlns:xlink="http://www.w3.org/1999/xlink" width="24" height="24" viewBox="0 0 24 24">
  <path d="M7.12493261,10.7141239 L11.6225066,6.14991913 C11.8223988,5.95002696 12.1555524,5.95002696 12.3554446,6.14991913 L16.8530186,10.7141239 C17.0529108,10.914016 17.0529108,11.2471697 16.8530186,11.4470618 L16.1200806,12.1799998 C15.9201884,12.379892 15.5870348,12.379892 15.3871426,12.1799998 L12.3554446,9.04835571 C12.1555524,8.84846353 11.8223988,8.84846353 11.6225066,9.04835571 L8.59080858,12.1466845 C8.3909164,12.3465766 8.05776277,12.3465766 7.8578706,12.1466845 L7.12493261,11.4137465 C6.9583558,11.2138543 6.9583558,10.914016 7.12493261,10.7141239 L7.12493261,10.7141239 Z M7.12493261,16.7442046 L11.6225066,12.1799998 C11.8223988,11.9801077 12.1555524,11.9801077 12.3554446,12.1799998 L16.8530186,16.7442046 C17.0529108,16.9440967 17.0529108,17.2772504 16.8530186,17.4771425 L16.1200806,18.2100805 C15.9201884,18.4099727 15.5870348,18.4099727 15.3871426,18.2100805 L12.3554446,15.0784364 C12.1555524,14.8785442 11.8223988,14.8785442 11.6225066,15.0784364 L8.59080858,18.1767652 C8.3909164,18.3766573 8.05776277,18.3766573 7.8578706,18.1767652 L7.12493261,17.4438272 C6.9583558,17.243935 6.9583558,16.9107814 7.12493261,16.7442046 L7.12493261,16.7442046 Z"/>
</svg>