<svg fill="#000" xmlns="http://www.w3.org/2000/svg" xmlns:xlink="http://www.w3.org/1999/xlink" width="24" height="24" viewBox="0 0 24 24">
  <path d="M10.1818182,4 C10.8,4 11.2727273,4.47272727 11.2727273,5.09090909 L11.2727273,19.2727273 C11.2727273,19.6727273 10.9454545,20 10.5454545,20 L9.45454545,20 C9.23636364,20 9.09090909,19.8545455 9.09090909,19.6363636 L9.09090909,17.4545455 C9.09090909,17.2363636 8.94545455,17.0909091 8.72727273,17.0909091 L6.54545455,17.0909091 C6.32727273,17.0909091 6.18181818,17.2363636 6.18181818,17.4545455 L6.18181818,19.6363636 C6.18181818,19.8545455 6.03636364,20 5.81818182,20 L4.36363636,20 C4.18181818,20 4,19.8181818 4,19.6363636 L4,5.09090909 C4,4.47272727 4.47272727,4 5.09090909,4 L10.1818182,4 Z M6.90909091,15.4545455 L6.90909091,13.6363636 C6.90909091,13.5272727 6.83636364,13.4545455 6.72727273,13.4545455 L5.63636364,13.4545455 C5.52727273,13.4545455 5.45454545,13.5272727 5.45454545,13.6363636 L5.45454545,15.4545455 C5.45454545,15.5636364 5.52727273,15.6363636 5.63636364,15.6363636 L6.72727273,15.6363636 C6.83636364,15.6363636 6.90909091,15.5636364 6.90909091,15.4545455 Z M6.90909091,11.8181818 L6.90909091,10 C6.90909091,9.89090909 6.83636364,9.81818182 6.72727273,9.81818182 L5.63636364,9.81818182 C5.52727273,9.81818182 5.45454545,9.89090909 5.45454545,10 L5.45454545,11.8181818 C5.45454545,11.9272727 5.52727273,12 5.63636364,12 L6.72727273,12 C6.83636364,12 6.90909091,11.9272727 6.90909091,11.8181818 Z M6.90909091,8.18181818 L6.90909091,6.36363636 C6.90909091,6.25454545 6.83636364,6.18181818 6.72727273,6.18181818 L5.63636364,6.18181818 C5.52727273,6.18181818 5.45454545,6.25454545 5.45454545,6.36363636 L5.45454545,8.18181818 C5.45454545,8.29090909 5.52727273,8.36363636 5.63636364,8.36363636 L6.72727273,8.36363636 C6.83636364,8.36363636 6.90909091,8.29090909 6.90909091,8.18181818 Z M9.81818182,15.4545455 L9.81818182,13.6363636 C9.81818182,13.5272727 9.74545455,13.4545455 9.63636364,13.4545455 L8.54545455,13.4545455 C8.43636364,13.4545455 8.36363636,13.5272727 8.36363636,13.6363636 L8.36363636,15.4545455 C8.36363636,15.5636364 8.43636364,15.6363636 8.54545455,15.6363636 L9.63636364,15.6363636 C9.74545455,15.6363636 9.81818182,15.5636364 9.81818182,15.4545455 Z M9.81818182,11.8181818 L9.81818182,10 C9.81818182,9.89090909 9.74545455,9.81818182 9.63636364,9.81818182 L8.54545455,9.81818182 C8.43636364,9.81818182 8.36363636,9.89090909 8.36363636,10 L8.36363636,11.8181818 C8.36363636,11.9272727 8.43636364,12 8.54545455,12 L9.63636364,12 C9.74545455,12 9.81818182,11.9272727 9.81818182,11.8181818 Z M9.81818182,8.18181818 L9.81818182,6.36363636 C9.81818182,6.25454545 9.74545455,6.18181818 9.63636364,6.18181818 L8.54545455,6.18181818 C8.43636364,6.18181818 8.36363636,6.25454545 8.36363636,6.36363636 L8.36363636,8.18181818 C8.36363636,8.29090909 8.43636364,8.36363636 8.54545455,8.36363636 L9.63636364,8.36363636 C9.74545455,8.36363636 9.81818182,8.29090909 9.81818182,8.18181818 Z M18.9090909,7.63636364 C19.5272727,7.63636364 20,8.10909091 20,8.72727273 L20,19.2727273 C20,19.6727273 19.6727273,20 19.2727273,20 L18.1818182,20 C17.9636364,20 17.8181818,19.8545455 17.8181818,19.6363636 L17.8181818,17.4545455 C17.8181818,17.2363636 17.6727273,17.0909091 17.4545455,17.0909091 L15.2727273,17.0909091 C15.0545455,17.0909091 14.9090909,17.2363636 14.9090909,17.4545455 L14.9090909,19.6363636 C14.9090909,19.8545455 14.7636364,20 14.5454545,20 L13.0909091,20 C12.9090909,20 12.7272727,19.8181818 12.7272727,19.6363636 L12.7272727,8.72727273 C12.7272727,8.10909091 13.2,7.63636364 13.8181818,7.63636364 L18.9090909,7.63636364 Z M15.6363636,15.4545455 L15.6363636,13.6363636 C15.6363636,13.5272727 15.5636364,13.4545455 15.4545455,13.4545455 L14.3636364,13.4545455 C14.2545455,13.4545455 14.1818182,13.5272727 14.1818182,13.6363636 L14.1818182,15.4545455 C14.1818182,15.5636364 14.2545455,15.6363636 14.3636364,15.6363636 L15.4545455,15.6363636 C15.5636364,15.6363636 15.6363636,15.5636364 15.6363636,15.4545455 Z M15.6363636,11.8181818 L15.6363636,10 C15.6363636,9.89090909 15.5636364,9.81818182 15.4545455,9.81818182 L14.3636364,9.81818182 C14.2545455,9.81818182 14.1818182,9.89090909 14.1818182,10 L14.1818182,11.8181818 C14.1818182,11.9272727 14.2545455,12 14.3636364,12 L15.4545455,12 C15.5636364,12 15.6363636,11.9272727 15.6363636,11.8181818 Z M18.5454545,15.4545455 L18.5454545,13.6363636 C18.5454545,13.5272727 18.4727273,13.4545455 18.3636364,13.4545455 L17.2727273,13.4545455 C17.1636364,13.4545455 17.0909091,13.5272727 17.0909091,13.6363636 L17.0909091,15.4545455 C17.0909091,15.5636364 17.1636364,15.6363636 17.2727273,15.6363636 L18.3636364,15.6363636 C18.4727273,15.6363636 18.5454545,15.5636364 18.5454545,15.4545455 Z M18.5454545,11.8181818 L18.5454545,10 C18.5454545,9.89090909 18.4727273,9.81818182 18.3636364,9.81818182 L17.2727273,9.81818182 C17.1636364,9.81818182 17.0909091,9.89090909 17.0909091,10 L17.0909091,11.8181818 C17.0909091,11.9272727 17.1636364,12 17.2727273,12 L18.3636364,12 C18.4727273,12 18.5454545,11.9272727 18.5454545,11.8181818 Z"/>
</svg>