<svg fill="#000" xmlns="http://www.w3.org/2000/svg" width="24" height="24" viewBox="0 0 24 24">
  <path d="M18.024956,11.5108822 L18.0228346,11.5115294 C18.0228346,11.1872907 17.4707491,10.9129349 16.9634914,10.7383448 L16.7702503,9.5660973 C16.6977849,9.16703431 15.9454934,8.96750282 15.5590113,8.96750282 L14.7860472,8.96750282 C14.3995651,8.96750282 14.0613933,9.19197575 13.9889279,9.59103874 L13.7956868,10.7383448 C13.264274,10.9129349 12.7811714,11.2122321 12.346379,11.5863537 L11.235243,11.1623493 C11.1386225,11.1374078 11.0661571,11.1124664 10.9695366,11.1124664 C10.679675,11.1124664 10.4139686,11.262115 10.2690378,11.5115294 L9.88255574,12.2098896 C9.6893147,12.5590697 9.6893147,13.3143821 10.0033314,13.5637965 L10.8970712,14.336981 C10.8487609,14.6113368 10.8970712,14.8843188 10.8970712,15.1586746 C10.8970712,15.4579719 10.9212263,15.4522764 10.9695366,15.7266322 L10.0757968,16.4998167 C9.78593522,16.7492311 9.6893147,17.1981769 9.88255574,17.5473571 L10.1473826,18.0258903 L5.90792958,18.0258903 C4.87028367,18.0258903 4,17.1933032 4,16.2006032 L4,5.8252871 C4,4.8325871 4.87028367,4 5.94140203,4 L16.1170264,4 C17.1881448,4 18.0584285,4.8325871 18.024956,5.8252871 L18.024956,11.5108822 Z M6,6.10842903 L6,6.71685806 C6,7.03708387 6.30143414,7.3252871 6.63636096,7.3252871 L13.0334632,7.3252871 C13.36839,7.3252871 13.6698241,7.03708387 13.6698241,6.71685806 L13.6698241,6.10842903 C13.6698241,5.78820323 13.36839,5.5 13.0334632,5.5 L6.63636096,5.5 C6.30143414,5.5 6,5.78820323 6,6.10842903 Z M11.2326676,9.71685806 L11.2556179,9.71685806 L11.2556179,9.10842903 C11.2556179,8.78820323 11.0490653,8.5 10.8195623,8.5 L6.43605564,8.5 C6.20655267,8.5 6,8.78820323 6,9.10842903 L6,9.71685806 C6,10.0370839 6.20655267,10.3252871 6.43605564,10.3252871 L10.796612,10.3252871 C11.026115,10.3252871 11.2326676,10.0370839 11.2326676,9.71685806 Z M19.3329612,16.4155675 C19.5636777,16.6203922 19.6405832,16.9890767 19.4675458,17.2143838 L19.1791502,17.7469281 C19.0637919,17.9517528 18.8523017,18.0746477 18.6215852,18.0746477 C18.5446797,18.0746477 18.4677742,18.0541652 18.3908687,18.0336827 L17.5641344,17.6854807 C17.2180596,18.0336827 16.8143057,18.2794724 16.372099,18.4433322 L16.218288,19.4264908 C16.1606088,19.7542103 15.8914396,20 15.5838175,20 L14.9685734,20 C14.641725,20 14.3917821,19.7746928 14.334103,19.4469733 L14.1802919,18.4638146 C13.776538,18.3204373 13.3920104,18.0951301 13.0459356,17.7674106 L12.1615223,18.1156126 C12.1038431,18.1360951 12.0269376,18.1565775 11.9500321,18.1565775 C11.7193156,18.1565775 11.5078254,18.0336827 11.3924672,17.828858 L11.0848451,17.2553488 C10.9310341,16.9685942 11.0079396,16.5999097 11.2386561,16.395085 L11.9500321,15.7601284 C11.9115794,15.5348212 11.892353,15.309514 11.892353,15.0637243 C11.892353,14.8384171 11.9115794,14.5926275 11.9500321,14.3673203 L11.2386561,13.7323637 C10.9887132,13.5275389 10.9310341,13.1588545 11.0848451,12.8720998 L11.3924672,12.2985906 C11.5078254,12.0937659 11.7193156,11.9708711 11.9500321,11.9708711 C12.0269376,11.9708711 12.0846168,11.9913536 12.1615223,12.011836 L13.0459356,12.3600381 C13.3920104,12.052801 13.776538,11.8070113 14.1995183,11.663634 L14.3533293,10.7214403 C14.4110085,10.3937208 14.6801778,10.2093785 14.9877998,10.2093785 L15.6030439,10.2093785 C15.9106659,10.2093785 16.1798352,10.3937208 16.2375144,10.7214403 L16.3913254,11.6841165 C16.7950793,11.8274938 17.1796069,12.052801 17.5256817,12.3805205 L18.410095,12.0323185 C18.4677742,12.011836 18.5446797,11.9913536 18.6215852,11.9913536 C18.8523017,11.9913536 19.0637919,12.1142484 19.1791502,12.3190731 L19.4867722,12.8925823 C19.6405832,13.1793369 19.5636777,13.5480214 19.3329612,13.7528461 L18.6215852,14.3878028 C18.660038,14.6131099 18.6792643,14.8588996 18.6792643,15.0842068 C18.6792643,15.309514 18.660038,15.5553036 18.6215852,15.7806108 L19.3329612,16.4155675 Z M15.3357415,16.825107 C16.3537436,16.825107 17.1714831,16.0073676 17.1714831,14.9893654 C17.1714831,13.9713633 16.3537436,13.1536239 15.3357415,13.1536239 C14.3177394,13.1536239 13.5,13.9713633 13.5,14.9893654 C13.5,16.0073676 14.3177394,16.825107 15.3357415,16.825107 Z"/>
</svg>