<svg fill="#000" xmlns="http://www.w3.org/2000/svg" xmlns:xlink="http://www.w3.org/1999/xlink" width="24" height="24" viewBox="0 0 24 24">
  <circle data-hover-behavior="color" cx="12" cy="12" r="8" fill="#FFF"/>
  <polygon data-hover-behavior="white" points="15.692 14.174 13.464 11.946 15.692 9.718 14.274 8.3 12.046 10.528 9.818 8.3 8.4 9.718 10.628 11.946 8.4 14.174 9.818 15.592 12.046 13.364 14.274 15.592"/>
  <path data-hover-behavior="color" d="M12,20.5 C7.30557963,20.5 3.5,16.6944204 3.5,12 C3.5,7.30557963 7.30557963,3.5 12,3.5 C16.6944204,3.5 20.5,7.30557963 20.5,12 C20.5,16.6944204 16.6944204,20.5 12,20.5 Z M12,19.5 C16.1421356,19.5 19.5,16.1421356 19.5,12 C19.5,7.85786438 16.1421356,4.5 12,4.5 C7.85786438,4.5 4.5,7.85786438 4.5,12 C4.5,16.1421356 7.85786438,19.5 12,19.5 Z"/>
</svg>