<svg fill="#000" xmlns="http://www.w3.org/2000/svg" xmlns:xlink="http://www.w3.org/1999/xlink" width="24" height="24" viewBox="0 0 24 24">
  <path d="M13.0502564,7.59384615 C16.4635897,7.59384615 19.2533333,10.3507692 19.2533333,13.7969231 C19.2533333,17.2430769 16.4635897,20 13.0502564,20 L10.3589744,20 C10.0964103,20 9.93230769,19.8030769 9.93230769,19.5405128 L9.93230769,18.4902564 C9.93230769,18.2276923 10.1292308,17.9979487 10.3917949,17.9979487 L13.0502564,17.9979487 C15.3805128,17.9979487 17.2512821,16.1271795 17.2512821,13.7969231 C17.2512821,11.4666667 15.3805128,9.59589744 13.0502564,9.59589744 L8.48820513,9.59589744 C8.48820513,9.59589744 8.22564103,9.59589744 8.12717949,9.62871795 C7.86461538,9.76 7.93025641,9.95692308 8.16,10.1866667 L9.76820513,11.7948718 C9.96512821,11.9917949 9.93230769,12.2871795 9.73538462,12.4841026 L9.01333333,13.2061538 C8.81641026,13.4030769 8.58666667,13.4030769 8.38974359,13.2389744 L4.12307692,8.97230769 C3.95897436,8.80820513 3.95897436,8.54564103 4.12307692,8.38153846 L8.35692308,4.14769231 C8.55384615,3.95076923 8.88205128,3.95076923 9.04615385,4.14769231 L9.73538462,4.83692308 C9.93230769,5.03384615 9.93230769,5.36205128 9.73538462,5.52615385 L8.12717949,7.13435897 C7.93025641,7.33128205 7.93025641,7.56102564 8.25846154,7.56102564 L8.48820513,7.56102564 L13.0502564,7.59384615 L13.0502564,7.59384615 Z"/>
</svg>