<svg fill="#000" xmlns="http://www.w3.org/2000/svg" xmlns:xlink="http://www.w3.org/1999/xlink" width="24" height="24" viewBox="0 0 24 24">
  <path d="M8.90152484,12.9352505 C8.46994403,12.2878793 8.25415363,11.5480265 8.25415363,10.7156921 C8.25415363,9.29764088 8.83987044,8.12620727 9.76468644,7.41718167 C9.45641444,6.86229206 8.83987044,6.46153846 8.03836323,6.46153846 C6.68196642,6.46153846 5.91128641,7.57131767 5.91128641,8.83523288 C5.91128641,9.51343128 6.12707682,10.0991481 6.58948482,10.4999017 C6.83610242,10.7465193 7.05189282,11.0547913 7.05189282,11.3630633 C7.05189282,11.6713353 6.92858402,11.9796073 6.15790402,12.3187065 C5.04812481,12.8119417 4.0308272,13.4901401 4,14.5074377 C4.0308272,15.1856361 4.462408,15.7096985 5.10977921,15.7096985 L6.12707682,15.7096985 C6.28121282,15.7096985 6.43534882,15.6172169 6.52783042,15.4630809 C7.02106562,14.5690921 7.94588163,14.0142025 8.71656163,13.6134489 C8.99400644,13.4901401 9.05566084,13.1510409 8.90152484,12.9352505 L8.90152484,12.9352505 Z M17.9030673,12.3187065 C17.1323873,11.9796073 17.0090785,11.7021625 17.0090785,11.3630633 C17.0090785,11.0239641 17.2248689,10.7156921 17.4714865,10.4999017 C17.9338945,10.0683209 18.1496849,9.51343128 18.1496849,8.83523288 C18.1496849,7.57131767 17.4098321,6.46153846 16.0226081,6.46153846 C15.2211009,6.46153846 14.6045569,6.86229206 14.2654577,7.41718167 C15.1902737,8.12620727 15.7759905,9.29764088 15.7759905,10.7156921 C15.7759905,11.5480265 15.5602001,12.2878793 15.1286193,12.9352505 C14.9744833,13.1818681 15.0669649,13.4901401 15.3135825,13.6134489 C16.0842625,13.9833753 17.0090785,14.5690921 17.5023137,15.4630809 C17.5947953,15.6172169 17.7489313,15.7096985 17.9030673,15.7096985 L18.9203649,15.7096985 C19.5677361,15.7096985 19.9993169,15.1856361 19.9993169,14.5074377 C20.0301441,13.4901401 19.0128465,12.8119417 17.9030673,12.3187065 L17.9030673,12.3187065 Z M14.0804945,14.5690921 C13.2481601,14.1991657 13.0940241,13.8600665 13.0940241,13.5209673 C13.0940241,13.1510409 13.3406417,12.8119417 13.6180865,12.5653241 C14.1113217,12.1029161 14.3887665,11.4555449 14.3887665,10.7156921 C14.3887665,9.32846808 13.5564321,8.12620727 12.0458993,8.12620727 C10.5353664,8.12620727 9.70303204,9.32846808 9.70303204,10.7156921 C9.70303204,11.4555449 9.98047684,12.1029161 10.473712,12.5653241 C10.7511568,12.8427689 10.9977745,13.1818681 10.9977745,13.5209673 C10.9977745,13.8908937 10.8744657,14.1991657 10.011304,14.5690921 C8.77821604,15.0931545 7.60678243,15.6788713 7.57595523,16.7886505 C7.57595523,17.5285033 8.13084483,18.1450473 8.83987044,18.1450473 L15.2519281,18.1450473 C15.9609537,18.1450473 16.5158433,17.5285033 16.5158433,16.7886505 C16.4850161,15.7096985 15.3135825,15.1239817 14.0804945,14.5690921 Z"/>
</svg>