<svg fill="#000" xmlns="http://www.w3.org/2000/svg" xmlns:xlink="http://www.w3.org/1999/xlink" width="24" height="24" viewBox="0 0 24 24">
  <path d="M16.9047024,13.6665403 L12.3949728,18.2096753 C12.1945404,18.4101078 11.8604864,18.4101078 11.6600539,18.2096753 L7.15032432,13.6665403 C6.94989189,13.4661079 6.94989189,13.1320539 7.15032432,12.9316214 L7.88524322,12.1967025 C8.08567565,11.9962701 8.41972969,11.9962701 8.62016212,12.1967025 L11.6600539,15.3368106 C11.8604864,15.537243 12.1945404,15.537243 12.3949728,15.3368106 L15.4348646,12.2301079 C15.6352971,12.0296755 15.9693511,12.0296755 16.1697835,12.2301079 L16.9047024,12.9650268 C17.0717294,13.1654593 17.0717294,13.4661079 16.9047024,13.6665403 Z M16.9047024,7.62016212 L12.3949728,12.2301079 C12.1945404,12.4305404 11.8604864,12.4305404 11.6600539,12.2301079 L7.15032432,7.62016212 C6.94989189,7.41972969 6.94989189,7.08567565 7.15032432,6.88524322 L7.88524322,6.15032432 C8.08567565,5.94989189 8.41972969,5.94989189 8.62016212,6.15032432 L11.6600539,9.29043234 C11.8604864,9.49086477 12.1945404,9.49086477 12.3949728,9.29043234 L15.4348646,6.18372972 C15.6352971,5.9832973 15.9693511,5.9832973 16.1697835,6.18372972 L16.9047024,6.91864862 C17.0717294,7.11908105 17.0717294,7.45313509 16.9047024,7.62016212 L16.9047024,7.62016212 Z"/>
</svg>