<svg fill="#000" xmlns="http://www.w3.org/2000/svg" xmlns:xlink="http://www.w3.org/1999/xlink" width="24" height="24" viewBox="0 0 24 24">
  <path d="M12.3720019,16.7720019 L11.725848,16.6796942 C11.725848,16.6796942 11.2950788,16.5873865 11.0796942,16.4950788 C10.9566173,16.4643096 10.8027711,16.4950788 10.7104634,16.5873865 L10.5566173,16.7412326 C9.66430957,17.6335403 8.21815572,17.725848 7.2950788,16.925848 C6.24892496,16.0335403 6.21815572,14.4335403 7.17200188,13.4796942 L9.51046342,11.1412326 C9.81815572,10.8335403 10.1873865,10.648925 10.5566173,10.525848 C11.048925,10.4027711 11.5720019,10.4335403 12.0335403,10.6181557 C12.3104634,10.7412326 12.5873865,10.8950788 12.8335403,11.1412326 C12.9566173,11.2643096 13.048925,11.3873865 13.1412326,11.5412326 C13.2643096,11.7566173 13.5412326,11.7873865 13.6950788,11.6027711 L14.5566173,10.7412326 C14.6796942,10.6181557 14.6796942,10.4335403 14.5873865,10.2796942 C14.4643096,10.0950788 14.3104634,9.94123265 14.1566173,9.78738649 C13.9412326,9.57200188 13.6950788,9.35661726 13.4181557,9.20277111 C12.9873865,8.92584803 12.4950788,8.74123265 11.9720019,8.64892496 C11.0181557,8.46430957 9.97200188,8.61815572 9.11046342,9.07969419 C8.77200188,9.26430957 8.43354034,9.51046342 8.15661726,9.78738649 L5.91046342,12.0335403 C4.27969419,13.6643096 4.15661726,16.3104634 5.72584803,17.9720019 C7.35661726,19.7566173 10.125848,19.7873865 11.8181557,18.0950788 L12.5873865,17.325848 C12.8027711,17.1720019 12.648925,16.8027711 12.3720019,16.7720019 L12.3720019,16.7720019 Z M18.0335403,5.72584803 C16.3412326,4.15661726 13.6950788,4.27969419 12.0950788,5.91046342 L11.3873865,6.58738649 C11.1720019,6.80277111 11.325848,7.17200188 11.6027711,7.20277111 C12.0335403,7.23354034 12.4643096,7.32584803 12.8950788,7.44892496 C13.0181557,7.47969419 13.1720019,7.44892496 13.2643096,7.35661726 L13.4181557,7.20277111 C14.3104634,6.31046342 15.7566173,6.21815572 16.6796942,7.01815572 C17.725848,7.91046342 17.7566173,9.51046342 16.8027711,10.4643096 L14.4643096,12.8027711 C14.1566173,13.1104634 13.7873865,13.2950788 13.4181557,13.4181557 C12.925848,13.5412326 12.4027711,13.5104634 11.9412326,13.325848 C11.6643096,13.2027711 11.3873865,13.048925 11.1412326,12.8027711 C11.0181557,12.6796942 10.925848,12.5566173 10.8335403,12.4027711 C10.7104634,12.1873865 10.4335403,12.1566173 10.2796942,12.3412326 L9.41815572,13.2027711 C9.2950788,13.325848 9.2950788,13.5104634 9.38738649,13.6643096 C9.51046342,13.848925 9.66430957,14.0027711 9.81815572,14.1566173 C10.0335403,14.3720019 10.3104634,14.5873865 10.5566173,14.7412326 C10.9873865,15.0181557 11.4796942,15.2027711 11.9720019,15.2950788 C12.925848,15.4796942 13.9720019,15.325848 14.8335403,14.8643096 C15.1720019,14.6796942 15.5104634,14.4335403 15.7873865,14.1566173 L18.125848,11.8181557 C19.848925,10.125848 19.7873865,7.35661726 18.0335403,5.72584803 L18.0335403,5.72584803 Z"/>
</svg>
