<svg fill="#000" xmlns="http://www.w3.org/2000/svg" xmlns:xlink="http://www.w3.org/1999/xlink" width="24" height="24" viewBox="0 0 24 24">
  <path d="M17.1666667,9.33333333 C16.7,9.33333333 16.3333333,9.66666667 16.3333333,10.1333333 L16.3333333,11.4666667 C16.3333333,13.8 14.3666667,15.7333333 11.9666667,15.7333333 C9.56666667,15.7333333 7.6,13.8 7.6,11.4666667 L7.6,10.1333333 C7.6,9.66666667 7.23333333,9.33333333 6.76666667,9.33333333 C6.3,9.33333333 6,9.66666667 6,10.1333333 L6,11.4666667 C6,14.4333333 8.26666667,16.8666667 11.1666667,17.2666667 L11.1666667,18.4 L9.8,18.4 C9.33333333,18.4 8.96666667,18.7333333 8.96666667,19.2 C8.96666667,19.6666667 9.33333333,20 9.8,20 L14.1666667,20 C14.6333333,20 15,19.6666667 15,19.2 C15,18.7333333 14.6333333,18.4 14.1666667,18.4 L12.8,18.4 L12.8,17.2666667 C15.7333333,16.8666667 18,14.4333333 18,11.4666667 L18,10.1333333 C18,9.66666667 17.6333333,9.33333333 17.1666667,9.33333333 Z M12,14.1333333 C13.4666667,14.1333333 14.6666667,12.9333333 14.6666667,11.4666667 L14.6666667,6.63333333 C14.6666667,5.16666667 13.5,4 12.0333333,4 L11.9666667,4 C10.5,4 9.33333333,5.16666667 9.33333333,6.63333333 L9.33333333,11.4666667 C9.33333333,12.9333333 10.5333333,14.1333333 12,14.1333333 Z"/>
</svg>