<svg fill="#000" xmlns="http://www.w3.org/2000/svg" xmlns:xlink="http://www.w3.org/1999/xlink" width="24" height="24" viewBox="0 0 24 24">
  <path d="M4,6 C4,4.8954305 4.88772964,4 6,4 C7.1045695,4 8,4.88772964 8,6 C8,7.1045695 7.11227036,8 6,8 C4.8954305,8 4,7.11227036 4,6 Z M4,12 C4,10.8954305 4.88772964,10 6,10 C7.1045695,10 8,10.8877296 8,12 C8,13.1045695 7.11227036,14 6,14 C4.8954305,14 4,13.1122704 4,12 Z M10,6 C10,4.8954305 10.8877296,4 12,4 C13.1045695,4 14,4.88772964 14,6 C14,7.1045695 13.1122704,8 12,8 C10.8954305,8 10,7.11227036 10,6 Z M10,12 C10,10.8954305 10.8877296,10 12,10 C13.1045695,10 14,10.8877296 14,12 C14,13.1045695 13.1122704,14 12,14 C10.8954305,14 10,13.1122704 10,12 Z M16,6 C16,4.8954305 16.8877296,4 18,4 C19.1045695,4 20,4.88772964 20,6 C20,7.1045695 19.1122704,8 18,8 C16.8954305,8 16,7.11227036 16,6 Z M16,12 C16,10.8954305 16.8877296,10 18,10 C19.1045695,10 20,10.8877296 20,12 C20,13.1045695 19.1122704,14 18,14 C16.8954305,14 16,13.1122704 16,12 Z M4,18 C4,16.8954305 4.88772964,16 6,16 C7.1045695,16 8,16.8877296 8,18 C8,19.1045695 7.11227036,20 6,20 C4.8954305,20 4,19.1122704 4,18 Z M10,18 C10,16.8954305 10.8877296,16 12,16 C13.1045695,16 14,16.8877296 14,18 C14,19.1045695 13.1122704,20 12,20 C10.8954305,20 10,19.1122704 10,18 Z M16,18 C16,16.8954305 16.8877296,16 18,16 C19.1045695,16 20,16.8877296 20,18 C20,19.1045695 19.1122704,20 18,20 C16.8954305,20 16,19.1122704 16,18 Z"/>
</svg>