<svg fill="#000" xmlns="http://www.w3.org/2000/svg" xmlns:xlink="http://www.w3.org/1999/xlink" width="24" height="24" viewBox="0 0 24 24">
  <path d="M18.6666667,14.3351849 L18.5,14.3351849 C17.8666667,14.3351849 17.3333333,13.8020259 17.3333333,13.1688995 L17.3333333,9.33681872 C17.3333333,6.30447655 14.8,3.87193832 11.7333333,4.00522808 C8.86666667,4.13851785 6.66666667,6.60437852 6.66666667,9.50343093 L6.66666667,13.2022219 C6.66666667,13.8353483 6.13333333,14.3351849 5.5,14.3351849 L5.33333333,14.3351849 C4.6,14.3351849 4,14.9683113 4,15.701405 L4,16.2012417 C4,16.4344988 4.23333333,16.6677559 4.5,16.6677559 L19.5,16.6677559 C19.7666667,16.6677559 20,16.4344988 20,16.1679192 L20,15.6680826 C20,14.9349889 19.4,14.3351849 18.6666667,14.3351849 Z M13.6333333,18.0006535 L10.3666667,18.0006535 C10.1666667,18.0006535 10,18.2005882 10.0333333,18.4005228 C10.2,19.3335512 11.0333333,20 12,20 C12.9666667,20 13.8,19.3002287 13.9666667,18.4005228 C14,18.2005882 13.8333333,18.0006535 13.6333333,18.0006535 Z"/>
</svg>