<svg fill="#000" xmlns="http://www.w3.org/2000/svg" xmlns:xlink="http://www.w3.org/1999/xlink" width="24" height="24" viewBox="0 0 24 24">
  <circle cx="12" cy="12" r="8" fill="#fff"></circle>
  <path d="M12,3 C7.032,3 3,7.032 3,12 C3,16.968 7.032,21 12,21 C16.968,21 21,16.968 21,12 C21,7.032 16.968,3 12,3 L12,3 Z M12.9,18.3 L11.1,18.3 L11.1,16.5 L12.9,16.5 L12.9,18.3 L12.9,18.3 Z M14.763,11.325 L13.953,12.153 C13.305,12.81 12.9,13.35 12.9,14.7 L11.1,14.7 L11.1,14.25 C11.1,13.26 11.505,12.36 12.153,11.703 L13.269,10.569 C13.602,10.245 13.8,9.795 13.8,9.3 C13.8,8.31 12.99,7.5 12,7.5 C11.01,7.5 10.2,8.31 10.2,9.3 L8.4,9.3 C8.4,7.311 10.011,5.7 12,5.7 C13.989,5.7 15.6,7.311 15.6,9.3 C15.6,10.092 15.276,10.812 14.763,11.325 L14.763,11.325 Z"/>
</svg>