<svg fill="#000" xmlns="http://www.w3.org/2000/svg" xmlns:xlink="http://www.w3.org/1999/xlink" width="24" height="24" viewBox="0 0 24 24">
  <path d="M10.5,6.36666667 C10.5666667,6.56666667 10.7666667,6.66666667 10.9666667,6.66666667 L13.6666667,6.66666667 C13.8666667,6.66666667 14.0666667,6.56666667 14.1333333,6.36666667 L15.2,4.4 C15.2666667,4.2 15.1333333,4 14.9333333,4 L9.73333333,4 C9.53333333,4 9.4,4.2 9.5,4.36666667 L10.5,6.36666667 L10.5,6.36666667 Z M13.9,8.23333333 L10.7666667,8.23333333 C8.13333333,8.23333333 6,10.4 6,13.0666667 L6,18.4 C6,19.2666667 6.7,20 7.6,20 L17.0666667,20 C17.9333333,20 18.6666667,19.2666667 18.6666667,18.4 L18.6666667,13.0666667 C18.6666667,10.4 16.5,8.23333333 13.9,8.23333333 L13.9,8.23333333 Z M13.1333333,17.2333333 L13.1333333,18.1333333 C13.1333333,18.3 12.9666667,18.4 12.8,18.4 L11.7333333,18.4 C11.5666667,18.4 11.5333333,18.3 11.5333333,18.1333333 L11.5333333,17.2666667 C10.7333333,17.1 10.0666667,16.7666667 9.9,16.6 C9.7,16.4 9.63333333,16.2333333 9.8,16 L10.1333333,15.4666667 C10.2,15.3333333 10.3666667,15.2666667 10.5333333,15.2666667 C10.6333333,15.2666667 10.7333333,15.3 10.8,15.3333333 L10.8333333,15.3333333 C11.3666667,15.6666667 11.8333333,15.8 12.1666667,15.8 C12.5333333,15.8 12.8333333,15.6 12.8333333,15.4 C12.8333333,15.2333333 12.7333333,14.9666667 11.7333333,14.6333333 C10.8333333,14.3 9.73333333,13.7666667 9.73333333,12.5333333 C9.73333333,11.8 10.2,10.9666667 11.5333333,10.7 L11.5333333,9.9 C11.5333333,9.73333333 11.6,9.63333333 11.7333333,9.63333333 L12.8,9.63333333 C12.9666667,9.63333333 13.1333333,9.73333333 13.1333333,9.9 L13.1333333,10.6666667 C13.6666667,10.8 14.2333333,11.0666667 14.4333333,11.2 C14.5333333,11.2666667 14.6,11.4 14.6333333,11.5333333 C14.6666667,11.6666667 14.6,11.8 14.5333333,11.8666667 L14.0666667,12.3333333 C13.9666667,12.4666667 13.7666667,12.5666667 13.6333333,12.5666667 C13.5666667,12.5666667 13.4666667,12.5333333 13.4,12.5 C12.8666667,12.2 12.4333333,12.0333333 12.1333333,12.0333333 C11.7,12.0333333 11.5,12.2333333 11.5,12.3666667 C11.5,12.5666667 11.6,12.7666667 12.5,13.1 C13.6,13.4666667 14.8333333,14.0666667 14.8333333,15.3333333 C14.8666667,16.2 14.1666667,16.9666667 13.1333333,17.2333333 L13.1333333,17.2333333 Z"/>
</svg>