<svg fill="#000" xmlns="http://www.w3.org/2000/svg" xmlns:xlink="http://www.w3.org/1999/xlink" width="24" height="24" viewBox="0 0 24 24">
  <path d="M8.22357258,12.9621892 L8.22357258,14.0235011 C8.22357258,14.2200403 8.05682015,14.3379639 7.89006771,14.3379639 L6.82285214,14.3379639 C6.65609971,14.3379639 6.62274922,14.2200403 6.62274922,14.0235011 L6.62274922,13.0014971 C5.82233754,12.8049578 5.15532781,12.4118793 4.98857538,12.2153401 C4.78847246,11.979493 4.72177148,11.7829538 4.88852392,11.5077989 L5.22202878,10.8788733 C5.28872976,10.7216419 5.45548219,10.6430262 5.62223462,10.6430262 C5.72228608,10.6430262 5.82233754,10.6823341 5.88903852,10.7216419 L5.922389,10.7216419 C6.45599679,11.1147204 6.9229036,11.2719518 7.25640847,11.2719518 C7.62326382,11.2719518 7.9234182,11.0361047 7.9234182,10.8002576 C7.9234182,10.6037184 7.82336674,10.2892556 6.82285214,9.89617711 C5.922389,9.50309864 4.82182294,8.87417308 4.82182294,7.41978273 C4.82182294,6.55501008 5.28872976,5.5723139 6.62274922,5.25785112 L6.62274922,4.31446278 C6.62274922,4.11792354 6.68945019,4 6.82285214,4 L7.89006771,4 C8.05682015,4 8.22357258,4.11792354 8.22357258,4.31446278 L8.22357258,5.21854327 C8.75718037,5.37577466 9.32413864,5.69023744 9.52424156,5.84746883 C9.62429302,5.92608452 9.69099399,6.08331591 9.72434448,6.2405473 C9.75769497,6.39777869 9.69099399,6.55501008 9.62429302,6.63362578 L9.15738621,7.18393564 C9.05733475,7.34116703 8.85723183,7.45909057 8.72382988,7.45909057 C8.65712891,7.45909057 8.55707745,7.41978273 8.49037647,7.38047488 C7.95676869,7.02670425 7.52321236,6.83016501 7.22305798,6.83016501 C6.78950165,6.83016501 6.58939873,7.0660121 6.58939873,7.22324349 C6.58939873,7.45909057 6.68945019,7.69493766 7.58991333,8.08801613 C8.69047939,8.52040245 9.9244474,9.22794371 9.9244474,10.7216419 C9.95779789,11.7436459 9.25743767,12.6477264 8.22357258,12.9621892 Z M4,18.9927106 L4,16.8918261 L20,7.912527 L20,18.9927106 L4,18.9927106 Z"/>
</svg>