<svg fill="#000" xmlns="http://www.w3.org/2000/svg" xmlns:xlink="http://www.w3.org/1999/xlink" width="24" height="24" viewBox="0 0 24 24">
  <path d="M18.3980695,4.00253203 C19.2775444,4.00253203 19.9971147,4.72210238 19.9971147,5.60157724 L19.9971147,11.1982355 C20.0237655,11.571346 19.863861,11.9977581 19.5973534,12.2642656 L12.3749993,19.5132705 C11.7353812,20.1262378 10.7226525,20.1262378 10.1096852,19.5132705 L4.4597255,13.8633108 C3.84675817,13.2236927 3.84675817,12.2109641 4.4597255,11.5979968 L11.6021274,4.42894409 C11.8686349,4.16243655 12.188444,3.97588128 12.5615545,4.00253203 L18.3980695,4.00253203 Z M12.6415068,15.7288635 C12.8547128,15.5156575 12.8547128,15.1958485 12.6415068,14.9826424 L9.01700433,11.35814 C8.8037983,11.1449339 8.48398926,11.1449339 8.27078323,11.35814 L7.89767269,11.7312505 C7.68446666,11.9444565 7.68446666,12.2642656 7.89767269,12.4774716 L11.5221752,16.1019741 C11.7353812,16.3151801 12.0551902,16.3151801 12.2683962,16.1019741 L12.6415068,15.7288635 Z M14.7735671,13.5968033 C14.9867731,13.3835972 14.9867731,13.0637882 14.7735671,12.8505822 L11.1490646,9.2260797 C10.9358586,9.01287367 10.6160495,9.01287367 10.4028435,9.2260797 L10.029733,9.59919025 C9.81652693,9.81239628 9.81652693,10.1322053 10.029733,10.3454113 L13.6542354,13.9699138 C13.8674415,14.1831198 14.1872505,14.1831198 14.4004565,13.9699138 L14.7735671,13.5968033 Z M16.2660093,9.06617518 C17.0122304,9.06617518 17.5985469,8.47985861 17.5985469,7.73363751 C17.5985469,6.98741641 17.0122304,6.40109984 16.2660093,6.40109984 C15.5197882,6.40109984 14.9334716,6.98741641 14.9334716,7.73363751 C14.9334716,8.47985861 15.5197882,9.06617518 16.2660093,9.06617518 Z"/>
</svg>