<svg fill="#000" xmlns="http://www.w3.org/2000/svg" xmlns:xlink="http://www.w3.org/1999/xlink" width="24" height="24" viewBox="0 0 24 24">
  <path d="M18.6,7.43333333 C18.8666667,7.7 19,8.03333333 19,8.4 L19,18.6666667 C19,19.4 18.4,20 17.6666667,20 L6.33333333,20 C5.6,20 5,19.4 5,18.6666667 L5,8.4 C5,8.03333333 5.13333333,7.7 5.4,7.43333333 L8.6,4.36666667 C8.86666667,4.13333333 9.2,4 9.53333333,4 L14.4666667,4 C14.8,4 15.1333333,4.13333333 15.4,4.36666667 L18.6,7.43333333 Z M17,17.5 L17,9.16666667 C17,8.9 16.7666667,8.66666667 16.5,8.66666667 L7.5,8.66666667 C7.23333333,8.66666667 7,8.9 7,9.16666667 L7,17.5 C7,17.7666667 7.23333333,18 7.5,18 L16.5,18 C16.7666667,18 17,17.7666667 17,17.5 Z M12,5 C11.2666667,5 10.6666667,5.6 10.6666667,6.33333333 C10.6666667,7.06666667 11.2666667,7.66666667 12,7.66666667 C12.7333333,7.66666667 13.3333333,7.06666667 13.3333333,6.33333333 C13.3333333,5.6 12.7333333,5 12,5 Z M15,11 L9,11 C8.8,11 8.66666667,11.1333333 8.66666667,11.3333333 L8.66666667,12.3333333 C8.66666667,12.5333333 8.8,12.6666667 9,12.6666667 L15,12.6666667 C15.2,12.6666667 15.3333333,12.5333333 15.3333333,12.3333333 L15.3333333,11.3333333 C15.3333333,11.1333333 15.2,11 15,11 Z M14.3333333,14 L9.66666667,14 C9.46666667,14 9.33333333,14.1333333 9.33333333,14.3333333 L9.33333333,15.3333333 C9.33333333,15.5333333 9.46666667,15.6666667 9.66666667,15.6666667 L14.3333333,15.6666667 C14.5333333,15.6666667 14.6666667,15.5333333 14.6666667,15.3333333 L14.6666667,14.3333333 C14.6666667,14.1333333 14.5333333,14 14.3333333,14 Z"/>
</svg>