<svg fill="#000" xmlns="http://www.w3.org/2000/svg" xmlns:xlink="http://www.w3.org/1999/xlink" width="24" height="24" viewBox="0 0 24 24">
  <path d="M12,24 C5.372583,24 0,18.627417 0,12 C0,5.372583 5.372583,0 12,0 C18.627417,0 24,5.372583 24,12 C24,18.627417 18.627417,24 12,24 Z M14.2758621,12.3448276 C14.137931,12.1609195 14.137931,11.8850575 14.2758621,11.7011494 L17.862069,8.11494253 C18.045977,7.93103448 18.045977,7.65517241 17.862069,7.47126437 L16.5747126,6.18390805 C16.3908046,6 16.1149425,6 15.9310345,6.18390805 L12.3448276,9.77011494 C12.1609195,9.95402299 11.8850575,9.95402299 11.7011494,9.77011494 L8.06896552,6.13793103 C7.88505747,5.95402299 7.6091954,5.95402299 7.42528736,6.13793103 L6.13793103,7.42528736 C5.95402299,7.6091954 5.95402299,7.88505747 6.13793103,8.06896552 L9.77011494,11.7011494 C9.95402299,11.8850575 9.95402299,12.1609195 9.77011494,12.3448276 L6.18390805,15.9310345 C6,16.1149425 6,16.3908046 6.18390805,16.5747126 L7.47126437,17.862069 C7.65517241,18.045977 7.93103448,18.045977 8.11494253,17.862069 L11.7011494,14.2758621 C11.8850575,14.091954 12.1609195,14.091954 12.3448276,14.2758621 L15.9310345,17.862069 C16.1149425,18.045977 16.3908046,18.045977 16.5747126,17.862069 L17.862069,16.5747126 C18.045977,16.3908046 18.045977,16.1149425 17.862069,15.9310345 L14.2758621,12.3448276 Z"/>
</svg>