<svg fill="#000" xmlns="http://www.w3.org/2000/svg" xmlns:xlink="http://www.w3.org/1999/xlink" width="24" height="24" viewBox="0 0 24 24">
  <path d="M19.8501551,18.4182454 L15.3879421,13.9893325 C16.2870447,12.7239288 16.753246,11.1255242 16.5201454,9.42721926 C16.1205442,6.56341093 13.7895374,4.29900435 10.892429,4.03260357 C6.96301758,3.63300241 3.6330079,6.96301209 4.03260906,10.9257236 C4.29900983,13.7895319 6.56341642,16.1538388 9.42722475,16.55344 C11.1255297,16.7865407 12.7239343,16.3203393 13.989338,15.4212367 L18.4182509,19.8501496 C18.6180515,20.0499501 18.9177523,20.0499501 19.1175529,19.8501496 L19.816855,19.1508475 C20.0166555,18.9510469 20.0166555,18.618046 19.8501551,18.4182454 L19.8501551,18.4182454 Z M5.99731477,10.2930218 C5.99731477,7.9287149 7.92872039,5.99730928 10.2930273,5.99730928 C12.6573341,5.99730928 14.5887398,7.9287149 14.5887398,10.2930218 C14.5887398,12.6573286 12.6573341,14.5887343 10.2930273,14.5887343 C7.92872039,14.5887343 5.99731477,12.6906287 5.99731477,10.2930218 L5.99731477,10.2930218 Z"/>
</svg>