<svg fill="#000" xmlns="http://www.w3.org/2000/svg" xmlns:xlink="http://www.w3.org/1999/xlink" width="24" height="24" viewBox="0 0 24 24">
  <path d="M11.4965035,13.7933987 C11.3046953,13.601155 11.016983,13.601155 10.8251748,13.7933987 L9.67432567,14.9468612 C9.48251748,15.1391049 9.13086913,15.0109424 9.13086913,14.7225768 L9.13086913,10.4932146 C9.13086913,10.2368896 8.90709291,10.0126052 8.65134865,10.0126052 L7.69230769,10.0126052 C7.43656344,10.0126052 7.21278721,10.2368896 7.21278721,10.4932146 L7.21278721,14.7225768 C7.21278721,15.0109424 6.86113886,15.1391049 6.66933067,14.9468612 L5.51848152,13.7933987 C5.32667333,13.601155 5.03896104,13.601155 4.84715285,13.7933987 L4.14385614,14.4982925 C3.95204795,14.6905362 3.95204795,14.9789018 4.14385614,15.1711455 L7.82017982,18.8558172 C8.01198801,19.0480609 8.2997003,19.0480609 8.49150849,18.8558172 L12.1998002,15.1391049 C12.3916084,14.9468612 12.3916084,14.6584956 12.1998002,14.4662518 L11.4965035,13.7933987 L11.4965035,13.7933987 Z M20,5.50126052 C20,5.23392158 19.7762238,5 19.5204795,5 L7.69230769,5 C7.43656344,5 7.21278721,5.23392158 7.21278721,5.50126052 L7.21278721,6.50378157 C7.21278721,6.77112051 7.43656344,7.00504209 7.69230769,7.00504209 L19.5204795,7.00504209 C19.7762238,7.00504209 20,6.77112051 20,6.50378157 L20,5.50126052 Z M20,10.5138657 C20,10.2465268 19.7762238,10.0126052 19.5204795,10.0126052 L10.8891109,10.0126052 C10.6333666,10.0126052 10.4095904,10.2465268 10.4095904,10.5138657 L10.4095904,11.5163868 C10.4095904,11.7837257 10.6333666,12.0176473 10.8891109,12.0176473 L19.5204795,12.0176473 C19.7762238,12.0176473 20,11.7837257 20,11.5163868 L20,10.5138657 Z M19.9979893,15.526471 C19.9979893,15.259132 19.7742834,15.0252104 19.5186196,15.0252104 L14.0857633,15.0252104 C13.8300995,15.0252104 13.6063936,15.259132 13.6063936,15.526471 L13.6063936,16.528992 C13.6063936,16.7963309 13.8300995,17.0302525 14.0857633,17.0302525 L19.5186196,17.0302525 C19.7742834,17.0302525 19.9979893,16.7963309 19.9979893,16.528992 L19.9979893,15.526471 Z"/>
</svg>