<svg xmlns="http://www.w3.org/2000/svg" width="24" height="24" viewBox="0 0 24 24">
  <polygon points="12,5 19,18 5,18" fill="#fff"></polygon>
  <path fill="#F2A515" d="M19.7658862,16.9416 C20.3407953,17.9773333 19.8198528,18.8957333 18.6083586,18.8946667 L14.2029254,18.8946667 L9.79749209,18.8946667 L5.39205882,18.8946667 C4.18056467,18.8946667 3.65962218,17.9762667 4.23342986,16.9405333 L6.55068777,12.7346667 C7.12449545,11.7021333 8.06505546,9.99333333 8.63886314,8.95866667 L10.956121,4.7752 C11.5299287,3.7416 12.4704887,3.7416 13.0442964,4.7752 L15.360453,8.9416 C15.9342606,9.97413333 16.8748206,11.6637333 17.4486283,12.6973333 L19.7658862,16.9416 Z M11,13.2666667 L13.2027166,13.2666667 L13.2027166,9 L11,9 L11,13.2666667 Z M11,16.4666667 L13.2027166,16.4666667 L13.2027166,14.3333333 L11,14.3333333 L11,16.4666667 Z"/>
</svg>