<svg xmlns="http://www.w3.org/2000/svg" width="24" height="24" viewBox="0 0 24 24">
  <circle cx="12" cy="12" r="7" fill="#fff"></circle>
  <path fill="#62A70F" d="M12,20 C7.581722,20 4,16.418278 4,12 C4,7.581722 7.581722,4 12,4 C16.418278,4 20,7.581722 20,12 C20,16.418278 16.418278,20 12,20 Z M10.0329435,16.5 L16.6019304,8.73665177 C16.7250164,8.50368683 16.6347559,7.9767208 16.0047498,7.54229051 C15.8097749,7.42984142 15.2299414,7.51355121 14.8103885,8.13947114 L10.0329435,13.5140968 L8.83858219,11.7225549 C8.38097404,11.5637037 7.79933533,11.5010136 7.64422092,11.7225549 C6.99746097,12.0744441 6.92994611,12.604729 7.04704029,12.9169162 L10.0329435,16.5 Z"/>
</svg>