<svg fill="#000" xmlns="http://www.w3.org/2000/svg" xmlns:xlink="http://www.w3.org/1999/xlink" width="24" height="24" viewBox="0 0 24 24">
  <circle data-hover-behavior="color" cx="12" cy="12" r="8" fill="#FFF"/>
  <path data-hover-behavior="white" d="M7.71428571,12.7142857 L16.2857143,12.7142857 C16.6802034,12.7142857 17,12.3944891 17,12 C17,11.6055109 16.6802034,11.2857143 16.2857143,11.2857143 L7.71428571,11.2857143 C7.31979661,11.2857143 7,11.6055109 7,12 C7,12.3944891 7.31979661,12.7142857 7.71428571,12.7142857 Z"/>
  <path data-hover-behavior="color" d="M12,20.5 C7.30557963,20.5 3.5,16.6944204 3.5,12 C3.5,7.30557963 7.30557963,3.5 12,3.5 C16.6944204,3.5 20.5,7.30557963 20.5,12 C20.5,16.6944204 16.6944204,20.5 12,20.5 Z M12,19.5 C16.1421356,19.5 19.5,16.1421356 19.5,12 C19.5,7.85786438 16.1421356,4.5 12,4.5 C7.85786438,4.5 4.5,7.85786438 4.5,12 C4.5,16.1421356 7.85786438,19.5 12,19.5 Z"/>
</svg>