<svg fill="#000" xmlns="http://www.w3.org/2000/svg" xmlns:xlink="http://www.w3.org/1999/xlink" width="24" height="24" viewBox="0 0 24 24">
  <path d="M5.63605035,8.51461467 L4.3130031,8.51461467 C4.04299345,8.51461467 3.90798863,8.75762335 4.06999442,8.89262817 L6.23007156,11.1337082 C6.33807542,11.2147111 6.50008121,11.2147111 6.60808506,11.1337082 L8.76816221,8.89262817 C8.930168,8.73062238 8.79516317,8.51461467 8.52515353,8.51461467 L7.25610821,8.51461467 C7.25610821,7.16456645 8.57915546,5.81451824 9.92920368,5.81451824 L9.92920368,4.19446038 C7.49911689,4.19446038 5.63605035,6.08452788 5.63605035,8.51461467 Z M17.7529023,10.7020104 C16.9664181,10.3930345 16.8540632,10.0840585 16.8540632,9.77508259 C16.8540632,9.46610666 17.078773,9.15713073 17.3596602,8.93242096 C17.8371685,8.53917886 18.089967,7.94931572 18.089967,7.30327513 C18.089967,6.0673714 17.2753941,5 15.8428693,5 C14.5226994,5 13.7362152,5.89883908 13.6238603,6.9942992 C13.6238603,7.10665408 13.6800377,7.19092025 13.7643039,7.24709769 C14.8316753,7.921227 15.4777159,9.10095328 15.4777159,10.5334781 C15.4777159,11.6008495 15.0563851,12.555866 14.2979896,13.2299953 C14.2418122,13.2861727 14.2418122,13.3985276 14.2979896,13.4547051 C14.4946107,13.5951487 14.9440302,13.7917697 15.2249174,13.9322133 C15.3091836,13.960302 15.365361,13.9883908 15.4496272,13.9883908 L18.8483624,13.9883908 C19.494403,13.9883908 20,13.4547051 20,12.8648419 L20,12.6963096 C20,11.7132043 18.9326286,11.1795186 17.7529023,10.7020104 L17.7529023,10.7020104 Z M13.9890137,14.6063426 C13.0339972,14.2131005 12.8935536,13.8760359 12.8935536,13.5108825 C12.8935536,13.1457291 13.1744408,12.7805758 13.4834167,12.4996885 C14.0451911,12.0221803 14.3541671,11.348051 14.3541671,10.5615668 C14.3541671,9.10095328 13.3991505,7.83696083 11.6576498,7.83696083 C9.94423784,7.83696083 8.9611326,9.10095328 8.9611326,10.5615668 C8.9611326,11.348051 9.27010853,12.0221803 9.83188295,12.4996885 C10.1408589,12.7805758 10.4217461,13.1457291 10.4217461,13.5108825 C10.4217461,13.8760359 10.2813025,14.2411892 9.29819725,14.6063426 C7.8937612,15.168117 6.51741386,15.8141576 6.51741386,16.9938839 L6.51741386,17.3590373 C6.51741386,17.9769892 7.02301084,18.4825861 7.66905143,18.4825861 L15.4496272,18.4825861 C16.0956678,18.4825861 16.6293535,17.9769892 16.6293535,17.3590373 L16.6293535,16.9657952 C16.6293535,15.8141576 15.3934497,15.168117 13.9890137,14.6063426 L13.9890137,14.6063426 Z"/>
</svg>