<svg fill="#000" xmlns="http://www.w3.org/2000/svg" xmlns:xlink="http://www.w3.org/1999/xlink" width="24" height="24" viewBox="0 0 24 24">
  <path d="M19.4965405,5 L4.4998884,5 C4.23328125,5 4,5.23328125 4,5.4998884 L4,7.16618308 C4,7.43279023 4.23328125,7.66607148 4.4998884,7.66607148 L19.4965405,7.66607148 C19.7631476,7.66607148 19.9964289,7.43279023 19.9964289,7.16618308 L19.9964289,5.4998884 C19.963103,5.23328125 19.7631476,5 19.4965405,5 Z M6.89935274,8.99910722 L4.56654019,8.99910722 C4.29993304,8.99910722 4.06665179,9.23238848 4.06665179,9.49899563 L4.06665179,19.4301119 C4.06665179,19.6967191 4.29993304,19.9300003 4.56654019,19.9300003 L6.89935274,19.9300003 C7.16595989,19.9300003 7.39924114,19.6967191 7.39924114,19.4301119 L7.39924114,9.49899563 C7.39924114,9.23238848 7.16595989,8.99910722 6.89935274,8.99910722 L6.89935274,8.99910722 Z M19.4965405,8.99910722 L17.1637279,8.99910722 C16.8971208,8.99910722 16.6638395,9.23238848 16.6638395,9.49899563 L16.6638395,19.4301119 C16.6638395,19.6967191 16.8971208,19.9300003 17.1637279,19.9300003 L19.4965405,19.9300003 C19.7631476,19.9300003 19.9964289,19.6967191 19.9964289,19.4301119 L19.9964289,9.49899563 C19.9964289,9.23238848 19.7631476,8.99910722 19.4965405,8.99910722 L19.4965405,8.99910722 Z M14.8309154,8.99910722 L9.23216529,8.99910722 C8.96555814,8.99910722 8.73227688,9.23238848 8.73227688,9.49899563 L8.73227688,19.4301119 C8.73227688,19.6967191 8.96555814,19.9300003 9.23216529,19.9300003 L14.8309154,19.9300003 C15.0975225,19.9300003 15.3308038,19.6967191 15.3308038,19.4301119 L15.3308038,9.49899563 C15.3308038,9.23238848 15.0975225,8.99910722 14.8309154,8.99910722 L14.8309154,8.99910722 Z"/>
</svg>