<svg fill="#000" xmlns="http://www.w3.org/2000/svg" xmlns:xlink="http://www.w3.org/1999/xlink" width="24" height="24" viewBox="0 0 24 24">
  <path d="M17.1666667,10 L6.83333333,10 C6.56666667,10 6.33333333,10.2333333 6.33333333,10.5 L6.33333333,18.3333333 C6.33333333,19.2666667 7.06666667,20 8,20 L16,20 C16.9333333,20 17.6666667,19.2666667 17.6666667,18.3333333 L17.6666667,10.5 C17.6666667,10.2333333 17.4333333,10 17.1666667,10 Z M18.5,6.66666667 L14.3333333,6.66666667 L14.3333333,5.33333333 C14.3333333,4.6 13.7333333,4 13,4 L11,4 C10.2666667,4 9.66666667,4.6 9.66666667,5.33333333 L9.66666667,6.66666667 L5.5,6.66666667 C5.23333333,6.66666667 5,6.9 5,7.16666667 L5,8.16666667 C5,8.43333333 5.23333333,8.66666667 5.5,8.66666667 L18.5,8.66666667 C18.7666667,8.66666667 19,8.43333333 19,8.16666667 L19,7.16666667 C19,6.9 18.7666667,6.66666667 18.5,6.66666667 Z M13,6.66666667 L11,6.66666667 L11,5.66666667 C11,5.46666667 11.1333333,5.33333333 11.3333333,5.33333333 L12.6666667,5.33333333 C12.8666667,5.33333333 13,5.46666667 13,5.66666667 L13,6.66666667 Z"/>
</svg>