<svg fill="#000" xmlns="http://www.w3.org/2000/svg" xmlns:xlink="http://www.w3.org/1999/xlink" width="24" height="24" viewBox="0 0 24 24">
  <path d="M14.5714286,15.4285714 L15.7142857,17.1428571 C14.5714286,17.7142857 13.4285714,18.2857143 12,18.2857143 C8.57142857,18.2857143 6,15.7142857 6,12.2857143 L6,12 L4,12 L6.28571429,8.28571429 L9.14285714,12 L7.42857143,12 L7.42857143,12.2857143 C7.42857143,14.5714286 9.42857143,16.5714286 11.7142857,16.5714286 C12.8571429,16.5714286 13.7142857,16 14.5714286,15.4285714 Z M18,12 L18,12.2857143 L20,12.2857143 L17.1428571,16 L14.2857143,12.2857143 L16.2857143,12.2857143 C16.2857143,10 14.2857143,8 12,8 C11.1428571,8 10,8.28571429 9.42857143,8.85714286 L8.28571429,7.42857143 C9.42857143,6.57142857 10.5714286,6 12,6 C15.4285714,6 18,8.57142857 18,12 Z"/>
</svg>