<svg fill="#000" xmlns="http://www.w3.org/2000/svg" xmlns:xlink="http://www.w3.org/1999/xlink" width="24" height="24" viewBox="0 0 24 24">
  <circle cx="11.3" cy="11.3" r="6" fill="#fff"></circle>
  <path d="M10.2761546,10.2761546 L14.2719923,10.2761546 C14.4717842,10.2761546 14.6049788,10.4093492 14.6049788,10.6091411 L14.6049788,11.941087 C14.6049788,12.1408789 14.4717842,12.2740735 14.2719923,12.2740735 L10.2761546,12.2740735 L8.27823581,12.2740735 C8.07844393,12.2740735 7.94524934,12.1408789 7.94524934,11.941087 L7.94524934,10.6091411 C7.94524934,10.4093492 8.07844393,10.2761546 8.27823581,10.2761546 L10.2761546,10.2761546 Z M20.4655407,19.0336989 C20.6320339,19.2334908 20.6320339,19.5664772 20.4322421,19.7662691 L19.7329705,20.4655407 C19.5331786,20.6653326 19.2334908,20.6653326 19.0336989,20.4655407 L15.2043544,16.6361963 C14.1054991,17.4353638 12.7402545,17.9348435 11.2751141,17.9348435 C7.61226287,17.9348435 4.61538462,14.9379653 4.61538462,11.2751141 C4.61538462,7.61226287 7.61226287,4.61538462 11.2751141,4.61538462 C14.9379653,4.61538462 17.9348435,7.61226287 17.9348435,11.2751141 C17.9348435,12.7402545 17.4353638,14.1054991 16.6361963,15.2043544 L20.4655407,19.0336989 Z M11.2751141,15.9369247 C13.8391099,15.9369247 15.9369247,13.8391099 15.9369247,11.2751141 C15.9369247,8.71111823 13.8391099,6.61330345 11.2751141,6.61330345 C8.71111823,6.61330345 6.61330345,8.71111823 6.61330345,11.2751141 C6.61330345,13.8391099 8.71111823,15.9369247 11.2751141,15.9369247 Z"/>
</svg>