<svg fill="#000" xmlns="http://www.w3.org/2000/svg" xmlns:xlink="http://www.w3.org/1999/xlink" width="24" height="24" viewBox="0 0 24 24">
  <path d="M13.1428571,10.8571429 L18.8571429,10.8571429 C19.4883254,10.8571429 20,11.3688174 20,12 C20,12.6311826 19.4883254,13.1428571 18.8571429,13.1428571 L13.1428571,13.1428571 L13.1428571,18.8571429 C13.1428571,19.4883254 12.6311826,20 12,20 C11.3688174,20 10.8571429,19.4883254 10.8571429,18.8571429 L10.8571429,13.1428571 L5.14285714,13.1428571 C4.51167457,13.1428571 4,12.6311826 4,12 C4,11.3688174 4.51167457,10.8571429 5.14285714,10.8571429 L10.8571429,10.8571429 L10.8571429,5.14285714 C10.8571429,4.51167457 11.3688174,4 12,4 C12.6311826,4 13.1428571,4.51167457 13.1428571,5.14285714 L13.1428571,10.8571429 Z"/>
</svg>