<svg fill="#000" xmlns="http://www.w3.org/2000/svg" xmlns:xlink="http://www.w3.org/1999/xlink" width="24" height="24" viewBox="0 0 24 24">
  <path d="M15,5 L15,4.5 C15,4.22385763 15.2238576,4 15.5,4 C15.7761424,4 16,4.22385763 16,4.5 L16,5 L19,5 C19.5522847,5 20,5.44771525 20,6 C20,6.55228475 19.5522847,7 19,7 L16,7 L16,7.5 C16,7.77614237 15.7761424,8 15.5,8 C15.2238576,8 15,7.77614237 15,7.5 L15,7 L5,7 C4.44771525,7 4,6.55228475 4,6 C4,5.44771525 4.44771525,5 5,5 L15,5 Z M17,13 L17,12.5 C17,12.2238576 17.2238576,12 17.5,12 C17.7761424,12 18,12.2238576 18,12.5 L18,13 L19,13 C19.5522847,13 20,13.4477153 20,14 C20,14.5522847 19.5522847,15 19,15 L18,15 L18,15.5 C18,15.7761424 17.7761424,16 17.5,16 C17.2238576,16 17,15.7761424 17,15.5 L17,15 L5,15 C4.44771525,15 4,14.5522847 4,14 C4,13.4477153 4.44771525,13 5,13 L17,13 Z M6,17 L6,16.5 C6,16.2238576 6.22385763,16 6.5,16 C6.77614237,16 7,16.2238576 7,16.5 L7,17 L19,17 C19.5522847,17 20,17.4477153 20,18 C20,18.5522847 19.5522847,19 19,19 L7,19 L7,19.5 C7,19.7761424 6.77614237,20 6.5,20 C6.22385763,20 6,19.7761424 6,19.5 L6,19 L5,19 C4.44771525,19 4,18.5522847 4,18 C4,17.4477153 4.44771525,17 5,17 L6,17 Z M9,9 L9,8.5 C9,8.22385763 9.22385763,8 9.5,8 C9.77614237,8 10,8.22385763 10,8.5 L10,9 L19,9 C19.5522847,9 20,9.44771525 20,10 C20,10.5522847 19.5522847,11 19,11 L10,11 L10,11.5 C10,11.7761424 9.77614237,12 9.5,12 C9.22385763,12 9,11.7761424 9,11.5 L9,11 L5,11 C4.44771525,11 4,10.5522847 4,10 C4,9.44771525 4.44771525,9 5,9 L9,9 Z"/>
</svg>