<svg fill="#000" xmlns="http://www.w3.org/2000/svg" xmlns:xlink="http://www.w3.org/1999/xlink" width="24" height="24" viewBox="0 0 24 24">
  <path d="M18.4,13.069214 L15.4666667,13.069214 C14.6,13.069214 13.8666667,12.3361501 13.8666667,11.4698018 C14,9.10400469 15.1,8.97072035 15.2,7.43795036 C15.3,5.83853821 14.3,4.40573149 12.7333333,4.07252062 C10.6666667,3.6393465 8.8,5.20543756 8.8,7.20470276 C8.8,8.97072035 10,8.97072035 10.1333333,11.4698018 C10.1333333,12.3361501 9.4,13.069214 8.53333333,13.069214 L5.6,13.069214 C4.73333333,13.069214 4,13.7689568 4,14.6686261 L4,15.7349009 C4,16.0347907 4.23333333,16.2680383 4.53333333,16.2680383 L19.4666667,16.2680383 C19.7666667,16.2680383 20,16.0347907 20,15.7349009 L20,14.6686261 C20,13.7689568 19.2666667,13.069214 18.4,13.069214 Z M18.4333333,17.8674505 L5.56666667,17.8674505 C5.26666667,17.8674505 5.06666667,18.1006981 5.06666667,18.3672668 L5.06666667,18.4005878 C5.06666667,19.2669361 5.8,20 6.66666667,20 L17.3666667,20 C18.2333333,20 18.9333333,19.2669361 18.9333333,18.4005878 L18.9333333,18.3672668 C18.9333333,18.1006981 18.7,17.8674505 18.4333333,17.8674505 Z"/>
</svg>