<svg fill="#000" xmlns="http://www.w3.org/2000/svg" xmlns:xlink="http://www.w3.org/1999/xlink" width="72" height="24" viewBox="0 0 68 24">
  <path d="M9.46445304,7.21484092 L6,16.8686243 L8.43750183,16.8686243 L9.0864748,14.9166541 L12.5642554,14.9166541 L13.2132284,16.8686243 L15.7142857,16.8686243 L12.2491074,7.21484092 L9.46445304,7.21484092 Z M10.8250478,9.6847107 L11.9784753,13.146588 L9.67279893,13.146588 L10.8250478,9.6847107 Z M23.8331206,10.156751 C23.8331206,10.6044321 23.7594588,11.0420931 23.6112237,11.4694657 C23.4639913,11.8969278 23.2526695,12.2561283 22.9781701,12.5474252 C22.602021,12.9412486 22.1832064,13.2389869 21.7204501,13.4404613 C21.2581495,13.6422935 20.6825302,13.7428518 19.9942303,13.7428518 L18.4801528,13.7428518 L18.4801528,16.9999911 L16.0476735,16.9999911 L16.0476735,7.0008857 L20.0507529,7.0008857 C20.6511693,7.0008857 21.1567734,7.05536967 21.5681124,7.16514279 C21.9804542,7.27446858 22.3447518,7.43890459 22.6610963,7.6582719 C23.0414389,7.92228206 23.3318924,8.26063735 23.5321831,8.67235364 C23.733112,9.08469618 23.8331206,9.57898833 23.8331206,10.156751 Z M21.3182276,10.2168712 C21.3182276,9.93532601 21.2465715,9.69234004 21.1025299,9.48871851 C20.958853,9.28464966 20.7924759,9.1425798 20.602578,9.06188269 C20.3487731,8.95443566 20.1018968,8.89538899 19.8613109,8.88393752 C19.6202692,8.8731123 19.2996399,8.86756549 18.8985115,8.86756549 L18.4801528,8.86756549 L18.4801528,11.8626628 L19.1768399,11.8626628 C19.5908227,11.8626628 19.9316907,11.8353761 20.2001733,11.7818763 C20.4678354,11.7282869 20.6927408,11.6210188 20.8747072,11.4595351 C21.0312385,11.3163917 21.1442838,11.1451564 21.2137519,10.9455608 C21.2834936,10.7465914 21.3182276,10.5039633 21.3182276,10.2168712 Z M32.5179251,8.93422559 L29.5722749,8.93422559 L29.5722749,17 L27.1396132,17 L27.1396132,8.93422559 L24.1935072,8.93422559 L24.1935072,7.00089465 L32.5179251,7.00089465 L32.5179251,8.93422559 Z M41.9194093,8.93422559 L38.9800495,8.93422559 L37.2252949,17 L34.7800524,17 L36.5352628,8.93422559 L33.5959031,8.93422559 L34.0140795,7 L42.3379504,7 L41.9194093,8.93422559 Z M51.6443945,7.00090359 L50.3111894,13.086557 C50.0108901,14.4354155 49.5026421,15.4135324 48.786719,16.0216236 C48.0699755,16.6311462 47.0332408,16.9354155 45.6749652,16.9354155 C44.4645601,16.9354155 43.549258,16.705044 42.9277824,16.2443011 C42.3060333,15.7848107 41.9955234,15.0872549 41.9955234,14.1535124 C41.9955234,13.9617897 42.0105657,13.7677408 42.0387359,13.5710081 C42.0675442,13.3749016 42.0987228,13.1958828 42.1319071,13.0344886 L43.4526225,7.00090359 L45.8479062,7.00090359 L44.526735,13.0408406 C44.4978356,13.1632282 44.4743148,13.2977831 44.4564464,13.4441472 C44.4372105,13.5897062 44.4276381,13.7108413 44.4276381,13.8070158 C44.4276381,14.2173901 44.5441477,14.5274746 44.7769845,14.7394163 C45.0093655,14.9509108 45.3951781,15.0569264 45.9350605,15.0569264 C46.4567098,15.0569264 46.880265,14.903584 47.2031734,14.5988674 C47.5259906,14.2934351 47.7577334,13.8185568 47.8975814,13.1720852 L49.2493842,7.00090359 L51.6443945,7.00090359 Z M54.3891523,16.9734648 C53.6135158,16.9734648 52.922572,16.9025193 52.3152271,16.7602705 C51.7082469,16.6182902 51.1838626,16.4420448 50.7406157,16.2304609 L51.2098448,13.9254938 L51.4651995,13.9254938 C51.884014,14.3306792 52.3747582,14.6436265 52.9393465,14.8648726 C53.5042083,15.0869238 54.1108239,15.1975916 54.7613813,15.1975916 C55.4263428,15.1975916 55.9164488,15.1020434 56.2291467,14.9103206 C56.5412975,14.7185979 56.69792,14.4447466 56.69792,14.0872459 C56.69792,13.9536752 56.6724848,13.8383553 56.6217967,13.7414651 C56.5708352,13.6449327 56.4724675,13.5486688 56.3263292,13.4541941 C56.179735,13.3597194 55.9801736,13.265871 55.726551,13.1734541 C55.4729284,13.0808581 55.1445501,12.9743058 54.74251,12.8545126 C54.2999924,12.7246994 53.9032399,12.5847767 53.5522525,12.4341182 C53.2009005,12.2830125 52.901057,12.1047989 52.6528132,11.8979566 C52.4053899,11.6869095 52.2179535,11.4438341 52.0896835,11.1684619 C51.9618694,10.8927319 51.8981447,10.563502 51.8981447,10.1810407 C51.8981447,9.2163434 52.2984527,8.44739479 53.1010742,7.8722266 C53.9032399,7.29822144 55.0006908,7.01059261 56.3935182,7.01059261 C57.0625822,7.01059261 57.6956358,7.06829731 58.2903087,7.18415402 C58.8846169,7.30072645 59.3898564,7.45791583 59.8039304,7.65625895 L59.3590425,9.87077727 L59.1100694,9.87077727 C58.7928132,9.56096121 58.3760043,9.30169267 57.8577281,9.09297166 C57.3409106,8.88389279 56.7754107,8.77948755 56.1614107,8.77948755 C55.5607208,8.77948755 55.0952295,8.87217292 54.7669424,9.05709634 C54.4378347,9.24201975 54.273919,9.49788863 54.273919,9.82586602 C54.273919,9.97625608 54.2979868,10.1010593 54.3466692,10.1999177 C54.3952604,10.2990445 54.494722,10.3959347 54.6448717,10.4904989 C54.7750561,10.5767428 54.9799963,10.6701439 55.260148,10.7716862 C55.5408468,10.8724234 55.8691339,10.9766497 56.2464681,11.0846336 C57.2620524,11.3732465 57.9873656,11.7111545 58.4213136,12.0984469 C58.8560821,12.4862761 59.073512,13.0105389 59.073512,13.6739193 C59.073512,14.2288685 58.9551791,14.7172559 58.719425,15.139708 C58.4842178,15.5608181 58.1600331,15.9036466 57.7450475,16.1662253 C57.3107348,16.4459812 56.8171645,16.6506764 56.2657041,16.7790581 C55.7128762,16.9088713 55.0876628,16.9734648 54.3891523,16.9734648 Z M61.2190659,8.52833345 C60.8144732,8.52833345 60.4425177,8.21708596 60.4425177,7.76627362 C60.4425177,7.32404989 60.7990662,7.00000895 61.2190659,7.00000895 C61.6717941,7.00000895 62.0020869,7.34990517 61.9999901,7.76842077 C61.9977109,8.19132014 61.6587574,8.52833345 61.2190659,8.52833345 Z M61.2234419,7.06862833 C60.8231339,7.06862833 60.5125329,7.38211244 60.5125329,7.76627362 C60.5125329,8.15481857 60.8318858,8.45962461 61.2212539,8.45962461 C61.6193739,8.45962461 61.927787,8.15267141 61.9299749,7.76842077 C61.9322541,7.38631728 61.6281258,7.06862833 61.2234419,7.06862833 Z M61.210314,7.27690202 C61.3109608,7.27690202 61.3786968,7.27895971 61.4399601,7.30052068 C61.5449828,7.33702226 61.5974942,7.43140746 61.5974942,7.52373497 C61.5974942,7.64603314 61.5209151,7.72118344 61.3962918,7.75339071 C61.4749676,7.78774513 61.5144423,7.82433617 61.5362309,7.95522295 C61.5581106,8.10122924 61.5668625,8.15481857 61.6105308,8.24070462 L61.4116076,8.24070462 C61.4028557,8.22567456 61.3875399,8.19132014 61.3722241,8.10758123 C61.367757,8.08619918 61.3524411,7.98313591 61.3480652,7.95951725 C61.3219007,7.82209956 61.2540735,7.81145326 61.1271711,7.80930611 L61.065999,7.80930611 L61.065999,8.24070462 L60.8910523,8.24070462 L60.8910523,7.27690202 L61.210314,7.27690202 Z M61.0680958,7.67189045 L61.212502,7.67188842 C61.2825172,7.67188842 61.4224563,7.67403557 61.4224563,7.53876503 C61.4224563,7.50226346 61.4071405,7.44858467 61.3524411,7.42505547 C61.3174336,7.41002541 61.295645,7.41002541 61.1796824,7.41002541 L61.0680958,7.41002541 L61.0680958,7.67189045 Z"/>
</svg>