<svg fill="#000" xmlns="http://www.w3.org/2000/svg" xmlns:xlink="http://www.w3.org/1999/xlink" width="24" height="24" viewBox="0 0 24 24">
  <path d="M17.2769231,10.5384615 C17.5230769,10.2923077 17.5230769,9.95384615 17.2769231,9.70769231 L12.6615385,5.18461538 C12.4153846,4.93846154 12.0461538,4.93846154 11.8,5.18461538 L7.18461538,9.70769231 C6.93846154,9.95384615 6.93846154,10.2923077 7.18461538,10.5384615 L8.04615385,11.3692308 C8.29230769,11.6153846 8.66153846,11.6153846 8.90769231,11.3692308 L10.3538462,9.95384615 C10.6,9.70769231 11.0307692,9.89230769 11.0307692,10.2307692 L11.0307692,18.5384615 C11.0307692,18.8461538 11.3076923,19.1538462 11.6461538,19.1538462 L12.8769231,19.1538462 C13.2153846,19.1538462 13.4923077,18.8153846 13.4923077,18.5384615 L13.4923077,10.2307692 C13.4923077,9.86153846 13.9230769,9.70769231 14.1692308,9.95384615 L15.6153846,11.3692308 C15.8615385,11.6153846 16.2307692,11.6153846 16.4769231,11.3692308 L17.2769231,10.5384615 Z"/>
</svg>