<svg fill="#000" xmlns="http://www.w3.org/2000/svg" xmlns:xlink="http://www.w3.org/1999/xlink" width="24" height="24" viewBox="0 0 24 24">
  <path d="M7.18461538,13.6153846 C6.93846154,13.8615385 6.93846154,14.2 7.18461538,14.4461538 L11.8,18.9692308 C12.0461538,19.2153846 12.4153846,19.2153846 12.6615385,18.9692308 L17.3076923,14.4461538 C17.5538462,14.2 17.5538462,13.8615385 17.3076923,13.6153846 L16.4461538,12.7846154 C16.2,12.5384615 15.8307692,12.5384615 15.5846154,12.7846154 L14.1384615,14.2 C13.8923077,14.4461538 13.4615385,14.2923077 13.4615385,13.9230769 L13.4615385,5.61538462 C13.4615385,5.30769231 13.1846154,5 12.8461538,5 L11.6153846,5 C11.2769231,5 11,5.33846154 11,5.61538462 L11,13.9230769 C11,14.2923077 10.5692308,14.4461538 10.3230769,14.2 L8.87692308,12.7846154 C8.63076923,12.5384615 8.26153846,12.5384615 8.01538462,12.7846154 L7.18461538,13.6153846 L7.18461538,13.6153846 Z"/>
</svg>