<svg fill="#000" xmlns="http://www.w3.org/2000/svg" xmlns:xlink="http://www.w3.org/1999/xlink" width="24" height="24" viewBox="0 0 24 24">
  <path d="M12,24 C18.627417,24 24,18.627417 24,12 C24,5.372583 18.627417,0 12,0 C5.372583,0 0,5.372583 0,12 C0,18.627417 5.372583,24 12,24 Z M16.8466225,13.8290751 C18.4414341,14.4814981 19.9637543,15.2426582 20,16.6199955 C20,17.5261384 19.2750856,18.3235442 18.3689427,18.3235442 L10.0324275,18.3235442 C9.12628452,18.3235442 8.40137016,17.5261384 8.32887872,16.5837497 C8.36512444,15.2064124 9.8874446,14.4814981 11.4822562,13.8290751 C12.5696278,13.3941265 12.7508563,12.9954236 12.7508563,12.560475 C12.7508563,12.1255264 12.4608906,11.7268235 12.0984334,11.400612 C11.4460105,10.8569262 11.1560447,9.98702901 11.1560447,9.08088605 C11.1560447,7.37733729 12.2071706,6 14.1644394,6 C16.1217081,6 17.172834,7.37733729 17.172834,9.08088605 C17.172834,9.98702901 16.8828682,10.8569262 16.2304453,11.400612 C15.8679881,11.7268235 15.5780224,12.1255264 15.5780224,12.560475 C15.5780224,12.9954236 15.759251,13.3941265 16.8466225,13.8290751 Z M9.73069465,8.30339432 C9.89735522,8.37458459 10.0060924,8.56292287 9.98441467,8.7428503 L8.82889724,12.7582246 C8.74929612,13.0553001 8.40756412,13.0433344 8.22633553,12.7294372 L7.35643829,11.222731 C5.47305553,12.3101026 4.96050424,14.3219952 6.04787579,16.2053779 L4.16449302,17.2927495 C2.5334357,14.4676753 3.44399259,10.9704056 6.26906674,9.33934826 L5.38104665,7.80125233 C5.19981806,7.48735521 5.39171118,7.16730091 5.65739689,7.26502489 L9.73069465,8.30339432 Z"/>
</svg>