<svg fill="#000" xmlns="http://www.w3.org/2000/svg" xmlns:xlink="http://www.w3.org/1999/xlink" width="24" height="24" viewBox="0 0 24 24">
  <path d="M9.21376434,15.5537018 C9.41397289,15.7539103 9.71428571,15.7205422 9.91449426,15.5537018 L13.2513034,12.2168926 C13.4848801,11.983316 13.8852972,11.9499479 14.18561,12.2168926 C14.4859228,12.4838373 14.4525547,12.9509906 14.18561,13.2179353 L10.0813347,17.2554745 C9.18039625,18.1564129 7.67883212,18.1564129 6.77789364,17.2554745 L6.74452555,17.2221064 C5.84358707,16.3211679 5.84358707,14.8196038 6.74452555,13.9186653 L13.9854015,6.67778936 C14.8863399,5.77685089 16.3879041,5.77685089 17.2888425,6.67778936 L17.3222106,6.71115746 C18.2231491,7.61209593 18.2231491,9.11366006 17.3222106,10.0145985 L17.2888425,10.0479666 C17.1220021,10.2148071 17.088634,10.4483837 17.2221064,10.6485923 C17.4223149,11.0156413 17.5891554,11.4160584 17.6892596,11.8164755 C17.7559958,12.0834202 18.0563087,12.1501564 18.2565172,11.983316 C18.5234619,11.7163712 18.7570386,11.4494265 18.7570386,11.4494265 C20.4588113,9.74765381 20.4588113,6.97810219 18.7570386,5.27632951 L18.6903024,5.27632951 C16.9885297,3.57455683 14.2189781,3.57455683 12.5172054,5.27632951 L5.27632951,12.4838373 C3.57455683,14.18561 3.57455683,16.9551616 5.27632951,18.6569343 L5.34306569,18.7236705 C7.04483837,20.4254432 9.7810219,20.4254432 11.4827946,18.7236705 L15.620438,14.6193952 C16.6882169,13.5516163 16.6548488,11.8164755 15.5537018,10.7486966 C14.4859228,9.71428571 12.7507821,9.7810219 11.7163712,10.8488008 L8.44629823,14.1188738 C8.24608968,14.3190824 8.24608968,14.6527633 8.44629823,14.8529718 L9.21376434,15.5537018 L9.21376434,15.5537018 Z"/>
</svg>