<svg fill="#000" xmlns="http://www.w3.org/2000/svg" width="24" height="24" viewBox="0 0 24 24">
  <path d="M22.3995049,15.2133891 L20.5726521,13.6569038 C20.6714009,13.1046025 20.7207753,12.5020921 20.7207753,11.9497908 C20.7207753,11.3974895 20.6714009,10.7949791 20.5726521,10.2426778 L22.3995049,8.68619247 C22.9919977,8.18410042 23.1894953,7.28033473 22.7945001,6.57740586 L22.0045097,5.17154812 C21.7082633,4.66945607 21.1651449,4.36820084 20.5726521,4.36820084 C20.3751545,4.36820084 20.1776569,4.41841004 20.0295337,4.46861925 L17.7583112,5.32217573 C16.869572,4.51882845 15.882084,3.9665272 14.8452216,3.61506276 L14.4502264,1.25523013 C14.3021032,0.451882845 13.6108616,0 12.8208711,0 L11.2408903,0 C10.4508999,0 9.75965829,0.451882845 9.61153509,1.25523013 L9.21653988,3.56485356 C8.13030306,3.91631799 7.14281505,4.51882845 6.25407583,5.27196653 L3.98285339,4.41841004 C3.78535579,4.36820084 3.63723259,4.31799163 3.43973498,4.31799163 C2.84724217,4.31799163 2.30412376,4.61924686 2.00787736,5.12133891 L1.21788694,6.52719665 C0.822891737,7.23012552 0.97101494,8.13389121 1.61288215,8.63598326 L3.43973498,10.1924686 C3.34098618,10.7447699 3.29161178,11.3472803 3.29161178,11.8995816 C3.29161178,12.5020921 3.34098618,13.0543933 3.43973498,13.6066946 L1.61288215,15.1631799 C1.02038934,15.665272 0.822891737,16.5690377 1.21788694,17.2719665 L2.00787736,18.6778243 C2.30412376,19.1799163 2.84724217,19.4811715 3.43973498,19.4811715 C3.63723259,19.4811715 3.83473019,19.4309623 3.98285339,19.3807531 L6.25407583,18.5271967 C7.14281505,19.3305439 8.13030306,19.8828452 9.16716548,20.2343096 L9.56216069,22.6443515 C9.71028389,23.4476987 10.3521511,24 11.1915159,24 L12.7714967,24 C13.5614872,24 14.2527288,23.3974895 14.400852,22.5941423 L14.7958472,20.1841004 C15.9314584,19.7824268 16.9683208,19.1799163 17.85706,18.3263598 L19.9801593,19.1799163 C20.1776569,19.2301255 20.3751545,19.2803347 20.5726521,19.2803347 C21.1651449,19.2803347 21.7082633,18.9790795 22.0045097,18.4769874 L22.7451257,17.1715481 C23.1894953,16.6192469 22.9919977,15.7154812 22.3995049,15.2133891 L22.3995049,15.2133891 Z M12.0308807,18.1839427 C8.68600069,18.1839427 5.99912984,15.4516432 5.99912984,12.0502092 C5.99912984,8.64877517 8.68600069,5.9164757 12.0308807,5.9164757 C15.3757608,5.9164757 18.0626316,8.64877517 18.0626316,12.0502092 C18.0626316,15.4516432 15.3757608,18.1839427 12.0308807,18.1839427 Z M9.97868066,16.2228807 L7.23674518,13.0065903 C7.12921836,12.7263612 7.19121682,12.2503605 7.78513228,11.9344936 C7.92757283,11.735631 8.46168788,11.7919037 8.88190647,11.9344936 L9.97868066,13.5426387 L14.3657774,8.71820324 C14.7510501,8.15635755 15.2835074,8.08121697 15.4625516,8.18215486 C16.0410822,8.57211334 16.1239678,9.04513487 16.0109387,9.25425163 L9.97868066,16.2228807 Z"/>
</svg>