<svg fill="#000" xmlns="http://www.w3.org/2000/svg" xmlns:xlink="http://www.w3.org/1999/xlink" width="24" height="24" viewBox="0 0 24 24">
  <path d="M19.1666667,10 C19.4333333,10 19.6666667,10.2333333 19.6666667,10.5 L19.6666667,18.6666667 C19.6666667,19.4 19.0666667,20 18.3333333,20 L6.33333333,20 C5.6,20 5,19.4 5,18.6666667 L5,10.5 C5,10.2333333 5.23333333,10 5.5,10 L19.1666667,10 Z M10,17.3333333 L10,16 C10,15.8 9.86666667,15.6666667 9.66666667,15.6666667 L8.33333333,15.6666667 C8.13333333,15.6666667 8,15.8 8,16 L8,17.3333333 C8,17.5333333 8.13333333,17.6666667 8.33333333,17.6666667 L9.66666667,17.6666667 C9.86666667,17.6666667 10,17.5333333 10,17.3333333 Z M10,14 L10,12.6666667 C10,12.4666667 9.86666667,12.3333333 9.66666667,12.3333333 L8.33333333,12.3333333 C8.13333333,12.3333333 8,12.4666667 8,12.6666667 L8,14 C8,14.2 8.13333333,14.3333333 8.33333333,14.3333333 L9.66666667,14.3333333 C9.86666667,14.3333333 10,14.2 10,14 Z M13.3333333,17.3333333 L13.3333333,16 C13.3333333,15.8 13.2,15.6666667 13,15.6666667 L11.6666667,15.6666667 C11.4666667,15.6666667 11.3333333,15.8 11.3333333,16 L11.3333333,17.3333333 C11.3333333,17.5333333 11.4666667,17.6666667 11.6666667,17.6666667 L13,17.6666667 C13.2,17.6666667 13.3333333,17.5333333 13.3333333,17.3333333 Z M13.3333333,14 L13.3333333,12.6666667 C13.3333333,12.4666667 13.2,12.3333333 13,12.3333333 L11.6666667,12.3333333 C11.4666667,12.3333333 11.3333333,12.4666667 11.3333333,12.6666667 L11.3333333,14 C11.3333333,14.2 11.4666667,14.3333333 11.6666667,14.3333333 L13,14.3333333 C13.2,14.3333333 13.3333333,14.2 13.3333333,14 Z M16.6666667,17.3333333 L16.6666667,16 C16.6666667,15.8 16.5333333,15.6666667 16.3333333,15.6666667 L15,15.6666667 C14.8,15.6666667 14.6666667,15.8 14.6666667,16 L14.6666667,17.3333333 C14.6666667,17.5333333 14.8,17.6666667 15,17.6666667 L16.3333333,17.6666667 C16.5333333,17.6666667 16.6666667,17.5333333 16.6666667,17.3333333 Z M16.6666667,14 L16.6666667,12.6666667 C16.6666667,12.4666667 16.5333333,12.3333333 16.3333333,12.3333333 L15,12.3333333 C14.8,12.3333333 14.6666667,12.4666667 14.6666667,12.6666667 L14.6666667,14 C14.6666667,14.2 14.8,14.3333333 15,14.3333333 L16.3333333,14.3333333 C16.5333333,14.3333333 16.6666667,14.2 16.6666667,14 Z M18.3333333,5.66666667 L16.6666667,5.66666667 L16.6666667,5 C16.6666667,4.46666667 16.2333333,4 15.6666667,4 C15.1333333,4 14.6666667,4.43333333 14.6666667,5 L14.6666667,5.66666667 L10,5.66666667 L10,5 C10,4.46666667 9.56666667,4 9,4 C8.46666667,4 8,4.43333333 8,5 L8,5.66666667 L6.33333333,5.66666667 C5.6,5.66666667 5,6.26666667 5,7 L5,7.83333333 C5,8.1 5.23333333,8.33333333 5.5,8.33333333 L19.1666667,8.33333333 C19.4333333,8.33333333 19.6666667,8.1 19.6666667,7.83333333 L19.6666667,7 C19.6666667,6.26666667 19.0666667,5.66666667 18.3333333,5.66666667 Z"/>
</svg>