<svg fill="#000" xmlns="http://www.w3.org/2000/svg" width="24" height="24" viewBox="0 0 24 24">
  <path d="M10.5365326,7.88588247 C10.6669604,10.3843203 12.7340901,12.37 15.265,12.37 C15.7794955,12.37 16.2748253,12.2879424 16.7386161,12.1362007 L15.7729412,13.8868236 C15.5169412,14.3536472 15.02,14.6623531 14.4552941,14.6623531 L8.84588235,14.6623531 L8.16823529,15.8896472 L8.14564706,15.9800001 C8.14564706,16.0854119 8.22847059,16.1682354 8.33388235,16.1682354 L17.0529412,16.1682354 L17.0529412,17.6741178 L8.01764706,17.6741178 C7.18941176,17.6741178 6.51176471,16.9964707 6.51176471,16.1682354 C6.51176471,15.904706 6.57952941,15.6562354 6.7,15.4454119 L7.71647059,13.600706 L5.00588235,7.88588247 L3.5,7.88588247 L3.5,6.38000011 L5.96211765,6.38000011 L6.66988235,7.88588247 L10.5365326,7.88588247 Z M15.5470588,18 C16.3752941,18 17.0529412,18.6776471 17.0529412,19.5058824 C17.0529412,20.3341176 16.3752941,21.0117647 15.5470588,21.0117647 C14.7188235,21.0117647 14.0487059,20.3341176 14.0487059,19.5058824 C14.0487059,18.6776471 14.7188235,18 15.5470588,18 Z M8.01764706,18 C8.84588235,18 9.52352941,18.6776471 9.52352941,19.5058824 C9.52352941,20.3341176 8.84588235,21.0117647 8.01764706,21.0117647 C7.18941176,21.0117647 6.51929412,20.3341176 6.51929412,19.5058824 C6.51929412,18.6776471 7.18941176,18 8.01764706,18 Z M15.2352941,12.4705882 C12.6200634,12.4705882 10.5,10.3505248 10.5,7.73529412 C10.5,5.12006339 12.6200634,3 15.2352941,3 C17.8505248,3 19.9705882,5.12006339 19.9705882,7.73529412 C19.9705882,10.3505248 17.8505248,12.4705882 15.2352941,12.4705882 Z M15.25,11.35 C17.2382251,11.35 18.85,9.7382251 18.85,7.75 C18.85,5.7617749 17.2382251,4.15 15.25,4.15 C13.2617749,4.15 11.65,5.7617749 11.65,7.75 C11.65,9.7382251 13.2617749,11.35 15.25,11.35 Z M16.0490196,5.38235294 L16.0490196,6.88040547 L17.6176471,6.88040547 L17.6176471,8.378458 L16.0490196,8.378458 L16.0490196,10.0882353 L14.4803922,10.0882353 L14.4803922,8.378458 L12.9117647,8.378458 L12.9117647,6.88040547 L14.4803922,6.88040547 L14.4803922,5.38235294 L16.0490196,5.38235294 Z"/>
</svg>