<svg fill="#000" xmlns="http://www.w3.org/2000/svg" xmlns:xlink="http://www.w3.org/1999/xlink" width="24" height="24" viewBox="0 0 24 24">
  <rect width="9" height="8" fill="#FFF" transform="translate(5 10)"></rect>
  <polygon points="8,5 18,5 18,9 8,9" fill="#FFF"></polygon>
  <polygon points="14,5 18,5 18,16 14,16" fill="#FFF"></polygon>
  <path d="M15.3333333,10 C15.3333333,9.26666667 14.7333333,8.66666667 14,8.66666667 L5.33333333,8.66666667 C4.6,8.66666667 4,9.26666667 4,10 L4,18.6666667 C4,19.4 4.6,20 5.33333333,20 L14,20 C14.7333333,20 15.3333333,19.4 15.3333333,18.6666667 L15.3333333,10 Z M12.6666667,14.6666667 C12.6666667,14.8333333 12.5,15 12.3333333,15 L10.3333333,15 L10.3333333,17 C10.3333333,17.1666667 10.1666667,17.3333333 10,17.3333333 L9.33333333,17.3333333 C9.16666667,17.3333333 9,17.1666667 9,17 L9,15 L7,15 C6.83333333,15 6.66666667,14.8333333 6.66666667,14.6666667 L6.66666667,14 C6.66666667,13.8333333 6.83333333,13.6666667 7,13.6666667 L9,13.6666667 L9,11.6666667 C9,11.5 9.16666667,11.3333333 9.33333333,11.3333333 L10,11.3333333 C10.1666667,11.3333333 10.3333333,11.5 10.3333333,11.6666667 L10.3333333,13.6666667 L12.3333333,13.6666667 C12.5,13.6666667 12.6666667,13.8333333 12.6666667,14 L12.6666667,14.6666667 Z M17.6666667,17.3333333 L16.6666667,17.3333333 L16.6666667,15.3333333 L17.6666667,15.3333333 C17.8666667,15.3333333 18,15.2 18,15 L18,6.33333333 C18,6.13333333 17.8666667,6 17.6666667,6 L9,6 C8.8,6 8.66666667,6.13333333 8.66666667,6.33333333 L8.66666667,7.33333333 L6.66666667,7.33333333 L6.66666667,6.33333333 C6.66666667,5.03333333 7.7,4 9,4 L17.6666667,4 C18.9666667,4 20,5.03333333 20,6.33333333 L20,15 C20,16.3 18.9666667,17.3333333 17.6666667,17.3333333 Z"/>
</svg>