<svg fill="#000" xmlns="http://www.w3.org/2000/svg" xmlns:xlink="http://www.w3.org/1999/xlink" width="24" height="24" viewBox="0 0 24 24">
  <path d="M18.5454545,4 C19.3454545,4 20,4.65454545 20,5.45454545 L20,18.5454545 C20,19.3454545 19.3454545,20 18.5454545,20 L5.45454545,20 C4.65454545,20 4,19.3454545 4,18.5454545 L4,5.45454545 C4,4.65454545 4.65454545,4 5.45454545,4 L18.5454545,4 Z M6.90909091,7.63636364 L6.90909091,11.2727273 C6.90909091,11.4909091 7.05454545,11.6363636 7.27272727,11.6363636 L10.9090909,11.6363636 C11.1272727,11.6363636 11.2727273,11.4909091 11.2727273,11.2727273 L11.2727273,7.63636364 C11.2727273,7.41818182 11.1272727,7.27272727 10.9090909,7.27272727 L7.27272727,7.27272727 C7.05454545,7.27272727 6.90909091,7.41818182 6.90909091,7.63636364 Z M15.6363636,17.0909091 L15.6363636,16.3636364 C15.6363636,16.1454545 15.4909091,16 15.2727273,16 L7.27272727,16 C7.05454545,16 6.90909091,16.1454545 6.90909091,16.3636364 L6.90909091,17.0909091 C6.90909091,17.3090909 7.05454545,17.4545455 7.27272727,17.4545455 L15.2727273,17.4545455 C15.4909091,17.4545455 15.6363636,17.3090909 15.6363636,17.0909091 Z M17.0909091,14.1818182 L17.0909091,13.4545455 C17.0909091,13.2363636 16.9454545,13.0909091 16.7272727,13.0909091 L7.27272727,13.0909091 C7.05454545,13.0909091 6.90909091,13.2363636 6.90909091,13.4545455 L6.90909091,14.1818182 C6.90909091,14.4 7.05454545,14.5454545 7.27272727,14.5454545 L16.7272727,14.5454545 C16.9454545,14.5454545 17.0909091,14.4 17.0909091,14.1818182 Z M17.0909091,11.2727273 L17.0909091,10.5454545 C17.0909091,10.3272727 16.9454545,10.1818182 16.7272727,10.1818182 L13.0909091,10.1818182 C12.8727273,10.1818182 12.7272727,10.3272727 12.7272727,10.5454545 L12.7272727,11.2727273 C12.7272727,11.4909091 12.8727273,11.6363636 13.0909091,11.6363636 L16.7272727,11.6363636 C16.9454545,11.6363636 17.0909091,11.4909091 17.0909091,11.2727273 Z M17.0909091,8.36363636 L17.0909091,7.63636364 C17.0909091,7.41818182 16.9454545,7.27272727 16.7272727,7.27272727 L13.0909091,7.27272727 C12.8727273,7.27272727 12.7272727,7.41818182 12.7272727,7.63636364 L12.7272727,8.36363636 C12.7272727,8.58181818 12.8727273,8.72727273 13.0909091,8.72727273 L16.7272727,8.72727273 C16.9454545,8.72727273 17.0909091,8.58181818 17.0909091,8.36363636 Z"/>
</svg>