<svg fill="#000" xmlns="http://www.w3.org/2000/svg" xmlns:xlink="http://www.w3.org/1999/xlink" width="24" height="24" viewBox="0 0 24 24">
  <path d="M18.3333333,4 L9.66666667,4 C8.93333333,4 8.33333333,4.6 8.33333333,5.33333333 L8.33333333,6 L16.3333333,6 C17.0666667,6 17.6666667,6.6 17.6666667,7.33333333 L17.6666667,16.6666667 L18.3333333,16.6666667 C19.0666667,16.6666667 19.6666667,16.0666667 19.6666667,15.3333333 L19.6666667,5.33333333 C19.6666667,4.6 19.0666667,4 18.3333333,4 Z M16.3333333,8.66666667 L16.3333333,18.6666667 C16.3333333,19.4 15.7333333,20 15,20 L6.33333333,20 C5.6,20 5,19.4 5,18.6666667 L5,8.66666667 C5,7.93333333 5.6,7.33333333 6.33333333,7.33333333 L15,7.33333333 C15.7333333,7.33333333 16.3333333,7.93333333 16.3333333,8.66666667 Z M10.3333333,11 L10.3333333,10.3333333 C10.3333333,10.1333333 10.2,10 10,10 L7.33333333,10 C7.13333333,10 7,10.1333333 7,10.3333333 L7,11 C7,11.2 7.13333333,11.3333333 7.33333333,11.3333333 L10,11.3333333 C10.2,11.3333333 10.3333333,11.2 10.3333333,11 Z M13,16.3333333 L13,15.6666667 C13,15.4666667 12.8666667,15.3333333 12.6666667,15.3333333 L7.33333333,15.3333333 C7.13333333,15.3333333 7,15.4666667 7,15.6666667 L7,16.3333333 C7,16.5333333 7.13333333,16.6666667 7.33333333,16.6666667 L12.6666667,16.6666667 C12.8666667,16.6666667 13,16.5333333 13,16.3333333 Z M14.3333333,13.6666667 L14.3333333,13 C14.3333333,12.8 14.2,12.6666667 14,12.6666667 L7.33333333,12.6666667 C7.13333333,12.6666667 7,12.8 7,13 L7,13.6666667 C7,13.8666667 7.13333333,14 7.33333333,14 L14,14 C14.2,14 14.3333333,13.8666667 14.3333333,13.6666667 Z"/>
</svg>