<svg fill="#000" xmlns="http://www.w3.org/2000/svg" xmlns:xlink="http://www.w3.org/1999/xlink" width="24" height="24" viewBox="0 0 24 24">
  <path d="M13.7948985,8.09786569 L16.526809,8.09786569 C16.7267048,8.09786569 16.8932847,7.93128579 16.8932847,7.7313899 C16.8932847,7.63144196 16.8599688,7.56480999 16.7933368,7.46486205 L13.3951067,4.09994794 C13.2951588,4.03331598 13.2285268,4 13.1285789,4 C12.928683,4 12.7621031,4.16657991 12.7621031,4.36647579 L12.7621031,7.06507028 C12.7621031,7.63144196 13.2285268,8.09786569 13.7948985,8.09786569 Z M19.8250911,11.5627277 L19.5252473,11.2628839 C19.3253514,11.062988 19.0255075,11.062988 18.7922957,11.2628839 L14.8276939,15.2274857 C14.7943779,15.2608017 14.8276939,15.2941176 14.8276939,15.3274336 L14.8276939,16.1603332 C14.8276939,16.2269651 14.8276939,16.2935971 14.8943259,16.2935971 L15.7605414,16.2935971 C15.7938574,16.2935971 15.8271733,16.2602811 15.8604893,16.2602811 L19.8250911,12.3289953 C20.058303,12.0624675 20.058303,11.7626236 19.8250911,11.5627277 L19.8250911,11.5627277 Z M16.6267569,17.7928162 C16.7600208,17.7928162 16.8932847,17.9593961 16.8599688,18.0926601 C16.7267048,18.7922957 16.0603852,19.3253514 15.3274336,19.3253514 L5.53253514,19.3253514 C4.69963561,19.3253514 4,18.6257158 4,17.7928162 L4,5.53253514 C4,4.69963561 4.69963561,4 5.53253514,4 L10.6965122,4 C10.9963561,4 11.2295679,4.23321187 11.2295679,4.49973972 L11.2295679,8.09786569 C11.2295679,8.93076523 11.8958876,9.63040083 12.7621031,9.63040083 L16.426861,9.63040083 C16.6933889,9.63040083 16.9266007,9.8636127 16.9266007,10.1301406 L16.9266007,10.7964602 C16.9266007,10.9297241 16.8599688,11.062988 16.7600208,11.162936 L13.5950026,14.3279542 C13.3617907,14.4945341 13.2951588,14.7610619 13.2951588,15.0275898 L13.2951588,16.8266528 C13.2951588,17.3597085 13.7282665,17.7928162 14.2613222,17.7928162 L16.6267569,17.7928162 Z M9.21331051,15.1768819 C10.1044639,14.9469068 10.7081485,14.2857285 10.6794016,13.5383095 C10.6794016,12.4459279 9.61576688,11.928484 8.66711972,11.6122683 C7.89095385,11.3247995 7.8047132,11.1523182 7.8047132,10.9798369 C7.8047132,10.8648493 7.97719451,10.692368 8.35090399,10.692368 C8.60962595,10.692368 8.98333544,10.8361024 9.44328558,11.0948244 C9.50077935,11.1235713 9.58702,11.1523182 9.64451376,11.1523182 C9.7595013,11.1523182 9.9319826,11.0660775 10.0182233,10.95109 L10.4206796,10.5486336 C10.4781734,10.4911398 10.5356672,10.3761523 10.5069203,10.2611648 C10.4781734,10.1461772 10.4206796,10.0311897 10.334439,9.97369594 C10.1619577,9.8587084 9.67326065,9.62873333 9.21331051,9.5137458 L9.21331051,8.85256747 C9.21331051,8.70883305 9.06957609,8.6225924 8.92584167,8.6225924 L8.00594139,8.6225924 C7.89095385,8.6225924 7.83346009,8.70883305 7.83346009,8.85256747 L7.83346009,9.54249268 C6.68358474,9.77246775 6.28112836,10.4911398 6.28112836,11.1235713 C6.28112836,12.187206 7.22977553,12.6471561 8.00594139,12.934625 C8.8683479,13.2220938 8.95458855,13.4520689 8.95458855,13.5958033 C8.95458855,13.7682846 8.6958666,13.9407659 8.37965088,13.9407659 C8.09218204,13.9407659 7.68972567,13.8257784 7.22977553,13.5383095 L7.20102864,13.5383095 C7.14353488,13.5095626 7.05729423,13.4808158 6.97105357,13.4808158 C6.82731916,13.4808158 6.68358474,13.5383095 6.62609097,13.6532971 L6.33862213,14.1132472 C6.19488771,14.3144754 6.25238148,14.4582098 6.42486278,14.6306911 C6.5685972,14.7744255 7.14353488,15.0618944 7.83346009,15.2056288 L7.83346009,15.9530478 C7.83346009,16.0967822 7.86220697,16.1830228 8.00594139,16.1830228 L8.92584167,16.1830228 C9.06957609,16.1830228 9.21331051,16.0967822 9.21331051,15.9530478 L9.21331051,15.1768819 Z"/>
</svg>