<svg fill="#000" xmlns="http://www.w3.org/2000/svg" xmlns:xlink="http://www.w3.org/1999/xlink" width="24" height="24" viewBox="0 0 24 24">
  <path d="M14.0461538,8.78461538 L16.5692308,8.78461538 C16.7538462,8.78461538 16.9076923,8.63076923 16.9076923,8.44615385 C16.9076923,8.35384615 16.8769231,8.29230769 16.8153846,8.2 L13.6769231,5.09230769 C13.5846154,5.03076923 13.5230769,5 13.4307692,5 C13.2461538,5 13.0923077,5.15384615 13.0923077,5.33846154 L13.0923077,7.83076923 C13.0923077,8.35384615 13.5230769,8.78461538 14.0461538,8.78461538 Z M19.6153846,11.9846154 L19.3384615,11.7076923 C19.1538462,11.5230769 18.8769231,11.5230769 18.6615385,11.7076923 L15,15.3692308 C14.9692308,15.4 15,15.4307692 15,15.4615385 L15,16.2307692 C15,16.2923077 15,16.3538462 15.0615385,16.3538462 L15.8615385,16.3538462 C15.8923077,16.3538462 15.9230769,16.3230769 15.9538462,16.3230769 L19.6153846,12.6923077 C19.8307692,12.4461538 19.8307692,12.1692308 19.6153846,11.9846154 L19.6153846,11.9846154 Z M16.6615385,17.7384615 C16.7846154,17.7384615 16.9076923,17.8923077 16.8769231,18.0153846 C16.7538462,18.6615385 16.1384615,19.1538462 15.4615385,19.1538462 L6.41538462,19.1538462 C5.64615385,19.1538462 5,18.5076923 5,17.7384615 L5,6.41538462 C5,5.64615385 5.64615385,5 6.41538462,5 L11.1846154,5 C11.4615385,5 11.6769231,5.21538462 11.6769231,5.46153846 L11.6769231,8.78461538 C11.6769231,9.55384615 12.2923077,10.2 13.0923077,10.2 L16.4769231,10.2 C16.7230769,10.2 16.9384615,10.4153846 16.9384615,10.6615385 L16.9384615,11.2769231 C16.9384615,11.4 16.8769231,11.5230769 16.7846154,11.6153846 L13.8615385,14.5384615 C13.6461538,14.6923077 13.5846154,14.9384615 13.5846154,15.1846154 L13.5846154,16.8461538 C13.5846154,17.3384615 13.9846154,17.7384615 14.4769231,17.7384615 L16.6615385,17.7384615 Z M6.90769231,9.24615385 L6.90769231,9.70769231 C6.90769231,9.95384615 7.09230769,10.1692308 7.36923077,10.1692308 L9.27692308,10.1692308 C9.52307692,10.1692308 9.73846154,9.95384615 9.73846154,9.70769231 L9.73846154,9.24615385 C9.73846154,9 9.55384615,8.78461538 9.27692308,8.78461538 L7.36923077,8.78461538 C7.12307692,8.78461538 6.90769231,9 6.90769231,9.24615385 Z M11.6769231,15.3692308 L11.6461538,15.3692308 L11.6461538,14.9076923 C11.6461538,14.6615385 11.4615385,14.4461538 11.1846154,14.4461538 L7.36923077,14.4461538 C7.12307692,14.4461538 6.90769231,14.6615385 6.90769231,14.9076923 L6.90769231,15.3692308 C6.90769231,15.6153846 7.09230769,15.8307692 7.36923077,15.8307692 L11.2153846,15.8307692 C11.4615385,15.8307692 11.6769231,15.6153846 11.6769231,15.3692308 Z M12.6307692,12.5384615 L12.6,12.5384615 L12.6,12.0769231 C12.6,11.8307692 12.4153846,11.6153846 12.1384615,11.6153846 L7.36923077,11.6153846 C7.12307692,11.6153846 6.90769231,11.8307692 6.90769231,12.0769231 L6.90769231,12.5384615 C6.90769231,12.7846154 7.09230769,13 7.36923077,13 L12.1692308,13 C12.4153846,13 12.6307692,12.7846154 12.6307692,12.5384615 Z"/>
</svg>