<svg fill="#000" xmlns="http://www.w3.org/2000/svg" xmlns:xlink="http://www.w3.org/1999/xlink" width="24" height="24" viewBox="0 0 24 24">
  <path d="M11.992,4 C7.576,4 4,7.584 4,12 C4,16.416 7.576,20 11.992,20 C16.416,20 20,16.416 20,12 C20,7.584 16.416,4 11.992,4 L11.992,4 Z M12,18.4 C8.464,18.4 5.6,15.536 5.6,12 C5.6,8.464 8.464,5.6 12,5.6 C15.536,5.6 18.4,8.464 18.4,12 C18.4,15.536 15.536,18.4 12,18.4 L12,18.4 Z M14.8,11.2 C15.464,11.2 16,10.664 16,10 C16,9.336 15.464,8.8 14.8,8.8 C14.136,8.8 13.6,9.336 13.6,10 C13.6,10.664 14.136,11.2 14.8,11.2 L14.8,11.2 Z M9.2,11.2 C9.864,11.2 10.4,10.664 10.4,10 C10.4,9.336 9.864,8.8 9.2,8.8 C8.536,8.8 8,9.336 8,10 C8,10.664 8.536,11.2 9.2,11.2 L9.2,11.2 Z M12,16.4 C13.864,16.4 15.448,15.232 16.088,13.6 L7.912,13.6 C8.552,15.232 10.136,16.4 12,16.4 L12,16.4 Z"/>
</svg>