<svg fill="#000" xmlns="http://www.w3.org/2000/svg" xmlns:xlink="http://www.w3.org/1999/xlink" width="24" height="24" viewBox="0 0 24 24">
  <path d="M14.333627,16.6501549 C14.333627,16.9728177 14.1749372,17.1294501 13.8544256,17.1294501 L9.90284167,17.1294501 C9.58024208,17.1294501 9.42364034,16.9728177 9.42364034,16.6501549 L9.42364034,15.6424865 C9.42364034,15.320868 9.58024208,15.1652798 9.90284167,15.1652798 L10.6326058,15.1652798 L10.6326058,10.9121879 L9.88718149,10.9121879 C9.56666993,10.9121879 9.41006819,10.757644 9.41006819,10.433937 L9.41006819,9.42731275 C9.41006819,9.10360579 9.56666993,8.9480176 9.88718149,8.9480176 L12.6465042,8.9480176 C12.9691038,8.9480176 13.1257055,9.10360579 13.1257055,9.42731275 L13.1257055,15.1652798 L13.8554696,15.1652798 C14.1759812,15.1652798 14.334671,15.320868 14.334671,15.6424865 L14.334671,16.6501549 L14.333627,16.6501549 Z M11.8708036,5.38306412 C12.715409,5.38306412 13.4023686,6.06911404 13.4023686,6.91492901 C13.4023686,7.7680535 12.715409,8.46141294 11.8708036,8.46141294 C11.0168021,8.46141294 10.3235783,7.7680535 10.3235783,6.91492901 C10.3235783,6.05553923 11.0021859,5.38306412 11.8708036,5.38306412 Z"/>
</svg>