<svg fill="#000" xmlns="http://www.w3.org/2000/svg" xmlns:xlink="http://www.w3.org/1999/xlink" width="24" height="24" viewBox="0 0 24 24">
  <path d="M6.61479637,7.57648189 C6.61479637,7.84307012 6.38153166,8.07633483 6.11494343,8.07633483 L5.11523755,8.07633483 C4.84864932,8.07633483 4.61538462,7.84307012 4.61538462,7.57648189 L4.61538462,6.57677601 C4.61538462,6.31018778 4.84864932,6.07692308 5.11523755,6.07692308 L6.11494343,6.07692308 C6.38153166,6.07692308 6.61479637,6.31018778 6.61479637,6.57677601 L6.61479637,7.57648189 Z M20.6106786,6.57677601 C20.6106786,6.31018778 20.3774139,6.07692308 20.1108257,6.07692308 L8.44759047,6.07692308 C8.18100224,6.07692308 7.94773753,6.31018778 7.94773753,6.57677601 L7.94773753,7.57648189 C7.94773753,7.84307012 8.18100224,8.07633483 8.44759047,8.07633483 L20.1108257,8.07633483 C20.3774139,8.07633483 20.6106786,7.84307012 20.6106786,7.57648189 L20.6106786,6.57677601 Z M6.61479637,11.2420701 C6.61479637,10.9754819 6.38153166,10.7422172 6.11494343,10.7422172 L5.11523755,10.7422172 C4.84864932,10.7422172 4.61538462,10.9754819 4.61538462,11.2420701 L4.61538462,12.241776 C4.61538462,12.5083642 4.84864932,12.7416289 5.11523755,12.7416289 L6.11494343,12.7416289 C6.38153166,12.7416289 6.61479637,12.5083642 6.61479637,12.241776 L6.61479637,11.2420701 Z M20.6081789,11.2420701 C20.6081789,10.9754819 20.3475228,10.7422172 20.04963,10.7422172 L8.50628642,10.7422172 C8.20839368,10.7422172 7.94773753,10.9754819 7.94773753,11.2420701 L7.94773753,12.241776 C7.94773753,12.5083642 8.20839368,12.7416289 8.50628642,12.7416289 L20.04963,12.7416289 C20.3475228,12.7416289 20.6081789,12.5083642 20.6081789,12.241776 L20.6081789,11.2420701 Z M6.61479637,15.9073642 C6.61479637,15.640776 6.38153166,15.4075112 6.11494343,15.4075112 L5.11523755,15.4075112 C4.84864932,15.4075112 4.61538462,15.640776 4.61538462,15.9073642 L4.61538462,16.9070701 C4.61538462,17.1736583 4.84864932,17.406923 5.11523755,17.406923 L6.11494343,17.406923 C6.38153166,17.406923 6.61479637,17.1736583 6.61479637,16.9070701 L6.61479637,15.9073642 Z M20.6106786,15.9073642 C20.6106786,15.640776 20.3774139,15.4075112 20.1108257,15.4075112 L8.44759047,15.4075112 C8.18100224,15.4075112 7.94773753,15.640776 7.94773753,15.9073642 L7.94773753,16.9070701 C7.94773753,17.1736583 8.18100224,17.406923 8.44759047,17.406923 L20.1108257,17.406923 C20.3774139,17.406923 20.6106786,17.1736583 20.6106786,16.9070701 L20.6106786,15.9073642 Z"/>
</svg>