<svg fill="#000" xmlns="http://www.w3.org/2000/svg" xmlns:xlink="http://www.w3.org/1999/xlink" width="24" height="24" viewBox="0 0 24 24">
  <path d="M20,4.5 C20,4.23333333 19.7454545,4 19.4545455,4 L8.18181818,4 C7.89090909,4 7.63636364,4.23333333 7.63636364,4.5 L7.63636364,6.16666667 C7.63636364,6.43333333 7.89090909,6.66666667 8.18181818,6.66666667 L19.4545455,6.66666667 C19.7454545,6.66666667 20,6.43333333 20,6.16666667 L20,4.5 Z M6.18181818,8.5 C6.18181818,8.23333333 5.92727273,8 5.63636364,8 L4.54545455,8 C4.25454545,8 4,8.23333333 4,8.5 L4,12.8333333 C4,13.1 4.25454545,13.3333333 4.54545455,13.3333333 L5.63636364,13.3333333 C5.92727273,13.3333333 6.18181818,13.1 6.18181818,12.8333333 L6.18181818,8.5 Z M6.18181818,15.1666667 C6.18181818,14.9 5.92727273,14.6666667 5.63636364,14.6666667 L4.54545455,14.6666667 C4.25454545,14.6666667 4,14.9 4,15.1666667 L4,19.5 C4,19.7666667 4.25454545,20 4.54545455,20 L5.63636364,20 C5.92727273,20 6.18181818,19.7666667 6.18181818,19.5 L6.18181818,15.1666667 Z M13.0909091,8.5 C13.0909091,8.23333333 12.8363636,8 12.5454545,8 L8.18181818,8 C7.89090909,8 7.63636364,8.23333333 7.63636364,8.5 L7.63636364,9.5 C7.63636364,9.76666667 7.89090909,10 8.18181818,10 L12.5454545,10 C12.8363636,10 13.0909091,9.76666667 13.0909091,9.5 L13.0909091,8.5 Z M20,8.5 C20,8.23333333 19.7454545,8 19.4545455,8 L15.0909091,8 C14.8,8 14.5454545,8.23333333 14.5454545,8.5 L14.5454545,9.5 C14.5454545,9.76666667 14.8,10 15.0909091,10 L19.4545455,10 C19.7454545,10 20,9.76666667 20,9.5 L20,8.5 Z M13.0909091,11.8333333 C13.0909091,11.5666667 12.8363636,11.3333333 12.5454545,11.3333333 L8.18181818,11.3333333 C7.89090909,11.3333333 7.63636364,11.5666667 7.63636364,11.8333333 L7.63636364,12.8333333 C7.63636364,13.1 7.89090909,13.3333333 8.18181818,13.3333333 L12.5454545,13.3333333 C12.8363636,13.3333333 13.0909091,13.1 13.0909091,12.8333333 L13.0909091,11.8333333 Z M20,11.8333333 C20,11.5666667 19.7454545,11.3333333 19.4545455,11.3333333 L15.0909091,11.3333333 C14.8,11.3333333 14.5454545,11.5666667 14.5454545,11.8333333 L14.5454545,12.8333333 C14.5454545,13.1 14.8,13.3333333 15.0909091,13.3333333 L19.4545455,13.3333333 C19.7454545,13.3333333 20,13.1 20,12.8333333 L20,11.8333333 Z M13.0909091,15.1666667 C13.0909091,14.9 12.8363636,14.6666667 12.5454545,14.6666667 L8.18181818,14.6666667 C7.89090909,14.6666667 7.63636364,14.9 7.63636364,15.1666667 L7.63636364,16.1666667 C7.63636364,16.4333333 7.89090909,16.6666667 8.18181818,16.6666667 L12.5454545,16.6666667 C12.8363636,16.6666667 13.0909091,16.4333333 13.0909091,16.1666667 L13.0909091,15.1666667 Z M20,15.1666667 C20,14.9 19.7454545,14.6666667 19.4545455,14.6666667 L15.0909091,14.6666667 C14.8,14.6666667 14.5454545,14.9 14.5454545,15.1666667 L14.5454545,16.1666667 C14.5454545,16.4333333 14.8,16.6666667 15.0909091,16.6666667 L19.4545455,16.6666667 C19.7454545,16.6666667 20,16.4333333 20,16.1666667 L20,15.1666667 Z M13.0909091,18.5 C13.0909091,18.2333333 12.8363636,18 12.5454545,18 L8.18181818,18 C7.89090909,18 7.63636364,18.2333333 7.63636364,18.5 L7.63636364,19.5 C7.63636364,19.7666667 7.89090909,20 8.18181818,20 L12.5454545,20 C12.8363636,20 13.0909091,19.7666667 13.0909091,19.5 L13.0909091,18.5 Z M20,18.5 C20,18.2333333 19.7454545,18 19.4545455,18 L15.0909091,18 C14.8,18 14.5454545,18.2333333 14.5454545,18.5 L14.5454545,19.5 C14.5454545,19.7666667 14.8,20 15.0909091,20 L19.4545455,20 C19.7454545,20 20,19.7666667 20,19.5 L20,18.5 Z"/>
</svg>