<svg fill="#000" xmlns="http://www.w3.org/2000/svg" xmlns:xlink="http://www.w3.org/1999/xlink" width="24" height="24" viewBox="0 0 24 24">
  <path d="M19.1041667,5.2 L18.4041667,4.5 C18.2041667,4.3 17.8375,4.33333333 17.6041667,4.6 L14.2708333,7.93333333 L14.2708333,6.63333333 C14.2708333,5.16666667 13.1041667,4 11.6375,4 L11.5708333,4 C10.1041667,4 8.9375,5.16666667 8.9375,6.63333333 L8.9375,11.4666667 C8.9375,11.9666667 9.07083333,12.4666667 9.3375,12.8666667 L8.17083333,14.0333333 C7.60416667,13.3333333 7.27083333,12.4333333 7.27083333,11.4666667 L7.27083333,10.1333333 C7.27083333,9.66666667 6.90416667,9.33333333 6.4375,9.33333333 C5.97083333,9.33333333 5.60416667,9.66666667 5.60416667,10.1333333 L5.60416667,11.4666667 C5.60416667,12.9 6.1375,14.2 7.00416667,15.2 L4.20416667,18 C3.97083333,18.2333333 3.9375,18.6 4.10416667,18.8 L4.80416667,19.5 C5.00416667,19.7 5.37083333,19.6666667 5.60416667,19.4 L19.0041667,6 C19.2708333,5.76666667 19.3041667,5.4 19.1041667,5.2 L19.1041667,5.2 Z M15.9375,11.0666667 L15.9375,11.4666667 C15.9375,13.8 14.0041667,15.7333333 11.6041667,15.7333333 L11.3041667,15.7333333 L10.0041667,17.1 C10.2708333,17.1666667 10.6041667,17.2333333 10.9375,17.3 L10.9375,18.3333333 L9.4375,18.3333333 C8.97083333,18.3333333 8.60416667,18.7 8.60416667,19.1666667 C8.60416667,19.6333333 8.97083333,20 9.4375,20 L13.8041667,20 C14.2708333,20 14.6375,19.6333333 14.6375,19.1666667 C14.6375,18.7 14.2375,18.3333333 13.7708333,18.3333333 L12.2708333,18.3333333 L12.2708333,17.2666667 C15.2708333,16.8666667 17.6041667,14.4 17.6041667,11.4666667 L17.6041667,10.1333333 C17.6041667,9.93333333 17.5041667,9.73333333 17.4041667,9.6 L15.9375,11.0666667 Z"/>
</svg>