<svg fill="#000" xmlns="http://www.w3.org/2000/svg" xmlns:xlink="http://www.w3.org/1999/xlink" width="24" height="24" viewBox="0 0 24 24">
  <path d="M19.3360996,7.56999993 L10.6639004,7.56999993 C10.2904564,7.56999993 10,7.28890619 10,6.92749995 L10,5.64249998 C10,5.28109374 10.2904564,5 10.6639004,5 L19.3360996,5 C19.7095436,5 20,5.28109374 20,5.64249998 L20,6.92749995 C20,7.28890619 19.7095436,7.56999993 19.3360996,7.56999993 Z M19.3356401,13.3051068 L8.66435986,13.3051068 C8.29065744,13.3051068 8,13.0242358 8,12.6631158 L8,11.3791338 C8,11.0180138 8.29065744,10.7371428 8.66435986,10.7371428 L19.3356401,10.7371428 C19.7093426,10.7371428 20,11.0180138 20,11.3791338 L20,12.6631158 C20,13.0242358 19.7093426,13.3051068 19.3356401,13.3051068 Z M19.3356401,19.0422496 L8.66435986,19.0422496 C8.29065744,19.0422496 8,18.7613785 8,18.4002586 L8,17.1162766 C8,16.7551566 8.29065744,16.4742855 8.66435986,16.4742855 L19.3356401,16.4742855 C19.7093426,16.4742855 20,16.7551566 20,17.1162766 L20,18.4002586 C20,18.7613785 19.7093426,19.0422496 19.3356401,19.0422496 Z M5.95143087,13.3057588 L4.66744882,13.3057588 C4.30632887,13.3057588 4.0254578,13.0248878 4.0254578,12.6637678 L4.0254578,11.3797858 C4.0254578,11.0186658 4.30632887,10.7377947 4.66744882,10.7377947 L5.95143087,10.7377947 C6.31255081,10.7377947 6.59342189,11.0186658 6.59342189,11.3797858 L6.59342189,12.6637678 C6.63354632,13.0248878 6.31255081,13.3057588 5.95143087,13.3057588 Z M5.95143087,19.3043624 L4.66744882,19.3043624 C4.30632887,19.3043624 4.0254578,19.0234914 4.0254578,18.6623714 L4.0254578,17.3783894 C4.0254578,17.0172694 4.30632887,16.7363983 4.66744882,16.7363983 L5.95143087,16.7363983 C6.31255081,16.7363983 6.59342189,17.0172694 6.59342189,17.3783894 L6.59342189,18.6623714 C6.63354632,19.0234914 6.31255081,19.3043624 5.95143087,19.3043624 Z M5.64140305,9.25379371 L4.0254578,7.31465941 C3.96208744,7.14570638 3.9986259,6.85872071 4.34864685,6.66828131 C4.43259344,6.54838503 4.74737133,6.58231241 4.99502495,6.66828131 L5.64140305,7.63784846 L8.22691544,4.72914702 C8.45397385,4.39040451 8.76777478,4.34510149 8.87329354,4.40595797 C9.21424747,4.64106793 9.26309568,4.92625744 9.19648259,5.05233607 L5.64140305,9.25379371 Z"/>
</svg>