<svg fill="#000" xmlns="http://www.w3.org/2000/svg" xmlns:xlink="http://www.w3.org/1999/xlink" width="24" height="24" viewBox="0 0 24 24">
  <path d="M19.6722615,12.3562214 L17.9943589,12.3562214 L17.9943589,19.6803995 C17.9943589,19.8934665 17.861192,20 17.648125,20 L14.3455865,20 C14.1325195,20 13.9993527,19.8668331 13.9993527,19.6803995 L13.9993527,14.034124 L10.0043464,14.034124 L10.0043464,19.6803995 C10.0043464,19.8934665 9.87117954,20 9.65811254,20 L6.35557405,20 C6.14250705,20 6.00934018,19.8668331 6.00934018,19.6803995 L6.00934018,12.3562214 L4.33143755,12.3562214 C4.19827068,12.3562214 4.06510381,12.3029546 4.03847043,12.1431544 C3.95857031,12.0099875 4.01183706,11.8768206 4.11837056,11.7702871 L11.7887825,4.09987516 C11.9219494,3.96670828 12.1616498,3.96670828 12.2681833,4.09987516 L19.9385953,11.7702871 C20.0451288,11.8768206 20.0451288,12.0099875 20.0184954,12.1431544 C19.991862,12.2763213 19.8054284,12.3562214 19.6722615,12.3562214 Z"/>
</svg>