<svg id="Nav_Cog_Animated" fill="#000" xmlns="http://www.w3.org/2000/svg" xmlns:xlink="http://www.w3.org/1999/xlink" width="24" height="24" viewBox="0 0 24 24">
  <path d="M18.2151091,12.882 C18.2505769,12.594 18.2771778,12.306 18.2771778,12 C18.2771778,11.694 18.2505769,11.406 18.2151091,11.118 L20.0860374,9.633 C20.2545096,9.498 20.2988444,9.255 20.1924409,9.057 L18.4190491,5.943 C18.3126456,5.745 18.0732377,5.673 17.8781646,5.745 L15.6702918,6.645 C15.2092099,6.285 14.7126602,5.988 14.1717757,5.763 L13.8348313,3.378 C13.8082304,3.162 13.6220243,3 13.4003503,3 L9.85356668,3 C9.6318927,3 9.44568656,3.162 9.41908568,3.378 L9.08214124,5.763 C8.54125674,5.988 8.04470703,6.294 7.58362516,6.645 L5.37575236,5.745 C5.1718123,5.664 4.94127137,5.745 4.83486786,5.943 L3.06147605,9.057 C2.94620558,9.255 2.99940734,9.498 3.16787956,9.633 L5.03880792,11.118 C5.00334008,11.406 4.9767392,11.703 4.9767392,12 C4.9767392,12.297 5.00334008,12.594 5.03880792,12.882 L3.16787956,14.367 C2.99940734,14.502 2.95507254,14.745 3.06147605,14.943 L4.83486786,18.057 C4.94127137,18.255 5.18067926,18.327 5.37575236,18.255 L7.58362516,17.355 C8.04470703,17.715 8.54125674,18.012 9.08214124,18.237 L9.41908568,20.622 C9.44568656,20.838 9.6318927,21 9.85356668,21 L13.4003503,21 C13.6220243,21 13.8082304,20.838 13.8348313,20.622 L14.1717757,18.237 C14.7126602,18.012 15.2092099,17.706 15.6702918,17.355 L17.8781646,18.255 C18.0821047,18.336 18.3126456,18.255 18.4190491,18.057 L20.1924409,14.943 C20.2988444,14.745 20.2545096,14.502 20.0860374,14.367 L18.2151091,12.882 L18.2151091,12.882 Z M11.6269585,15.15 C9.91563539,15.15 8.52352282,13.737 8.52352282,12 C8.52352282,10.263 9.91563539,8.85 11.6269585,8.85 C13.3382816,8.85 14.7303942,10.263 14.7303942,12 C14.7303942,13.737 13.3382816,15.15 11.6269585,15.15 L11.6269585,15.15 Z"/>
</svg>