<svg fill="#000" xmlns="http://www.w3.org/2000/svg" xmlns:xlink="http://www.w3.org/1999/xlink" width="24" height="24" viewBox="0 0 24 24">
  <path d="M20,5.33333333 C20,4.6 19.4,4 18.6666667,4 L5.33333333,4 C4.6,4 4,4.6 4,5.33333333 L4,14 C4,14.7333333 4.6,15.3333333 5.33333333,15.3333333 L18.6666667,15.3333333 C19.4,15.3333333 20,14.7333333 20,14 L20,5.33333333 Z M18,12.8333333 C18,13.1 17.7666667,13.3333333 17.5,13.3333333 L6.5,13.3333333 C6.23333333,13.3333333 6,13.1 6,12.8333333 L6,6.5 C6,6.23333333 6.23333333,6 6.5,6 L17.5,6 C17.7666667,6 18,6.23333333 18,6.5 L18,12.8333333 Z M14.3333333,18 L13.3333333,18 C13.1333333,18 13,17.8666667 13,17.6666667 L13,17 C13,16.8 12.8666667,16.6666667 12.6666667,16.6666667 L11.3333333,16.6666667 C11.1333333,16.6666667 11,16.8 11,17 L11,17.6666667 C11,17.8666667 10.8666667,18 10.6666667,18 L9.66666667,18 C8.93333333,18 8.33333333,18.6 8.33333333,19.3333333 L8.33333333,19.5 C8.33333333,19.7666667 8.56666667,20 8.83333333,20 L15.1666667,20 C15.4333333,20 15.6666667,19.7666667 15.6666667,19.5 L15.6666667,19.3333333 C15.6666667,18.6 15.0666667,18 14.3333333,18 Z"/>
</svg>