<svg fill="#000" xmlns="http://www.w3.org/2000/svg" xmlns:xlink="http://www.w3.org/1999/xlink" width="24" height="24" viewBox="0 0 24 24">
  <path d="M17.0196078,9.96078431 C18.6588235,9.96078431 20,8.61960784 20,6.98039216 C20,5.34117647 18.6588235,4 17.0196078,4 C15.3803922,4 14.0392157,5.34117647 14.0392157,6.98039216 C14.0392157,8.61960784 15.3803922,9.96078431 17.0196078,9.96078431 L17.0196078,9.96078431 Z M6.98039216,4 C5.34117647,4 4,5.34117647 4,6.98039216 C4,8.61960784 5.34117647,9.96078431 6.98039216,9.96078431 C8.61960784,9.96078431 9.96078431,8.61960784 9.96078431,6.98039216 C9.96078431,5.34117647 8.61960784,4 6.98039216,4 L6.98039216,4 Z M6.98039216,14.0392157 C5.34117647,14.0392157 4,15.3803922 4,17.0196078 C4,18.6588235 5.34117647,20 6.98039216,20 C8.61960784,20 9.96078431,18.6588235 9.96078431,17.0196078 C9.96078431,15.3803922 8.61960784,14.0392157 6.98039216,14.0392157 L6.98039216,14.0392157 Z M17.0196078,14.0392157 C15.3803922,14.0392157 14.0392157,15.3803922 14.0392157,17.0196078 C14.0392157,18.6588235 15.3803922,20 17.0196078,20 C18.6588235,20 20,18.6588235 20,17.0196078 C20,15.3803922 18.6588235,14.0392157 17.0196078,14.0392157 L17.0196078,14.0392157 Z"/>
</svg>