<svg fill="#000" xmlns="http://www.w3.org/2000/svg" xmlns:xlink="http://www.w3.org/1999/xlink" width="24" height="24" viewBox="0 0 24 24">
  <path d="M19.5666667,4 L13.2,4 C12.9333333,4 12.6666667,4.16666667 12.6666667,4.43333333 L12.6666667,5.43333333 C12.6666667,5.7 12.9,6 13.2,6 L15.8333333,6 C16.1333333,6 16.3,6.33333333 16.0666667,6.53333333 L10.4,12.2 C10.2,12.4 10.2,12.7 10.4,12.9 L11.1,13.6 C11.3,13.8 11.6,13.8 11.8,13.6 L17.4666667,7.93333333 C17.6666667,7.73333333 18,7.86666667 18,8.16666667 L18,10.8 C18,11.0666667 18.2666667,11.3666667 18.5333333,11.3666667 L19.5,11.3666667 C19.7666667,11.3666667 20,11.0666667 20,10.8 L20,4.46666667 C20,4.16666667 19.8333333,4 19.5666667,4 L19.5666667,4 Z M15.4333333,11.8333333 L14.3,13 C14.1,13.2 14,13.4333333 14,13.7 L14,17.5 C14,17.7666667 13.7666667,18 13.5,18 L6.5,18 C6.23333333,18 6,17.7666667 6,17.5 L6,10.5 C6,10.2333333 6.23333333,10 6.5,10 L10.3333333,10 C10.6,10 10.8666667,9.9 11.0333333,9.7 L12.1666667,8.56666667 C12.3666667,8.36666667 12.2333333,8 11.9333333,8 L5.33333333,8 C4.6,8 4,8.6 4,9.33333333 L4,18.6666667 C4,19.4 4.6,20 5.33333333,20 L14.6666667,20 C15.4,20 16,19.4 16,18.6666667 L16,12.0666667 C16,11.7666667 15.6333333,11.6333333 15.4333333,11.8333333 Z"/>
</svg>