<svg fill="#000" xmlns="http://www.w3.org/2000/svg" xmlns:xlink="http://www.w3.org/1999/xlink" width="24" height="24" viewBox="0 0 24 24">
  <path d="M12,20 C7.581722,20 4,16.418278 4,12 C4,7.581722 7.581722,4 12,4 C16.418278,4 20,7.581722 20,12 C20,16.418278 16.418278,20 12,20 Z M9.81508273,15.6190043 C10.2633782,15.8778278 10.8419302,15.7228053 11.1007537,15.2745098 L9.47058824,14.3333333 C9.21176471,14.7816288 9.36678723,15.3601808 9.81508273,15.6190043 Z M14.1523362,14.5708893 L15.4464538,12.3294118 C16.1688068,11.0782598 15.9054495,9.52970202 14.8958058,8.57727977 L15.0558058,8.30015164 C15.2510999,7.96189231 15.1356943,7.53119253 14.7974349,7.33589842 C14.4591756,7.1406043 14.0284758,7.25600996 13.8331817,7.59426929 L13.6731817,7.87139742 C12.343538,7.47323143 10.870769,8.01943627 10.1484161,9.27058827 L8.85429842,11.5120658 L7.56862745,11.8565603 L7.33333333,12.2641016 L14.2615366,16.2641016 L14.4968307,15.8565603 L14.1523362,14.5708893 Z"/>
</svg>