<svg fill="#000" xmlns="http://www.w3.org/2000/svg" xmlns:xlink="http://www.w3.org/1999/xlink" width="24" height="24" viewBox="0 0 24 24">
  <path d="M12,20 C7.581722,20 4,16.418278 4,12 C4,7.581722 7.581722,4 12,4 C16.418278,4 20,7.581722 20,12 C20,16.418278 16.418278,20 12,20 Z M12,7 C9.24,7 7,9.24 7,12 C7,14.76 9.24,17 12,17 C14.76,17 17,14.76 17,12 C17,9.24 14.76,7 12,7 Z M12,16 C9.79,16 8,14.21 8,12 C8,9.79 9.79,8 12,8 C14.21,8 16,9.79 16,12 C16,14.21 14.21,16 12,16 Z M14.12,9.88 C13.535,9.295 12.77,9 12,9 L12,12 L9.88,14.12 C11.05,15.29 12.95,15.29 14.125,14.12 C15.295,12.95 15.295,11.05 14.12,9.88 Z"/>
</svg>