<svg fill="#000" xmlns="http://www.w3.org/2000/svg" xmlns:xlink="http://www.w3.org/1999/xlink" width="24" height="24" viewBox="0 0 24 24">
  <path d="M18.0094427,11.1537417 L11.7017504,14.6306648 C11.2709812,14.8460494 10.7786735,14.5383571 10.7786735,14.0768187 L10.7786735,6.53835712 C10.7786735,6.23066481 10.4709812,5.98451097 10.1940581,6.07681866 C7.11713502,6.93835712 4.9017504,9.92297251 5.27098117,13.3383571 C5.60944271,16.4460494 8.1017504,18.9691264 11.2402119,19.3075879 C15.3325196,19.7383571 18.7786735,16.5691264 18.7786735,12.5691264 C18.7786735,12.1998956 18.7479042,11.8306648 18.6863658,11.461434 C18.6248273,11.1537417 18.2863658,10.9998956 18.0094427,11.1537417 L18.0094427,11.1537417 Z M12.5325196,12.5691264 L18.5940581,9.33835712 C18.9632889,9.15374174 19.0863658,8.66143404 18.8402119,8.32297251 C17.4555966,6.4152802 15.3017504,5.03066481 12.8402119,4.63066481 C12.4094427,4.53835712 12.0094427,4.87681866 12.0094427,5.30758789 L12.0094427,12.261434 C12.0094427,12.5383571 12.2863658,12.6922033 12.5325196,12.5691264 L12.5325196,12.5691264 Z"/>
</svg>