<svg fill="#000" xmlns="http://www.w3.org/2000/svg" xmlns:xlink="http://www.w3.org/1999/xlink" width="24" height="24" viewBox="0 0 24 24">
  <path d="M6.16044494,16.5002917 L7.51212082,17.8530699 L5.38716588,19.9376322 C5.33307693,19.9912704 5.25971179,20.0209392 5.18354164,20.0199778 C5.10737149,20.0190163 5.03477862,19.9875052 4.98206084,19.9325188 L4.07923908,18.9893808 C3.97205918,18.8778393 3.97382714,18.7010478 4.08321627,18.5916719 L6.16044494,16.5002917 Z M13.1517739,18.9547233 L13.1540466,18.9558596 C13.175749,19.2966709 12.9837676,19.6151976 12.6722733,19.7551958 C12.3607789,19.895194 11.995114,19.8272962 11.7546445,19.5848077 L8.08597229,15.9150916 L4.41616375,12.2459437 C4.17331919,12.0058697 4.1051252,11.6402229 4.24510588,11.3287547 C4.38508656,11.0172866 4.70379702,10.8255144 5.04455951,10.8477131 L5.04455951,10.843736 L8.46778237,10.8187372 L13.1796143,6.10759218 L13.1926822,4.81617483 L13.1972275,4.81617483 C13.1991796,4.48467282 13.4003153,4.18687349 13.7071074,4.06125217 C14.0138996,3.93563085 14.3661401,4.00684078 14.6000387,4.24176967 L17.1800976,6.8189228 L19.758452,9.39721225 C19.9931434,9.63117994 20.0642854,9.98323869 19.9388561,10.2899738 C19.8134269,10.5967089 19.5159877,10.7980561 19.1846005,10.8005562 L19.1811915,10.8056696 L17.8914462,10.8187372 L13.1796143,15.5281777 L13.1563193,18.9547233 L13.1517739,18.9547233 Z"/>
</svg>