<svg fill="#000" xmlns="http://www.w3.org/2000/svg" xmlns:xlink="http://www.w3.org/1999/xlink" width="24" height="24" viewBox="0 0 24 24">
  <path d="M8.34659825,17.8707224 L8.34659825,19.513308 C8.34659825,19.8174905 8.08663532,20 7.82667239,20 L6.16290963,20 C5.9029467,20 5.85095412,19.8174905 5.85095412,19.513308 L5.85095412,17.9315589 C4.60313205,17.6273764 3.56328033,17.0190114 3.3033174,16.7148289 C2.99136189,16.3498099 2.88737672,16.0456274 3.14733965,15.6197719 L3.66726551,14.6463878 C3.77125068,14.4030418 4.03121361,14.2813688 4.29117654,14.2813688 C4.4471543,14.2813688 4.60313205,14.3422053 4.70711723,14.4030418 L4.75910981,14.4030418 C5.59099119,15.0114068 6.31888739,15.2547529 6.83881325,15.2547529 C7.4107317,15.2547529 7.87866497,14.8897338 7.87866497,14.5247148 C7.87866497,14.2205323 7.72268721,13.7338403 6.16290963,13.1254753 C4.75910981,12.5171103 3.04335447,11.5437262 3.04335447,9.29277567 C3.04335447,7.95437262 3.77125068,6.43346008 5.85095412,5.94676806 L5.85095412,4.48669202 C5.85095412,4.18250951 5.95493929,4 6.16290963,4 L7.82667239,4 C8.08663532,4 8.34659825,4.18250951 8.34659825,4.48669202 L8.34659825,5.88593156 C9.17847962,6.12927757 10.0623536,6.61596958 10.3743091,6.85931559 C10.5302869,6.98098859 10.634272,7.2243346 10.6862646,7.46768061 C10.7382572,7.71102662 10.634272,7.95437262 10.5302869,8.07604563 L9.80239065,8.92775665 C9.6464129,9.17110266 9.33445738,9.35361217 9.12648704,9.35361217 C9.02250186,9.35361217 8.86652411,9.29277567 8.76253893,9.23193916 C7.93065756,8.68441065 7.25475394,8.38022814 6.78682067,8.38022814 C6.11091705,8.38022814 5.79896153,8.74524715 5.79896153,8.98859316 C5.79896153,9.35361217 5.95493929,9.71863118 7.35873911,10.3269962 C9.07449445,10.9961977 10.9982201,12.0912548 10.9982201,14.4030418 C11.0502127,15.9847909 9.95836841,17.3840304 8.34659825,17.8707224 Z M13,4 C13.5522847,4 14,4.44771525 14,5 L14,19 C14,19.5522847 13.5522847,20 13,20 C12.4477153,20 12,19.5522847 12,19 L12,5 C12,4.44771525 12.4477153,4 13,4 Z M16,8 C16.5522847,8 17,8.44771525 17,9 L17,19 C17,19.5522847 16.5522847,20 16,20 C15.4477153,20 15,19.5522847 15,19 L15,9 C15,8.44771525 15.4477153,8 16,8 Z M19,12 C19.5522847,12 20,12.4477153 20,13 L20,19 C20,19.5522847 19.5522847,20 19,20 C18.4477153,20 18,19.5522847 18,19 L18,13 C18,12.4477153 18.4477153,12 19,12 Z"/>
</svg>