<svg fill="#000" xmlns="http://www.w3.org/2000/svg" xmlns:xlink="http://www.w3.org/1999/xlink" width="24" height="24" viewBox="0 0 24 24">
  <path d="M18.6086957,19.3043478 L5.39130435,19.3043478 C4.62295652,19.3043478 4,18.6813913 4,17.9130435 L5.39130435,9.56521739 C5.62713043,8.368 6.31930435,8.17391304 7.08765217,8.17391304 L8.01008696,8.17391304 C8.5346087,5.75721739 10.1224348,4 12,4 C13.8775652,4 15.4653913,5.75721739 15.989913,8.17391304 L16.9123478,8.17391304 C17.6806957,8.17391304 18.3728696,8.368 18.6086957,9.56521739 L20,17.9130435 C20,18.6813913 19.3770435,19.3043478 18.6086957,19.3043478 Z M10.6666667,16.3333333 L15.06,11.94 L14.12,11 L10.6666667,14.4466667 L9.27333333,13.06 L8.33333333,14 L10.6666667,16.3333333 Z M12.000045,5.5 C10.8783416,5.5 9.9264917,6.5445 9.5726087,8 L14.4277391,8 C14.0735984,6.5445 13.1220062,5.5 12.000045,5.5 Z"/>
</svg>