<svg fill="#000" xmlns="http://www.w3.org/2000/svg" xmlns:xlink="http://www.w3.org/1999/xlink" width="24" height="24" viewBox="0 0 24 24">
  <path d="M17.6466667,6.35333333 C16.2,4.9 14.2133333,4 12,4 C7.58,4 4,7.58 4,12 C4,16.42 7.58,20 12,20 C15.96,20 19.2333333,17.1133333 19.8733333,13.3333333 L17.8466667,13.3333333 C17.24,16.0066667 14.8533333,18 12,18 C8.68666667,18 6,15.3133333 6,12 C6,8.68666667 8.68666667,6 12,6 C13.66,6 15.14,6.68666667 16.2266667,7.77333333 L13.3333333,10.6666667 L20,10.6666667 L20,4 L17.6466667,6.35333333 Z"/>
</svg>