<svg fill="#000" xmlns="http://www.w3.org/2000/svg" xmlns:xlink="http://www.w3.org/1999/xlink" width="24" height="24" viewBox="0 0 24 24">
  <path d="M18.6455153,18.9378179 L14.5224384,14.8455103 C15.3532076,13.6762795 15.7839769,12.1993564 15.5685923,10.6301256 C15.1993615,7.9839718 13.0455153,5.8916641 10.3685923,5.64551026 C6.73782302,5.27627949 3.66089994,8.35320257 4.03013071,12.014741 C4.27628456,14.6608949 6.36859225,16.8455103 9.0147461,17.214741 C10.5839769,17.4301256 12.0608999,16.9993564 13.2301307,16.1685872 L17.3224384,20.2608949 C17.5070538,20.4455103 17.7839769,20.4455103 17.9685923,20.2608949 L18.6147461,19.614741 C18.7993615,19.4301256 18.7993615,19.1224333 18.6455153,18.9378179 L18.6455153,18.9378179 Z M5.84551533,11.4301256 C5.84551533,9.24551026 7.63013071,7.46089487 9.8147461,7.46089487 C11.9993615,7.46089487 13.7839769,9.24551026 13.7839769,11.4301256 C13.7839769,13.614741 11.9993615,15.3993564 9.8147461,15.3993564 C7.63013071,15.3993564 5.84551533,13.6455103 5.84551533,11.4301256 Z M17.0267206,3 L17.0267206,5.35789474 L19.3846154,5.35789474 L19.3846154,6.53684211 L17.0267206,6.53684211 L17.0267206,8.89473684 L15.8477733,8.89473684 L15.8477733,6.53684211 L13.4898785,6.53684211 L13.4898785,5.35789474 L15.8477733,5.35789474 L15.8477733,3 L17.0267206,3 Z"/>
</svg>