<svg fill="#000" xmlns="http://www.w3.org/2000/svg" xmlns:xlink="http://www.w3.org/1999/xlink" width="24" height="24" viewBox="0 0 24 24">
  <path d="M19.3076923,5 L5.46153846,5 C5.21538462,5 5,5.21538462 5,5.46153846 L5,7 C5,7.24615385 5.21538462,7.46153846 5.46153846,7.46153846 L19.3076923,7.46153846 C19.5538462,7.46153846 19.7692308,7.24615385 19.7692308,7 L19.7692308,5.46153846 C19.7692308,5.21538462 19.5538462,5 19.3076923,5 Z M19.3076923,8.69230769 L8.53846154,8.69230769 C8.29230769,8.69230769 8.07692308,8.90769231 8.07692308,9.15384615 L8.07692308,10.0769231 C8.07692308,10.3230769 8.29230769,10.5384615 8.53846154,10.5384615 L19.3076923,10.5384615 C19.5538462,10.5384615 19.7692308,10.3230769 19.7692308,10.0769231 L19.7692308,9.15384615 C19.7692308,8.90769231 19.5538462,8.69230769 19.3076923,8.69230769 Z M19.3076923,14.8461538 L8.53846154,14.8461538 C8.29230769,14.8461538 8.07692308,15.0615385 8.07692308,15.3076923 L8.07692308,16.2307692 C8.07692308,16.4769231 8.29230769,16.6923077 8.53846154,16.6923077 L19.3076923,16.6923077 C19.5538462,16.6923077 19.7692308,16.4769231 19.7692308,16.2307692 L19.7692308,15.3076923 C19.7692308,15.0615385 19.5538462,14.8461538 19.3076923,14.8461538 Z M19.3076923,17.9230769 L7.30769231,17.9230769 C7.06153846,17.9230769 6.84615385,17.7076923 6.84615385,17.4615385 L6.84615385,15.3076923 C6.84615385,15.0615385 6.63076923,14.8461538 6.38461538,14.8461538 L5.46153846,14.8461538 C5.21538462,14.8461538 5,15.0615385 5,15.3076923 L5,19.3076923 C5,19.5538462 5.21538462,19.7692308 5.46153846,19.7692308 L19.3076923,19.7692308 C19.5538462,19.7692308 19.7692308,19.5538462 19.7692308,19.3076923 L19.7692308,18.3846154 C19.7692308,18.1384615 19.5538462,17.9230769 19.3076923,17.9230769 Z M19.3076923,11.7692308 L7.30769231,11.7692308 C7.06153846,11.7692308 6.84615385,11.5538462 6.84615385,11.3076923 L6.84615385,9.15384615 C6.84615385,8.90769231 6.63076923,8.69230769 6.38461538,8.69230769 L5.46153846,8.69230769 C5.21538462,8.69230769 5,8.90769231 5,9.15384615 L5,13.1538462 C5,13.4 5.21538462,13.6153846 5.46153846,13.6153846 L19.3076923,13.6153846 C19.5538462,13.6153846 19.7692308,13.4 19.7692308,13.1538462 L19.7692308,12.2307692 C19.7692308,11.9846154 19.5538462,11.7692308 19.3076923,11.7692308 Z"/>
</svg>