<svg fill="#000" xmlns="http://www.w3.org/2000/svg" xmlns:xlink="http://www.w3.org/1999/xlink" width="24" height="24" viewBox="0 0 24 24">
  <path d="M19.4545455,4 L4.54545455,4 C4.25454545,4 4,4.27692308 4,4.59340659 L4,6.57142857 C4,6.88791209 4.25454545,7.16483516 4.54545455,7.16483516 L19.4545455,7.16483516 C19.7454545,7.16483516 20,6.88791209 20,6.57142857 L20,4.59340659 C20,4.27692308 19.7454545,4 19.4545455,4 Z M7.81818182,9 L4.54545455,9 C4.25454545,9 4,9.30769231 4,9.65934066 L4,10.978022 C4,11.3296703 4.25454545,11.6373626 4.54545455,11.6373626 L7.81818182,11.6373626 C8.10909091,11.6373626 8.36363636,11.3296703 8.36363636,10.978022 L8.36363636,9.65934066 C8.36363636,9.30769231 8.10909091,9 7.81818182,9 Z M13.6363636,9 L10.3636364,9 C10.0727273,9 9.81818182,9.30769231 9.81818182,9.65934066 L9.81818182,10.978022 C9.81818182,11.3296703 10.0727273,11.6373626 10.3636364,11.6373626 L13.6363636,11.6373626 C13.9272727,11.6373626 14.1818182,11.3296703 14.1818182,10.978022 L14.1818182,9.65934066 C14.1818182,9.30769231 13.9272727,9 13.6363636,9 Z M19.4545455,9 L16.1818182,9 C15.8909091,9 15.6363636,9.30769231 15.6363636,9.65934066 L15.6363636,10.978022 C15.6363636,11.3296703 15.8909091,11.6373626 16.1818182,11.6373626 L19.4545455,11.6373626 C19.7454545,11.6373626 20,11.3296703 20,10.978022 L20,9.65934066 C20,9.30769231 19.7454545,9 19.4545455,9 Z M7.81818182,13 L4.54545455,13 C4.25454545,13 4,13.3076923 4,13.6593407 L4,14.978022 C4,15.3296703 4.25454545,15.6373626 4.54545455,15.6373626 L7.81818182,15.6373626 C8.10909091,15.6373626 8.36363636,15.3296703 8.36363636,14.978022 L8.36363636,13.6593407 C8.36363636,13.3076923 8.10909091,13 7.81818182,13 Z M13.6363636,13 L10.3636364,13 C10.0727273,13 9.81818182,13.3076923 9.81818182,13.6593407 L9.81818182,14.978022 C9.81818182,15.3296703 10.0727273,15.6373626 10.3636364,15.6373626 L13.6363636,15.6373626 C13.9272727,15.6373626 14.1818182,15.3296703 14.1818182,14.978022 L14.1818182,13.6593407 C14.1818182,13.3076923 13.9272727,13 13.6363636,13 Z M19.4545455,13 L16.1818182,13 C15.8909091,13 15.6363636,13.3076923 15.6363636,13.6593407 L15.6363636,14.978022 C15.6363636,15.3296703 15.8909091,15.6373626 16.1818182,15.6373626 L19.4545455,15.6373626 C19.7454545,15.6373626 20,15.3296703 20,14.978022 L20,13.6593407 C20,13.3076923 19.7454545,13 19.4545455,13 Z M7.81818182,17 L4.54545455,17 C4.25454545,17 4,17.3076923 4,17.6593407 L4,18.978022 C4,19.3296703 4.25454545,19.6373626 4.54545455,19.6373626 L7.81818182,19.6373626 C8.10909091,19.6373626 8.36363636,19.3296703 8.36363636,18.978022 L8.36363636,17.6593407 C8.36363636,17.3076923 8.10909091,17 7.81818182,17 Z M13.6363636,17 L10.3636364,17 C10.0727273,17 9.81818182,17.3076923 9.81818182,17.6593407 L9.81818182,18.978022 C9.81818182,19.3296703 10.0727273,19.6373626 10.3636364,19.6373626 L13.6363636,19.6373626 C13.9272727,19.6373626 14.1818182,19.3296703 14.1818182,18.978022 L14.1818182,17.6593407 C14.1818182,17.3076923 13.9272727,17 13.6363636,17 Z M19.4545455,17 L16.1818182,17 C15.8909091,17 15.6363636,17.3076923 15.6363636,17.6593407 L15.6363636,18.978022 C15.6363636,19.3296703 15.8909091,19.6373626 16.1818182,19.6373626 L19.4545455,19.6373626 C19.7454545,19.6373626 20,19.3296703 20,18.978022 L20,17.6593407 C20,17.3076923 19.7454545,17 19.4545455,17 Z"/>
</svg>