<svg fill="#000" xmlns="http://www.w3.org/2000/svg" xmlns:xlink="http://www.w3.org/1999/xlink" width="24" height="24" viewBox="0 0 24 24">
  <path d="M13.7230769,4.61538462 L10.2769231,4.61538462 C10.0615385,4.61538462 9.90769231,4.87817714 9.90769231,5.18476842 L9.90769231,6.27973729 C9.90769231,6.58632857 10.0923077,6.84912109 10.2769231,6.84912109 L13.7230769,6.84912109 C13.9384615,6.84912109 14.0923077,6.58632857 14.0923077,6.27973729 L14.0923077,5.18476842 C14.1230769,4.87817714 13.9384615,4.61538462 13.7230769,4.61538462 L13.7230769,4.61538462 Z M18.9846154,4.61538462 L15.5384615,4.61538462 C15.3230769,4.61538462 15.1384615,4.87817714 15.1384615,5.18476842 L15.1384615,6.27973729 C15.1384615,6.58632857 15.3230769,6.84912109 15.5384615,6.84912109 L18.9846154,6.84912109 C19.2,6.80532234 19.3846154,6.58632857 19.3846154,6.27973729 L19.3846154,5.18476842 C19.3846154,4.87817714 19.2,4.61538462 18.9846154,4.61538462 L18.9846154,4.61538462 Z M9.23076923,7.84730769 C9.01538462,7.84730769 8.83076923,7.6725 8.83076923,7.46855769 L8.83076923,5.05453125 C8.83076923,4.85058894 8.64615385,4.67578125 8.43076923,4.67578125 L5.01538462,4.67578125 C4.8,4.67578125 4.61538462,4.85058894 4.61538462,5.05453125 L4.61538462,19.035 C4.61538462,19.2098077 4.8,19.3846154 5.01538462,19.3846154 L18.9846154,19.3846154 C19.2,19.3846154 19.3846154,19.2098077 19.3846154,19.0058654 L19.3846154,8.22605769 C19.3846154,8.02211538 19.2,7.84730769 18.9846154,7.84730769 L9.23076923,7.84730769 Z"/>
</svg>