<svg fill="#000" xmlns="http://www.w3.org/2000/svg" xmlns:xlink="http://www.w3.org/1999/xlink" width="24" height="24" viewBox="0 0 24 24">
  <path d="M4,19.5454545 L6.90909091,19.5454545 L6.90909091,10.8181818 L4,10.8181818 L4,19.5454545 Z M20,11.5454545 C20,10.7454545 19.3454545,10.0909091 18.5454545,10.0909091 L13.9563636,10.0909091 L14.6472727,6.76727273 L14.6690909,6.53454545 C14.6690909,6.23636364 14.5454545,5.96 14.3490909,5.76363636 L13.5781818,5 L8.79272727,9.79272727 C8.52363636,10.0545455 8.36363636,10.4181818 8.36363636,10.8181818 L8.36363636,18.0909091 C8.36363636,18.8909091 9.01818182,19.5454545 9.81818182,19.5454545 L16.3636364,19.5454545 C16.9672727,19.5454545 17.4836364,19.1818182 17.7018182,18.6581818 L19.8981818,13.5309091 C19.9636364,13.3636364 20,13.1890909 20,13 L20,11.6109091 L19.9927273,11.6036364 L20,11.5454545 Z"/>
</svg>