<svg fill="#000" xmlns="http://www.w3.org/2000/svg" xmlns:xlink="http://www.w3.org/1999/xlink" width="24" height="24" viewBox="0 0 24 24">
  <path d="M20,17.6666667 L20,18.4 C20,19.2666667 19.2666667,20 18.4,20 L5.6,20 C4.73333333,20 4,19.2666667 4,18.4 L4,17.6666667 C4,15.7333333 6.26666667,14.5333333 8.4,13.6 L8.6,13.5 C8.76666667,13.4333333 8.93333333,13.4333333 9.1,13.5333333 C9.96666667,14.1 10.9333333,14.4 11.9666667,14.4 C13,14.4 14,14.0666667 14.8333333,13.5333333 C15,13.4333333 15.1666667,13.4333333 15.3333333,13.5 L15.5333333,13.6 C17.7333333,14.5333333 20,15.7 20,17.6666667 L20,17.6666667 Z M12,4 C14.2,4 15.9666667,5.96666667 15.9666667,8.4 C15.9666667,10.8333333 14.2,12.8 12,12.8 C9.8,12.8 8.03333333,10.8333333 8.03333333,8.4 C8.03333333,5.96666667 9.8,4 12,4 Z"/>
</svg>