<svg fill="#000" xmlns="http://www.w3.org/2000/svg" xmlns:xlink="http://www.w3.org/1999/xlink" width="24" height="24" viewBox="0 0 24 24">
  <path d="M12,20 C16.418278,20 20,16.418278 20,12 C20,7.581722 16.418278,4 12,4 C7.581722,4 4,7.581722 4,12 C4,16.418278 7.581722,20 12,20 Z M17,15.0416667 L17,15.5 C17,16.0416667 16.5416667,16.5 16,16.5 L8,16.5 C7.45833333,16.5 7,16.0416667 7,15.5 L7,15.0416667 C7,13.8333333 8.41666667,13.0833333 9.75,12.5 L9.875,12.4375 C9.97916667,12.3958333 10.0833333,12.3958333 10.1875,12.4583333 C10.7291667,12.8125 11.3333333,13 11.9791667,13 C12.625,13 13.25,12.7916667 13.7708333,12.4583333 C13.875,12.3958333 13.9791667,12.3958333 14.0833333,12.4375 L14.2083333,12.5 C15.5833333,13.0833333 17,13.8125 17,15.0416667 L17,15.0416667 Z M12,6.5 C13.375,6.5 14.4791667,7.72916667 14.4791667,9.25 C14.4791667,10.7708333 13.375,12 12,12 C10.625,12 9.52083333,10.7708333 9.52083333,9.25 C9.52083333,7.72916667 10.625,6.5 12,6.5 Z"/>
</svg>