<svg fill="#000" xmlns="http://www.w3.org/2000/svg" xmlns:xlink="http://www.w3.org/1999/xlink" width="24" height="24" viewBox="0 0 24 24">
  <path d="M19.8002081,7.39646202 C19.7336108,7.19667014 19.5005203,7.16337149 19.3340271,7.29656608 L16.6368366,9.9937565 C16.4370447,10.1935484 16.1040583,10.1935484 15.9042664,9.9937565 L14.0062435,8.09573361 C13.8064516,7.89594173 13.8064516,7.56295525 14.0062435,7.36316337 L16.7367326,4.66597294 C16.8699272,4.53277836 16.8033299,4.29968783 16.6368366,4.19979188 C16.1706556,4.06659729 15.6711759,4 15.2049948,4 C12.3746098,4 10.1103018,6.43080125 10.4432882,9.32778356 C10.5098855,9.79396462 10.6097815,10.1935484 10.7762747,10.5931322 L4.54942768,16.7866805 C3.81685744,17.5192508 3.81685744,18.7180021 4.54942768,19.4172737 C4.9157128,19.7835588 5.41519251,19.9833507 5.88137357,19.9833507 C6.34755463,19.9833507 6.84703434,19.7835588 7.21331946,19.4172737 L13.4068678,13.2237253 C13.8064516,13.3902185 14.239334,13.4901145 14.6722164,13.5567118 C17.5691988,13.8896982 20,11.6253902 20,8.7950052 C20,8.29552549 19.9334027,7.82934443 19.8002081,7.39646202 L19.8002081,7.39646202 Z"/>
</svg>