<svg fill="#000" xmlns="http://www.w3.org/2000/svg" xmlns:xlink="http://www.w3.org/1999/xlink" width="24" height="24" viewBox="0 0 24 24">
  <circle cx="10.7" cy="10.7" r="6" fill="#fff"></circle>
  <path d="M13.6566077,9.66077003 L11.6586889,9.66077003 L11.6586889,7.6628512 C11.6586889,7.46305931 11.5254943,7.32986472 11.3257024,7.32986472 L9.9937565,7.32986472 C9.79396462,7.32986472 9.66077003,7.46305931 9.66077003,7.6628512 L9.66077003,9.66077003 L7.6628512,9.66077003 C7.46305931,9.66077003 7.32986472,9.79396462 7.32986472,9.9937565 L7.32986472,11.3257024 C7.32986472,11.5254943 7.46305931,11.6586889 7.6628512,11.6586889 L9.66077003,11.6586889 L9.66077003,13.6566077 C9.66077003,13.8563996 9.79396462,13.9895942 9.9937565,13.9895942 L11.3257024,13.9895942 C11.5254943,13.9895942 11.6586889,13.8563996 11.6586889,13.6566077 L11.6586889,11.6586889 L13.6566077,11.6586889 C13.8563996,11.6586889 13.9895942,11.5254943 13.9895942,11.3257024 L13.9895942,9.9937565 C13.9895942,9.79396462 13.8563996,9.66077003 13.6566077,9.66077003 Z M19.8501561,18.3850156 L16.0208117,14.5889698 C16.8199792,13.4901145 17.3194589,12.1248699 17.3194589,10.6597294 C17.3194589,6.99687825 14.3225806,4 10.6597294,4 C6.99687825,4 4,6.99687825 4,10.6597294 C4,14.3225806 6.99687825,17.3194589 10.6597294,17.3194589 C12.1248699,17.3194589 13.4901145,16.8199792 14.5889698,16.0208117 L18.4183143,19.8501561 C18.6181061,20.049948 18.917794,20.049948 19.1175858,19.8501561 L19.8168574,19.1508845 C20.0166493,18.9510926 20.0166493,18.6181061 19.8501561,18.3850156 Z M10.6597294,15.3215401 C8.09573361,15.3215401 5.99791883,13.2237253 5.99791883,10.6597294 C5.99791883,8.09573361 8.09573361,5.99791883 10.6597294,5.99791883 C13.2237253,5.99791883 15.3215401,8.09573361 15.3215401,10.6597294 C15.3215401,13.2237253 13.2237253,15.3215401 10.6597294,15.3215401 Z"/>
</svg>